<?xml version="1.0" encoding="utf-8"?>
<!-- Generator: Adobe Illustrator 28.3.0, SVG Export Plug-In . SVG Version: 6.00 Build 0)  -->
<svg version="1.1" id="Capa_1" xmlns="http://www.w3.org/2000/svg" xmlns:xlink="http://www.w3.org/1999/xlink" x="0px" y="0px"
	 viewBox="0 0 100.1 54.6" style="enable-background:new 0 0 100.1 54.6;" xml:space="preserve">
<style type="text/css">
	.st0{fill-rule:evenodd;clip-rule:evenodd;fill:#5BAEE2;}
	.st1{fill-rule:evenodd;clip-rule:evenodd;fill:#FFFFFF;}
	.st2{fill:none;stroke:#FFFFFF;stroke-width:0.26;stroke-miterlimit:22.93;}
	.st3{fill:#FFFFFF;}
	.st4{fill:none;stroke:#FFFFFF;stroke-width:0.69;stroke-miterlimit:22.93;}
</style>
<path class="st0" d="M75.1,0H24.9C11.2,0,0,11.2,0,24.9v4.8c0,13.7,11.2,24.9,24.9,24.9h50.3c13.7,0,24.9-11.2,24.9-24.9v-4.8
	C100,11.2,88.8,0,75.1,0"/>
<path class="st1" d="M33.7,20.9l6.4-6.4c-7.1-7.1-18.7-7.1-25.8,0s-7.1,18.7,0,25.8s18.7,7.1,25.8,0l-6.6-6.6
	c-3.2,3.2-8.5,4.3-12.7,0.1c-3.5-3.5-3.5-9.3,0-12.9C24.4,17.4,30.2,17.4,33.7,20.9z"/>
<path class="st2" d="M33.7,20.9l6.4-6.4c-7.1-7.1-18.7-7.1-25.8,0s-7.1,18.7,0,25.8s18.7,7.1,25.8,0l-6.6-6.6
	c-3.2,3.2-8.5,4.3-12.7,0.1c-3.5-3.5-3.5-9.3,0-12.9C24.4,17.4,30.2,17.4,33.7,20.9z"/>
<path class="st3" d="M60.6,45.6v-6.2h7.9V16.2L60,21l-0.5-6.7l9.3-5h8.5v30.2h7.3v6.2L60.6,45.6C60.6,45.7,60.6,45.6,60.6,45.6z"/>
<path class="st2" d="M60.6,45.6v-6.2h7.9V16.2L60,21l-0.5-6.7l9.3-5h8.5v30.2h7.3v6.2L60.6,45.6C60.6,45.7,60.6,45.6,60.6,45.6z"/>
<rect x="42.5" y="24.3" class="st3" width="15.2" height="6.1"/>
<rect x="42.5" y="24.3" class="st4" width="15.2" height="6.1"/>
</svg>
