<?xml version="1.0" encoding="utf-8"?>
<!-- Generator: Adobe Illustrator 25.2.0, SVG Export Plug-In . SVG Version: 6.00 Build 0)  -->
<svg version="1.1"
	 id="svg10" inkscape:version="0.92.4 (5da689c313, 2019-01-14)" sodipodi:docname="C1.svg" xmlns:cc="http://creativecommons.org/ns#" xmlns:dc="http://purl.org/dc/elements/1.1/" xmlns:inkscape="http://www.inkscape.org/namespaces/inkscape" xmlns:rdf="http://www.w3.org/1999/02/22-rdf-syntax-ns#" xmlns:sodipodi="http://sodipodi.sourceforge.net/DTD/sodipodi-0.dtd" xmlns:svg="http://www.w3.org/2000/svg"
	 xmlns="http://www.w3.org/2000/svg" xmlns:xlink="http://www.w3.org/1999/xlink" x="0px" y="0px"
	 viewBox="0 0 356.9479065 196.3253326" style="enable-background:new 0 0 356.9479065 196.3253326;" xml:space="preserve">
<style type="text/css">
	.st0{fill-rule:evenodd;clip-rule:evenodd;fill:#F5333F;}
	.st1{fill-rule:evenodd;clip-rule:evenodd;fill:#FFFFFF;}
</style>
<g>
	<path class="st0" d="M265.0282288,3.2786984H89.964325c-47.608326,0-86.5711136,38.950386-86.5711136,86.571106v16.6257172
		c0,47.6207275,38.9627838,86.571106,86.5711136,86.571106h175.0639038c47.6083374,0,86.571106-38.9503784,86.571106-86.571106
		V89.8498077C351.5993347,42.229084,312.6241455,3.2786984,265.0282288,3.2786984z"/>
	<g>
		<path class="st1" d="M126.8416748,75.8979263l22.4445038-22.4197235c-24.7174683-24.6844177-65.0275116-24.6844177-89.7449875,0
			c-24.6720238,24.7050858-24.6720238,64.9903259,0,89.6995316c24.7174759,24.692688,65.0275192,24.692688,89.7449875,0
			l-22.9362946-22.9156342c-11.1995316,11.2243195-29.7097473,15.1131592-44.3517838,0.4917908
			c-12.3360138-12.3566742-12.3360138-32.5075607,0-44.8559647C94.3341141,63.5536461,114.505661,63.5536461,126.8416748,75.8979263
			z"/>
		<polygon class="st1" points="220.5126953,161.696228 220.5126953,140.2724762 248.1354523,140.2724762 248.1354523,59.3796539 
			218.380249,75.9929733 216.6693268,52.6434059 248.9082489,35.0837021 278.651062,35.0837021 278.651062,140.2724762 
			303.9553833,140.2724762 303.9553833,161.696228 		"/>
		<rect x="157.2415619" y="87.7669449" class="st1" width="52.8444061" height="21.1427231"/>
	</g>
</g>
</svg>
