<?xml version="1.0" encoding="utf-8"?>
<!-- Generator: Adobe Illustrator 25.2.0, SVG Export Plug-In . SVG Version: 6.00 Build 0)  -->
<svg version="1.1"
	 id="svg10" inkscape:version="0.92.4 (5da689c313, 2019-01-14)" sodipodi:docname="C1.svg" xmlns:cc="http://creativecommons.org/ns#" xmlns:dc="http://purl.org/dc/elements/1.1/" xmlns:inkscape="http://www.inkscape.org/namespaces/inkscape" xmlns:rdf="http://www.w3.org/1999/02/22-rdf-syntax-ns#" xmlns:sodipodi="http://sodipodi.sourceforge.net/DTD/sodipodi-0.dtd" xmlns:svg="http://www.w3.org/2000/svg"
	 xmlns="http://www.w3.org/2000/svg" xmlns:xlink="http://www.w3.org/1999/xlink" x="0px" y="0px"
	 viewBox="0 0 356.9479065 196.3253326" style="enable-background:new 0 0 356.9479065 196.3253326;" xml:space="preserve">
<style type="text/css">
	.st0{fill-rule:evenodd;clip-rule:evenodd;fill:#00953B;}
	.st1{fill-rule:evenodd;clip-rule:evenodd;fill:#FFFFFF;}
</style>
<g>
	<g>
		<path class="st0" d="M265.0282288,3.2786984H89.964325c-47.608326,0-86.5711136,38.950386-86.5711136,86.571106v16.6257172
			c0,47.6207275,38.9627838,86.571106,86.5711136,86.571106h175.0639038c47.6083374,0,86.571106-38.9503784,86.571106-86.571106
			V89.8498077C351.5993347,42.229084,312.6241455,3.2786984,265.0282288,3.2786984z"/>
	</g>
	<g>
		<path class="st1" d="M122.8195496,75.9187622l22.3840179-22.4046631c-24.6678467-24.7050152-64.9508133-24.7050152-89.6393127,0
			c-24.7008858,24.6884918-24.7008858,64.9714661,0,89.6599579c24.6884956,24.6884918,64.9714661,24.6884918,89.6393127,0
			l-22.875473-22.9002533c-11.2043991,11.2043915-29.7352219,15.1030121-44.3674316,0.4832001
			c-12.3401184-12.3525085-12.3401184-32.485733,0-44.8382416C90.3338165,63.5786438,110.4463959,63.5786438,122.8195496,75.9187622
			z"/>
		<rect x="153.1990356" y="87.7674255" class="st1" width="52.8213196" height="21.153307"/>
		<path class="st1" d="M216.5102844,161.6924896v-14.2811584c0-6.5665283,1.3339539-12.4185944,3.9564362-17.5726929
			c2.6679077-5.1375885,5.9346619-9.845665,9.8787079-14.0829391c3.9233856-4.2496567,8.1854401-8.2060928,12.8439636-11.8693085
			c4.6130829-3.6755981,8.9081726-7.3388138,12.8191833-11.0061569c3.9564209-3.6756058,7.2107849-7.4338074,9.8456726-11.2952576
			c2.6679077-3.8614502,3.9564209-8.1028519,3.9564209-12.7365875c0-4.5057144-1.3587341-8.0780678-4.1216431-10.7129402
			c-2.7752686-2.6431313-7.0703735-3.9564362-12.8645935-3.9564362c-3.7127838,0-7.6568298,0.3180008-11.7660675,0.962265
			c-4.1092377,0.6401329-9.2716064,2.5729218-15.4540558,5.794239l-6.7771606-20.4636154
			c5.8066406-2.9611359,12.1749268-4.9517441,19.1296692-5.9842148c6.9423523-1.0283432,13.5790863-1.5445786,19.8895569-1.5445786
			c6.0750732,0,11.6710815,0.6772995,16.8210449,2.0236435c5.1293335,1.3463478,9.6226501,3.4071617,13.4056396,6.1824493
			c3.8160095,2.7628975,6.7895508,6.3352547,8.9907837,10.7129402c2.1888428,4.3776855,3.2997742,9.515274,3.2997742,15.4416695
			c0,5.7942352-1.3339539,11.2250443-3.9688416,16.3048096c-2.6555176,5.0839005-5.9222412,9.8828354-9.8663025,14.3885498
			c-3.9110107,4.4974518-8.1854553,8.6851578-12.8315735,12.538353c-4.6585083,3.8655777-8.9205627,7.5287933-12.8315735,11.0061569
			c-3.9440613,3.4773712-7.2107849,6.7523727-9.8787079,9.845665c-2.6348724,3.0891571-3.9357758,6.050293-3.9357758,8.8833923
			h54.8367004v21.4217529H216.5102844z"/>
	</g>
</g>
</svg>
