<?xml version="1.0" encoding="UTF-8" standalone="no"?>
<!-- Generator: Adobe Illustrator 25.2.0, SVG Export Plug-In . SVG Version: 6.00 Build 0)  -->

<svg
   version="1.1"
   id="svg10"
   inkscape:version="1.1.1 (3bf5ae0d25, 2021-09-20)"
   sodipodi:docname="Cercanías C3 (Azul oscuro).svg"
   x="0px"
   y="0px"
   viewBox="0 0 356.94791 196.32533"
   xml:space="preserve"
   width="356.94791"
   height="196.32533"
   xmlns:inkscape="http://www.inkscape.org/namespaces/inkscape"
   xmlns:sodipodi="http://sodipodi.sourceforge.net/DTD/sodipodi-0.dtd"
   xmlns="http://www.w3.org/2000/svg"
   xmlns:svg="http://www.w3.org/2000/svg"><defs
   id="defs21" /><sodipodi:namedview
   id="namedview19"
   pagecolor="#ffffff"
   bordercolor="#666666"
   borderopacity="1.0"
   inkscape:pageshadow="2"
   inkscape:pageopacity="0.0"
   inkscape:pagecheckerboard="0"
   showgrid="false"
   showguides="true"
   inkscape:zoom="3.9831844"
   inkscape:cx="178.37487"
   inkscape:cy="49.457916"
   inkscape:window-width="1920"
   inkscape:window-height="986"
   inkscape:window-x="-11"
   inkscape:window-y="-11"
   inkscape:window-maximized="1"
   inkscape:current-layer="svg10" />
<style
   type="text/css"
   id="style2">
	.st0{fill-rule:evenodd;clip-rule:evenodd;fill:#65B2E8;}
	.st1{fill-rule:evenodd;clip-rule:evenodd;fill:#FFFFFF;}
</style>
<g
   id="g8"
   style="fill:#000080"
   transform="translate(-2.114e-4)">
	<g
   id="g6"
   style="fill:#000080">
		<path
   class="st0"
   d="M 265.02823,3.2786984 H 89.964325 c -47.608326,0 -86.5711136,38.9503856 -86.5711136,86.5711056 v 16.625716 c 0,47.62073 38.9627836,86.57111 86.5711136,86.57111 H 265.02823 c 47.60834,0 86.5711,-38.95038 86.5711,-86.57111 V 89.849808 c 0,-47.620724 -38.97518,-86.5711096 -86.5711,-86.5711096 z"
   id="path4"
   style="fill:#000080" />
	</g>
</g>
<g
   id="g16">
	<path
   class="st1"
   d="m 124.87324,75.896423 22.38907,-22.426254 c -24.67341,-24.694073 -64.965488,-24.694073 -89.659557,0 -24.706471,24.710602 -24.706471,64.990281 0,89.696751 24.694072,24.69407 64.986147,24.69407 89.659557,0 l -22.88063,-22.90543 c -11.20694,11.20692 -29.741948,15.10643 -44.356808,0.48331 -12.363564,-12.3553 -12.363564,-32.497211 0,-44.848377 12.355293,-12.342907 32.472418,-12.342907 44.848368,0 z"
   id="path10" />
	<rect
   x="155.2596"
   y="87.743629"
   class="st1"
   width="52.820866"
   height="21.16222"
   id="rect12" />
	<path
   class="st1"
   d="m 301.85019,123.65703 c 0,13.25581 -4.39105,23.26893 -13.11536,30.02284 -8.76974,6.75803 -21.18289,10.12878 -37.30549,10.12878 -2.06128,0 -4.55629,-0.12805 -7.5181,-0.38417 -2.96181,-0.26023 -6.00623,-0.57418 -9.07542,-0.96247 -3.10225,-0.38417 -6.08884,-0.90053 -8.98041,-1.54494 -2.90398,-0.64441 -5.31638,-1.34665 -7.27027,-2.11911 l 2.15216,-21.82729 c 4.88265,2.32154 9.88508,3.82929 15.0486,4.54392 5.16353,0.70224 9.33155,1.06575 12.57424,1.06575 8.50125,0 14.46203,-1.83821 17.86996,-5.50226 3.39554,-3.67644 5.09329,-8.79453 5.09329,-15.35015 0,-4.38281 -1.78039,-8.04685 -5.38659,-11.00865 -3.6062,-2.9618 -8.30295,-4.4365 -14.1109,-4.4365 H 232.30775 V 85.042068 h 19.89406 c 5.9484,0 10.32706,-1.582107 13.1608,-4.733924 2.83374,-3.14769 4.23822,-6.976967 4.23822,-11.483696 0,-4.122567 -1.40448,-7.60072 -4.23822,-10.434464 -2.83374,-2.821354 -7.14218,-4.238228 -12.95013,-4.238228 -4.76697,0 -9.41416,0.35112 -13.90023,1.05336 -4.50673,0.714634 -9.23652,2.024105 -14.13156,3.957333 l -3.84166,-21.228314 c 5.79555,-1.805172 11.75633,-3.089859 17.85756,-3.866451 6.13428,-0.772465 12.08266,-1.156631 17.89061,-1.156631 6.0434,0 11.65305,0.644409 16.87442,1.933223 5.23377,1.284687 9.77765,3.275746 13.6441,5.981438 3.84995,2.705689 6.89435,6.146668 9.16633,10.327065 2.25955,4.180393 3.38314,9.170433 3.38314,14.96598 0,4.122566 -0.84271,7.749428 -2.54046,10.913643 -1.63996,3.14769 -3.70124,5.853378 -6.15906,8.100548 -2.43719,2.251297 -5.10571,4.052337 -8.00967,5.411377 -2.89158,1.346649 -5.51465,2.284347 -7.84446,2.79657 3.33771,0.644409 6.65064,1.767997 9.88095,3.374885 3.20966,1.615151 6.11362,3.701218 8.66648,6.274728 2.56524,2.57764 4.64715,5.60966 6.17145,9.07542 1.54492,3.47815 2.32977,7.34048 2.32977,11.5911 z"
   id="path14" />
</g>
</svg>
