<?xml version="1.0" encoding="utf-8"?>
<!-- Generator: Adobe Illustrator 25.2.0, SVG Export Plug-In . SVG Version: 6.00 Build 0)  -->
<svg version="1.1"
	 id="svg10" inkscape:version="0.92.4 (5da689c313, 2019-01-14)" sodipodi:docname="C1.svg" xmlns:cc="http://creativecommons.org/ns#" xmlns:dc="http://purl.org/dc/elements/1.1/" xmlns:inkscape="http://www.inkscape.org/namespaces/inkscape" xmlns:rdf="http://www.w3.org/1999/02/22-rdf-syntax-ns#" xmlns:sodipodi="http://sodipodi.sourceforge.net/DTD/sodipodi-0.dtd" xmlns:svg="http://www.w3.org/2000/svg"
	 xmlns="http://www.w3.org/2000/svg" xmlns:xlink="http://www.w3.org/1999/xlink" x="0px" y="0px"
	 viewBox="0 0 356.9479065 196.3253326" style="enable-background:new 0 0 356.9479065 196.3253326;" xml:space="preserve">
<style type="text/css">
	.st0{fill-rule:evenodd;clip-rule:evenodd;fill:#65B2E8;}
	.st1{fill-rule:evenodd;clip-rule:evenodd;fill:#FFFFFF;}
</style>
<g>
	<g>
		<path class="st0" d="M265.0282288,3.2786984H89.964325c-47.608326,0-86.5711136,38.950386-86.5711136,86.571106v16.6257172
			c0,47.6207275,38.9627838,86.571106,86.5711136,86.571106h175.0639038c47.6083374,0,86.571106-38.9503784,86.571106-86.571106
			V89.8498077C351.5993347,42.229084,312.6241455,3.2786984,265.0282288,3.2786984z"/>
	</g>
</g>
<g>
	<path class="st1" d="M124.8732376,75.8964233l22.3890762-22.4262543c-24.6734161-24.6940727-64.9654922-24.6940727-89.6595612,0
		c-24.7064705,24.7106018-24.7064705,64.9902802,0,89.6967468c24.6940727,24.6940765,64.986145,24.6940765,89.6595612,0
		l-22.8806381-22.905426c-11.2069321,11.2069244-29.7419434,15.1064301-44.3568039,0.4833069
		c-12.3635635-12.3553009-12.3635635-32.4972076,0-44.8483734C92.3801651,63.5535164,112.4972916,63.5535164,124.8732376,75.8964233
		z"/>
	<rect x="155.2595978" y="87.7436295" class="st1" width="52.8208656" height="21.16222"/>
	<path class="st1" d="M301.8501892,123.6570282c0,13.2558136-4.3910522,23.2689362-13.1153564,30.0228424
		c-8.7697449,6.7580261-21.1828918,10.1287842-37.3054962,10.1287842c-2.0612793,0-4.5562897-0.1280518-7.5180969-0.3841705
		c-2.9618073-0.2602386-6.0062256-0.5741882-9.0754242-0.9624786c-3.1022491-0.3841705-6.0888367-0.900528-8.9804077-1.5449371
		c-2.9039764-0.6444092-5.3163757-1.3466492-7.2702637-2.1191101l2.1521606-21.8272858
		c4.8826447,2.3215332,9.8850708,3.8292847,15.0485992,4.5439148c5.1635284,0.70224,9.331543,1.0657501,12.574234,1.0657501
		c8.5012512,0,14.4620361-1.8382111,17.8699646-5.5022583c3.3955383-3.6764374,5.0932922-8.7945251,5.0932922-15.3501511
		c0-4.3828049-1.7803955-8.0468445-5.3865967-11.0086441c-3.6062012-2.9618073-8.302948-4.4365082-14.1109009-4.4365082h-19.5181427
		V85.0420685h19.8940582c5.9483948,0,10.3270569-1.5821075,13.1607971-4.7339249
		c2.8337402-3.1476898,4.2382202-6.9769669,4.2382202-11.483696c0-4.1225662-1.40448-7.6007195-4.2382202-10.4344635
		c-2.8337402-2.8213539-7.1421814-4.2382278-12.9501343-4.2382278c-4.7669678,0-9.4141541,0.35112-13.9002228,1.05336
		c-4.5067291,0.7146339-9.2365265,2.0241051-14.1315613,3.9573326l-3.8416595-21.2283134
		c5.7955475-1.805172,11.7563324-3.089859,17.8575592-3.8664513c6.1342773-0.7724648,12.0826569-1.1566315,17.8906097-1.1566315
		c6.043396,0,11.6530457,0.6444092,16.8744202,1.9332237c5.2337646,1.284687,9.7776489,3.2757454,13.644104,5.9814377
		c3.8499451,2.7056885,6.8943481,6.1466675,9.1663208,10.3270645c2.259552,4.1803932,3.3831482,9.170433,3.3831482,14.9659805
		c0,4.1225662-0.8427124,7.7494278-2.5404663,10.9136429c-1.6399536,3.1476898-3.7012329,5.8533783-6.1590576,8.1005478
		c-2.4371948,2.251297-5.1057129,4.0523376-8.0096741,5.411377c-2.891571,1.3466492-5.5146484,2.2843475-7.8444519,2.7965698
		c3.3377075,0.6444092,6.6506348,1.7679977,9.8809509,3.3748856c3.2096558,1.6151505,6.1136169,3.7012177,8.6664734,6.2747269
		c2.5652466,2.5776367,4.6471558,5.6096573,6.1714478,9.0754242
		C301.0653381,115.5440826,301.8501892,119.4064102,301.8501892,123.6570282z"/>
</g>
</svg>
