<?xml version="1.0" encoding="utf-8"?>
<!-- Generator: Adobe Illustrator 28.3.0, SVG Export Plug-In . SVG Version: 6.00 Build 0)  -->
<svg version="1.1" id="Capa_1" xmlns="http://www.w3.org/2000/svg" xmlns:xlink="http://www.w3.org/1999/xlink" x="0px" y="0px"
	 viewBox="0 0 100.1 54.6" style="enable-background:new 0 0 100.1 54.6;" xml:space="preserve">
<style type="text/css">
	.st0{fill:none;stroke:#1A1A18;stroke-width:0.69;stroke-miterlimit:22.93;}
	.st1{fill-rule:evenodd;clip-rule:evenodd;fill:#962785;}
	.st2{fill-rule:evenodd;clip-rule:evenodd;fill:#FFFFFF;}
	.st3{fill:none;stroke:#FFFFFF;stroke-width:0.26;stroke-miterlimit:22.93;}
	.st4{fill:#FFFFFF;}
</style>
<circle class="st0" cx="27.3" cy="27.3" r="18.2"/>
<rect x="36.4" y="21.3" class="st0" width="9.1" height="3"/>
<rect x="36.4" y="18.2" class="st0" width="9.1" height="3"/>
<rect x="36.4" y="30.4" class="st0" width="9.1" height="3"/>
<rect x="36.4" y="33.4" class="st0" width="9.1" height="3"/>
<rect x="45.5" y="21.3" class="st0" width="9.1" height="3"/>
<rect x="45.5" y="18.2" class="st0" width="9.1" height="3"/>
<rect x="45.5" y="30.4" class="st0" width="9.1" height="3"/>
<rect x="45.5" y="33.4" class="st0" width="9.1" height="3"/>
<rect x="45.5" y="27.3" class="st0" width="9.1" height="3"/>
<rect x="54.6" y="21.3" class="st0" width="9.1" height="3"/>
<rect x="54.6" y="24.3" class="st0" width="9.1" height="3"/>
<rect x="54.6" y="18.2" class="st0" width="9.1" height="3"/>
<rect x="54.6" y="30.4" class="st0" width="9.1" height="3"/>
<rect x="54.6" y="33.4" class="st0" width="9.1" height="3"/>
<rect x="54.6" y="27.3" class="st0" width="9.1" height="3"/>
<rect x="54.6" y="27.3" class="st0" width="9.1" height="3"/>
<rect x="45.5" y="24.3" class="st0" width="9.1" height="3"/>
<rect x="36.4" y="27.3" class="st0" width="9.1" height="3"/>
<rect x="36.4" y="24.3" class="st0" width="9.1" height="3"/>
<rect x="54.6" y="21.3" class="st0" width="9.1" height="3"/>
<rect x="54.6" y="18.2" class="st0" width="9.1" height="3"/>
<rect x="54.6" y="30.4" class="st0" width="9.1" height="3"/>
<rect x="54.6" y="33.4" class="st0" width="9.1" height="3"/>
<rect x="54.6" y="27.3" class="st0" width="9.1" height="3"/>
<rect x="54.6" y="24.3" class="st0" width="9.1" height="3"/>
<rect x="45.5" y="18.2" class="st0" width="3" height="9.1"/>
<rect x="45.5" y="27.3" class="st0" width="3" height="9.1"/>
<rect x="48.5" y="18.2" class="st0" width="3" height="9.1"/>
<rect x="48.5" y="27.3" class="st0" width="3" height="9.1"/>
<rect x="42.5" y="18.2" class="st0" width="3" height="9.1"/>
<rect x="42.5" y="27.3" class="st0" width="3" height="9.1"/>
<rect x="39.4" y="18.2" class="st0" width="3" height="9.1"/>
<rect x="39.4" y="27.3" class="st0" width="3" height="9.1"/>
<rect x="54.6" y="18.2" class="st0" width="3" height="9.1"/>
<rect x="54.6" y="27.3" class="st0" width="3" height="9.1"/>
<rect x="57.6" y="18.2" class="st0" width="3" height="9.1"/>
<rect x="57.6" y="27.3" class="st0" width="3" height="9.1"/>
<rect x="9.1" y="9.1" class="st0" width="36.4" height="36.4"/>
<path class="st1" d="M75.1,0H24.9C11.2,0,0,11.2,0,24.9v4.8c0,13.7,11.2,24.9,24.9,24.9h50.3c13.7,0,24.9-11.2,24.9-24.9v-4.8
	C100,11.2,88.8,0,75.1,0"/>
<path class="st2" d="M33.7,20.9l6.4-6.4c-7.1-7.1-18.7-7.1-25.8,0s-7.1,18.7,0,25.8s18.7,7.1,25.8,0l-6.6-6.6
	c-3.2,3.2-8.5,4.3-12.7,0.1c-3.5-3.5-3.5-9.3,0-12.9C24.4,17.4,30.2,17.4,33.7,20.9z"/>
<path class="st3" d="M33.7,20.9l6.4-6.4c-7.1-7.1-18.7-7.1-25.8,0s-7.1,18.7,0,25.8s18.7,7.1,25.8,0l-6.6-6.6
	c-3.2,3.2-8.5,4.3-12.7,0.1c-3.5-3.5-3.5-9.3,0-12.9C24.4,17.4,30.2,17.4,33.7,20.9z"/>
<rect x="42.5" y="24.3" class="st4" width="15.2" height="6.1"/>
<path class="st4" d="M84.5,34.6c0,3.8-1.3,6.7-3.8,8.6s-6.1,2.9-10.7,2.9c-0.6,0-1.3,0-2.2-0.1c-0.9-0.1-1.7-0.2-2.6-0.3
	s-1.7-0.3-2.6-0.4c-0.8-0.2-1.5-0.4-2.1-0.6l0.6-6.3c1.4,0.7,2.8,1.1,4.3,1.3c1.5,0.2,2.7,0.3,3.6,0.3c2.4,0,4.2-0.5,5.1-1.6
	c1-1.1,1.5-2.5,1.5-4.4c0-1.3-0.5-2.3-1.6-3.2c-1-0.9-2.4-1.3-4.1-1.3h-5.6v-6.1H70c1.7,0,3-0.5,3.8-1.4s1.2-2,1.2-3.3
	c0-1.2-0.4-2.2-1.2-3c-0.8-0.8-2.1-1.2-3.7-1.2c-1.4,0-2.7,0.1-4,0.3s-2.6,0.6-4.1,1.1l-1.1-6.1c1.7-0.5,3.4-0.9,5.1-1.1
	c1.8-0.2,3.5-0.3,5.1-0.3c1.7,0,3.4,0.2,4.9,0.6s2.8,0.9,3.9,1.7s2,1.8,2.6,3s1,2.6,1,4.3c0,1.2-0.2,2.2-0.7,3.1s-1.1,1.7-1.8,2.3
	c-0.7,0.6-1.5,1.2-2.3,1.6s-1.6,0.7-2.2,0.8c1,0.2,1.9,0.5,2.8,1s1.8,1.1,2.5,1.8s1.3,1.6,1.8,2.6C84.3,32.3,84.5,33.4,84.5,34.6
	L84.5,34.6z"/>
<path class="st3" d="M84.5,34.6c0,3.8-1.3,6.7-3.8,8.6s-6.1,2.9-10.7,2.9c-0.6,0-1.3,0-2.2-0.1c-0.9-0.1-1.7-0.2-2.6-0.3
	s-1.7-0.3-2.6-0.4c-0.8-0.2-1.5-0.4-2.1-0.6l0.6-6.3c1.4,0.7,2.8,1.1,4.3,1.3c1.5,0.2,2.7,0.3,3.6,0.3c2.4,0,4.2-0.5,5.1-1.6
	c1-1.1,1.5-2.5,1.5-4.4c0-1.3-0.5-2.3-1.6-3.2c-1-0.9-2.4-1.3-4.1-1.3h-5.6v-6.1H70c1.7,0,3-0.5,3.8-1.4s1.2-2,1.2-3.3
	c0-1.2-0.4-2.2-1.2-3c-0.8-0.8-2.1-1.2-3.7-1.2c-1.4,0-2.7,0.1-4,0.3s-2.6,0.6-4.1,1.1l-1.1-6.1c1.7-0.5,3.4-0.9,5.1-1.1
	c1.8-0.2,3.5-0.3,5.1-0.3c1.7,0,3.4,0.2,4.9,0.6s2.8,0.9,3.9,1.7s2,1.8,2.6,3s1,2.6,1,4.3c0,1.2-0.2,2.2-0.7,3.1s-1.1,1.7-1.8,2.3
	c-0.7,0.6-1.5,1.2-2.3,1.6s-1.6,0.7-2.2,0.8c1,0.2,1.9,0.5,2.8,1s1.8,1.1,2.5,1.8s1.3,1.6,1.8,2.6C84.3,32.3,84.5,33.4,84.5,34.6
	L84.5,34.6z"/>
</svg>
