<?xml version="1.0" encoding="utf-8"?>
<!-- Generator: Adobe Illustrator 28.3.0, SVG Export Plug-In . SVG Version: 6.00 Build 0)  -->
<svg version="1.1" id="Capa_1" xmlns="http://www.w3.org/2000/svg" xmlns:xlink="http://www.w3.org/1999/xlink" x="0px" y="0px"
	 viewBox="0 0 100.1 54.6" style="enable-background:new 0 0 100.1 54.6;" xml:space="preserve">
<style type="text/css">
	.st0{fill:none;stroke:#1A1A18;stroke-width:0.69;stroke-miterlimit:22.93;}
	.st1{fill-rule:evenodd;clip-rule:evenodd;fill:#2D2C86;}
	.st2{fill-rule:evenodd;clip-rule:evenodd;fill:#FFFFFF;}
	.st3{fill:#FFFFFF;}
</style>
<path class="st0" d="M27.3,9.1c10.1,0,18.2,8.1,18.2,18.2s-8.1,18.2-18.2,18.2S9.1,37.4,9.1,27.3S17.2,9.1,27.3,9.1z"/>
<rect x="9.1" y="9.1" class="st0" width="36.4" height="36.4"/>
<path class="st1" d="M75.1,0H24.9C11.2,0,0,11.2,0,24.9v4.8c0,13.7,11.2,24.9,24.9,24.9h50.3c13.7,0,24.9-11.2,24.9-24.9v-4.8
	C100,11.2,88.8,0,75.1,0"/>
<path class="st2" d="M33.7,20.9l6.4-6.4c-7.1-7.1-18.7-7.1-25.8,0s-7.1,18.7,0,25.8s18.7,7.1,25.8,0l-6.6-6.6
	c-3.2,3.2-8.5,4.3-12.7,0.1c-3.5-3.5-3.5-9.3,0-12.9C24.4,17.4,30.2,17.4,33.7,20.9"/>
<path class="st3" d="M66.4,36.7v9h-6.9v-9H47.3v-4.5L57.6,9.3h8.5v21.5h3.6v5.8L66.4,36.7C66.4,36.6,66.4,36.7,66.4,36.7z
	 M59.4,15.6H59l-6.5,15.3h6.9C59.4,30.9,59.4,15.6,59.4,15.6z"/>
<rect x="37.5" y="24.3" class="st3" width="9.1" height="6.1"/>
<path class="st3" d="M83.2,45.5l-0.5-3.2c-0.7,1-1.4,1.9-2.2,2.6c-0.8,0.7-1.9,1-3.3,1c-2.2,0-3.9-0.7-5.1-2.1
	c-1.2-1.4-1.8-3.3-1.8-5.8s0.8-4.7,2.3-6.3s3.7-2.3,6.5-2.3c0.9,0,1.6,0,2,0.1s0.9,0.2,1.3,0.2v-3.1c0-1-0.3-1.8-0.9-2.3
	s-1.5-0.8-2.6-0.8c-1.9,0-3.7,0.5-5.6,1.4l-1-5.2c1.2-0.6,2.6-1,4.1-1.2s3-0.3,4.3-0.3c2.9,0,5,0.7,6.4,2s2.1,3.2,2.1,5.5v14.7
	c0,0.8,0,1.7,0.1,2.5s0.2,1.7,0.3,2.5L83.2,45.5L83.2,45.5z M82.5,34c-0.2-0.1-0.5-0.2-0.9-0.3s-0.7-0.1-1.2-0.1
	c-0.6,0-1,0.1-1.4,0.4c-0.4,0.2-0.7,0.5-0.9,0.9c-0.2,0.4-0.4,0.8-0.5,1.3s-0.1,1-0.1,1.5c0,0.9,0.2,1.7,0.5,2.3
	c0.4,0.6,0.9,0.9,1.7,0.9c0.9,0,1.6-0.3,2-0.9c0.5-0.6,0.7-1.4,0.7-2.2V34C82.4,34,82.5,34,82.5,34z"/>
</svg>
