<?xml version="1.0" encoding="utf-8"?>
<!-- Generator: Adobe Illustrator 28.3.0, SVG Export Plug-In . SVG Version: 6.00 Build 0)  -->
<svg version="1.1" id="Capa_1" xmlns="http://www.w3.org/2000/svg" xmlns:xlink="http://www.w3.org/1999/xlink" x="0px" y="0px"
	 viewBox="0 0 100.1 54.6" style="enable-background:new 0 0 100.1 54.6;" xml:space="preserve">
<style type="text/css">
	.st0{fill:none;stroke:#1A1A18;stroke-width:0.5669;stroke-miterlimit:22.9256;}
	.st1{fill-rule:evenodd;clip-rule:evenodd;fill:#2D2C86;}
	.st2{fill-rule:evenodd;clip-rule:evenodd;fill:#FFFFFF;}
	.st3{fill:#FFFFFF;}
</style>
<g>
	<path class="st0" d="M27.3,9.1c10.1,0,18.2,8.2,18.2,18.2s-8.2,18.2-18.2,18.2c-10.1,0-18.2-8.2-18.2-18.2S17.3,9.1,27.3,9.1z"/>
	<rect x="9.1" y="9.1" class="st0" width="36.5" height="36.5"/>
	<path class="st1" d="M75.3,0H24.9C11.2,0,0,11.2,0,24.9v4.8c0,13.7,11.2,24.9,24.9,24.9h50.3c13.7,0,24.9-11.2,24.9-24.9v-4.8
		C100.2,11.2,89,0,75.3,0"/>
	<path class="st2" d="M33.8,20.9l6.5-6.5c-7.1-7.1-18.7-7.1-25.8,0c-7.1,7.1-7.1,18.7,0,25.8c7.1,7.1,18.7,7.1,25.8,0l-6.6-6.6
		c-3.2,3.2-8.6,4.3-12.8,0.1c-3.6-3.6-3.6-9.3,0-12.9C24.4,17.3,30.2,17.3,33.8,20.9"/>
	<g>
		<path class="st3" d="M66.5,36.7v9.1h-6.9v-9.1H47.4v-4.5L57.7,9.3h8.5v21.6h3.6v5.8H66.5z M59.5,15.6h-0.4l-6.5,15.3h6.9V15.6z"/>
	</g>
	<rect x="37.6" y="24.3" class="st2" width="9.1" height="6.1"/>
	<g>
		<path class="st3" d="M90.7,32.7c0,1.6-0.1,3.2-0.4,4.8c-0.2,1.6-0.7,3-1.3,4.3c-0.6,1.3-1.4,2.4-2.5,3.2c-1.1,0.8-2.4,1.2-4,1.2
			c-1.1,0-2.1-0.3-3-0.9c-0.9-0.6-1.6-1.5-2.1-2.6l-0.4,3h-6.1V9.2h6.7v14.2c0.6-1.2,1.3-2.1,2.2-2.7c0.9-0.6,2-0.9,3.1-0.9
			c1.6,0,2.9,0.4,3.9,1.2c1,0.8,1.7,1.8,2.3,3c0.5,1.2,0.9,2.6,1.1,4.2C90.6,29.7,90.7,31.2,90.7,32.7z M83.7,32.7
			c0-0.6,0-1.3-0.1-2.2c0-0.9-0.2-1.7-0.4-2.6c-0.2-0.8-0.5-1.5-0.9-2.1c-0.4-0.6-1-0.9-1.7-0.9c-0.6,0-1.1,0.2-1.5,0.6
			c-0.4,0.4-0.7,0.8-0.9,1.4c-0.2,0.5-0.4,1.1-0.5,1.8c-0.1,0.7-0.1,1.3-0.1,1.8v5.2c0,0.6,0,1.3,0.1,1.9c0.1,0.7,0.2,1.2,0.4,1.8
			c0.2,0.5,0.5,1,0.9,1.3c0.4,0.3,0.9,0.5,1.4,0.5c0.8,0,1.4-0.3,1.8-1c0.4-0.7,0.7-1.4,0.9-2.3c0.2-0.9,0.3-1.8,0.3-2.7
			C83.7,34.1,83.7,33.3,83.7,32.7z"/>
	</g>
</g>
</svg>
