<?xml version="1.0" encoding="UTF-8" standalone="no"?>
<!-- Generator: Adobe Illustrator 25.2.0, SVG Export Plug-In . SVG Version: 6.00 Build 0)  -->

<svg
   version="1.1"
   id="svg10"
   inkscape:version="1.1.2 (b8e25be833, 2022-02-05)"
   sodipodi:docname="Cercanías C6 (Azul oscuro).svg"
   x="0px"
   y="0px"
   viewBox="0 0 356.9479065 196.3253326"
   style="enable-background:new 0 0 356.9479065 196.3253326;"
   xml:space="preserve"
   xmlns:inkscape="http://www.inkscape.org/namespaces/inkscape"
   xmlns:sodipodi="http://sodipodi.sourceforge.net/DTD/sodipodi-0.dtd"
   xmlns="http://www.w3.org/2000/svg"
   xmlns:svg="http://www.w3.org/2000/svg"><defs
   id="defs25" /><sodipodi:namedview
   id="namedview23"
   pagecolor="#ffffff"
   bordercolor="#666666"
   borderopacity="1.0"
   inkscape:pageshadow="2"
   inkscape:pageopacity="0.0"
   inkscape:pagecheckerboard="0"
   showgrid="false"
   inkscape:zoom="3.1769342"
   inkscape:cx="178.31657"
   inkscape:cy="98.20789"
   inkscape:window-width="1920"
   inkscape:window-height="1017"
   inkscape:window-x="-8"
   inkscape:window-y="-8"
   inkscape:window-maximized="1"
   inkscape:current-layer="svg10" />
<style
   type="text/css"
   id="style2">
	.st0{fill-rule:evenodd;clip-rule:evenodd;fill:#00953B;}
	.st1{fill-rule:evenodd;clip-rule:evenodd;fill:#FFFFFF;}
	.st2{fill:#FFFFFF;}
</style>
<g
   id="g10"
   style="fill:#0032a0;fill-opacity:1">
	<g
   id="g8"
   style="fill:#0032a0;fill-opacity:1">
		<g
   id="g6"
   style="fill:#0032a0;fill-opacity:1">
			<path
   class="st0"
   d="M 265.02823,3.2786984 H 89.964325 c -47.608326,0 -86.5711136,38.9503856 -86.5711136,86.5711056 v 16.625716 c 0,47.62073 38.9627836,86.57111 86.5711136,86.57111 H 265.02823 c 47.60834,0 86.5711,-38.95038 86.5711,-86.57111 V 89.849808 c 0,-47.620724 -38.97518,-86.5711096 -86.5711,-86.5711096 z"
   id="path4"
   style="fill:#0032a0;fill-opacity:1" />
		</g>
	</g>
</g>
<g
   id="g20">
	<path
   class="st1"
   d="M124.8581009,75.8961945l22.4007187-22.4089851c-24.7056427-24.709774-64.9839859-24.709774-89.6689758,0   c-24.6932526,24.6932564-24.6932526,64.9839783,0,89.6772308c24.6849899,24.6932526,64.9633331,24.6932526,89.6689758,0   l-22.8798828-22.9046631c-11.2396011,11.2065582-29.7409515,15.1059265-44.3883743,0.4832916   c-12.3177109-12.3548889-12.3177109-32.4919891,0-44.8468781C92.3661041,63.5536957,112.4949493,63.5536957,124.8581009,75.8961945   z"
   id="path12" />
	<rect
   x="153.2558289"
   y="87.747139"
   class="st1"
   width="52.8191071"
   height="21.157383"
   id="rect14" />
	<g
   id="g18">
		<path
   class="st2"
   d="M260.0489197,163.7744141c-32.2304535,0-44.3886566-21.2294922-44.3886566-46.7050781    c0-34.9311523,22.5800781-70.4418945,52.8798676-89.1621094l25.0898438,13.3164062    c-15.6328125,9.6499023-41.6865082,36.0898438-45.3535004,54.230957    c6.7548828-9.2636719,15.6318207-12.5444336,24.1240082-12.5444336c22.5800781,0,32.4228516,16.2109375,32.4228516,39.1777344    C304.8233337,142.5449219,290.9278259,163.7744141,260.0489197,163.7744141z M260.0489197,101.2441406    c-8.2988129,0-14.2812347,8.8779297-14.2812347,21.421875c0,9.8427734,3.0878906,22.7734375,14.2812347,22.7734375    c11.1933594,0,14.28125-10.2285156,14.28125-22.7734375C274.3301697,111.0869141,271.0489197,101.2441406,260.0489197,101.2441406    z"
   id="path16" />
	</g>
</g>
</svg>
