<?xml version="1.0" encoding="utf-8"?>
<!-- Generator: Adobe Illustrator 28.3.0, SVG Export Plug-In . SVG Version: 6.00 Build 0)  -->
<svg version="1.1" id="Capa_1" xmlns="http://www.w3.org/2000/svg" xmlns:xlink="http://www.w3.org/1999/xlink" x="0px" y="0px"
	 viewBox="0 0 100.1 54.6" style="enable-background:new 0 0 100.1 54.6;" xml:space="preserve">
<style type="text/css">
	.st0{fill-rule:evenodd;clip-rule:evenodd;fill:#74777B;}
	.st1{fill-rule:evenodd;clip-rule:evenodd;fill:#FFFFFF;}
	.st2{fill:#FFFFFF;}
</style>
<path class="st0" d="M75.1,0H24.9C11.2,0,0,11.2,0,24.9v4.8c0,13.7,11.2,24.9,24.9,24.9h50.3c13.7,0,24.9-11.2,24.9-24.9v-4.8
	C100,11.2,88.8,0,75.1,0"/>
<path class="st1" d="M33.9,20.9l6.5-6.5c-7.1-7.1-18.8-7.1-25.9,0s-7.1,18.8,0,25.9s18.8,7.1,25.9,0l-6.6-6.6
	c-3.2,3.2-8.6,4.4-12.8,0.1c-3.6-3.6-3.6-9.4,0-13S30.3,17.3,33.9,20.9"/>
<path class="st2" d="M69.6,35.6c0,1.5-0.2,3-0.8,4.3s-1.2,2.5-2.2,3.5c-0.9,1-2.1,1.7-3.4,2.3s-2.8,0.8-4.3,0.8s-3-0.2-4.3-0.7
	s-2.4-1.2-3.3-2.1s-1.7-2.1-2.2-3.4c-0.5-1.4-0.8-2.9-0.8-4.6c0-1.4,0.2-2.6,0.6-3.7c0.4-1.1,0.9-2,1.5-2.8s1.2-1.4,1.9-1.9
	s1.3-0.8,1.9-1c-0.5-0.2-1-0.5-1.5-1c-0.6-0.4-1.1-0.9-1.7-1.6s-1-1.4-1.3-2.3s-0.5-2-0.5-3.2c0-1.5,0.3-2.8,0.8-4s1.2-2.2,2.1-3
	c0.9-0.8,1.9-1.4,3.1-1.8c1.2-0.4,2.4-0.6,3.7-0.6s2.6,0.2,3.8,0.6s2.2,1,3.1,1.8s1.6,1.8,2.1,3s0.8,2.5,0.8,4.1
	c0,1.3-0.2,2.4-0.6,3.4s-0.8,1.7-1.3,2.3c-0.5,0.6-1.1,1.1-1.7,1.5s-1.1,0.6-1.5,0.8c0.7,0.3,1.4,0.8,2.1,1.3s1.3,1.1,1.9,1.9
	c0.6,0.7,1,1.6,1.4,2.7C69.4,32.9,69.6,34.2,69.6,35.6L69.6,35.6z M62.6,34.9c0-0.8-0.1-1.6-0.2-2.3c-0.1-0.7-0.3-1.4-0.6-1.9
	s-0.7-1-1.1-1.3c-0.5-0.3-1-0.5-1.6-0.5c-1.3,0-2.2,0.6-2.8,1.8s-0.8,2.6-0.8,4.3c0,0.8,0.1,1.5,0.2,2.3c0.1,0.7,0.3,1.4,0.6,2
	s0.6,1.1,1.1,1.4c0.5,0.3,1,0.5,1.7,0.5c0.8,0,1.4-0.2,1.8-0.5c0.5-0.3,0.8-0.8,1.1-1.4s0.4-1.3,0.5-2
	C62.5,36.5,62.6,35.7,62.6,34.9L62.6,34.9z M62,18.9c0-0.6,0-1.2-0.2-1.8s-0.3-1.1-0.5-1.6c-0.2-0.4-0.6-0.8-1-1.1
	C60,14.1,59.5,14,59,14c-1.1,0-1.9,0.5-2.3,1.5c-0.5,1-0.7,2.1-0.7,3.4c0,0.6,0,1.2,0.1,1.8c0.1,0.6,0.3,1.2,0.5,1.7s0.5,1,0.9,1.3
	s0.9,0.5,1.5,0.5s1.1-0.1,1.4-0.5c0.4-0.3,0.7-0.7,0.9-1.2s0.4-1.1,0.5-1.7C62,20.2,62,19.5,62,18.9L62,18.9z"/>
<rect x="37.7" y="24.3" class="st2" width="9.2" height="6.1"/>
<path class="st2" d="M83.6,45.6l-0.4-3.1c-0.7,1-1.4,1.9-2.2,2.6c-0.8,0.7-1.9,1-3.3,1c-2.2,0-3.9-0.7-5.1-2.1s-1.8-3.3-1.8-5.8
	c0-2.6,0.8-4.7,2.3-6.3c1.5-1.6,3.7-2.4,6.6-2.4c0.9,0,1.6,0,2,0.1s0.9,0.2,1.3,0.2v-3.1c0-1-0.3-1.8-0.9-2.4s-1.5-0.8-2.6-0.8
	c-1.9,0-3.8,0.5-5.6,1.4l-1-5.3c1.2-0.6,2.6-1,4.1-1.2s3-0.3,4.3-0.3c2.9,0,5.1,0.7,6.5,2s2.1,3.2,2.1,5.6v14.7
	c0,0.8,0.1,1.7,0.1,2.5c0.1,0.8,0.2,1.7,0.3,2.5L83.6,45.6L83.6,45.6z M82.9,34c-0.2-0.1-0.5-0.2-0.9-0.3s-0.7-0.1-1.2-0.1
	c-0.6,0-1,0.1-1.4,0.3s-0.7,0.5-0.9,0.9c-0.2,0.4-0.4,0.8-0.5,1.3s-0.1,1-0.1,1.5c0,0.9,0.2,1.7,0.5,2.3c0.4,0.6,0.9,0.9,1.7,0.9
	c0.9,0,1.6-0.3,2.1-1c0.5-0.6,0.7-1.4,0.7-2.2L82.9,34L82.9,34z"/>
</svg>
