<?xml version="1.0" encoding="UTF-8" standalone="no"?>
<!-- Generator: Adobe Illustrator 25.2.0, SVG Export Plug-In . SVG Version: 6.00 Build 0)  -->

<svg
   version="1.1"
   id="svg10"
   inkscape:version="1.1.2 (b8e25be833, 2022-02-05)"
   sodipodi:docname="Cercanías_C8_(AmarilloAM).svg"
   x="0px"
   y="0px"
   viewBox="0 0 356.9479065 196.3253326"
   style="enable-background:new 0 0 356.9479065 196.3253326;"
   xml:space="preserve"
   xmlns:inkscape="http://www.inkscape.org/namespaces/inkscape"
   xmlns:sodipodi="http://sodipodi.sourceforge.net/DTD/sodipodi-0.dtd"
   xmlns="http://www.w3.org/2000/svg"
   xmlns:svg="http://www.w3.org/2000/svg"><defs
   id="defs23" /><sodipodi:namedview
   id="namedview21"
   pagecolor="#ffffff"
   bordercolor="#666666"
   borderopacity="1.0"
   inkscape:pageshadow="2"
   inkscape:pageopacity="0.0"
   inkscape:pagecheckerboard="0"
   showgrid="false"
   inkscape:zoom="3.1769342"
   inkscape:cx="178.31657"
   inkscape:cy="73.026379"
   inkscape:window-width="1920"
   inkscape:window-height="1017"
   inkscape:window-x="-8"
   inkscape:window-y="-8"
   inkscape:window-maximized="1"
   inkscape:current-layer="svg10" />
<style
   type="text/css"
   id="style2">
	.st0{fill-rule:evenodd;clip-rule:evenodd;fill:#76777A;}
	.st1{fill-rule:evenodd;clip-rule:evenodd;fill:#FFFFFF;}
</style>
<g
   id="g10"
   style="fill:#ffcc00;fill-opacity:1">
	<g
   id="g8"
   style="fill:#ffcc00;fill-opacity:1">
		<g
   id="g6"
   style="fill:#ffcc00;fill-opacity:1">
			<path
   class="st0"
   d="M265.0282288,3.2786984H89.964325c-47.608326,0-86.5711136,38.950386-86.5711136,86.571106v16.6257172     c0,47.6207275,38.9627838,86.571106,86.5711136,86.571106h175.0639038c47.6083374,0,86.571106-38.9503784,86.571106-86.571106     V89.8498077C351.5993347,42.229084,312.6241455,3.2786984,265.0282288,3.2786984z"
   id="path4"
   style="fill:#ffcc00;fill-opacity:1" />
		</g>
	</g>
</g>
<g
   id="g18"
   style="fill:#000000">
	<path
   class="st1"
   d="M120.8581009,75.8961945l22.4007187-22.4089851c-24.7056427-24.709774-64.9839859-24.709774-89.6689758,0   c-24.6932507,24.6932564-24.6932507,64.9839783,0,89.6772308c24.6849899,24.6932526,64.9633331,24.6932526,89.6689758,0   l-22.8798828-22.9046631c-11.2396011,11.2065582-29.7409515,15.1059265-44.3883743,0.4832916   c-12.3177071-12.3548889-12.3177071-32.4919891,0-44.8468781C88.3661041,63.5536957,108.4949493,63.5536957,120.8581009,75.8961945   z"
   id="path12"
   style="fill:#000000" />
	<rect
   x="151.2558289"
   y="87.747139"
   class="st1"
   width="52.8191071"
   height="21.157383"
   id="rect14"
   style="fill:#000000" />
	<path
   class="st1"
   d="M273.4994202,123.8452225c0-2.8336563-0.2932739-5.5020828-0.8674622-8.009407   c-0.5617676-2.5073318-1.48703-4.7296371-2.6932068-6.6628036c-1.2185364-1.9331589-2.8212585-3.4408569-4.7420349-4.5313644   c-1.9207458-1.0987625-4.2380676-1.6522751-6.9436646-1.6522751c-5.5392609,0-9.4840698,2.0281677-11.8013916,6.0886383   c-2.2966614,4.0522003-3.4780273,8.9718552-3.4780273,14.7672119c0,2.7055969,0.2808838,5.3368454,0.7724304,7.9143906   c0.5369873,2.5775604,1.3589935,4.8948669,2.5403748,6.9560852c1.1359406,2.061203,2.6932068,3.7010956,4.6139832,4.9155121   c1.9207611,1.2309418,4.3909149,1.8381653,7.3526306,1.8381653c3.1971436,0,5.8201294-0.6072235,7.7987366-1.8381653   c2.0240173-1.2144165,3.5482483-2.8543091,4.6593933-4.9155121c1.078125-2.0612183,1.8381653-4.3785248,2.2140503-6.9560852   C273.3217773,129.1820679,273.4994202,126.5508194,273.4994202,123.8452225L273.4994202,123.8452225z M271.2027588,68.2378998   c0-2.18927-0.2561035-4.3083115-0.6898499-6.3695221c-0.446106-2.0612144-1.2061462-3.8621941-2.2140198-5.4070702   c-1.0409546-1.5366173-2.3875427-2.8006096-4.0852661-3.7589264c-1.6522827-0.9624519-3.64328-1.4540024-5.9605713-1.4540024   c-4.6594238,0-7.9515839,1.7101021-9.9632263,5.1179199c-1.9909973,3.4202118-2.986496,7.3774109-2.986496,11.8716011   c0,2.0612106,0.2106628,4.1554718,0.574173,6.2786407c0.4089355,2.1273041,1.1111603,4.0852509,2.1190338,5.8862305   c1.0533295,1.8051147,2.3792877,3.2797699,3.9571991,4.4404907c1.6275024,1.1565933,3.7011108,1.7431488,6.2993164,1.7431488   c2.4247131,0,4.4735107-0.5163345,6.0762329-1.5448761c1.5944519-1.0326691,2.9286499-2.412323,3.9696045-4.1554718   c1.0078735-1.7348862,1.7679138-3.7010956,2.2140198-5.890358   C270.9466553,72.8188324,271.2027588,70.5552139,271.2027588,68.2378998L271.2027588,68.2378998z M303.2403564,126.1625366   c0,5.2831421-1.0657043,10.2358398-3.1847534,14.8704681c-2.1314392,4.6263733-5.1881409,8.6166229-9.1453552,11.9666138   c-4.0274048,3.3499908-8.7818298,5.9853668-14.3086853,7.9143982c-5.5268555,1.9331512-11.6733398,2.8956146-18.3485107,2.8956146   c-6.5802002,0-12.5986023-0.8344116-18.0676422-2.5073395c-5.4896851-1.6729279-10.1986694-4.1224213-14.2136993-7.3402252   c-3.9695892-3.209549-7.0965118-7.166748-9.3436127-11.8757324c-2.2718811-4.6924591-3.4078217-10.0003967-3.4078217-15.9237976   c0-4.7668152,0.8550568-9.0379486,2.5279846-12.834053c1.6522827-3.8043594,3.7258759-7.0469513,6.1836395-9.7525482   c2.4577637-2.7056046,5.1055298-4.8948669,8.0093994-6.5677948c2.9038849-1.6729279,5.6425323-2.8336563,8.2076874-3.4780426   c-1.9207764-0.772438-4.1100311-1.8629379-6.5801849-3.2797623c-2.412323-1.4168243-4.7668152-3.2425919-7.013916-5.5020752   c-2.2594757-2.2471008-4.1224213-4.9526978-5.6218567-8.1044159c-1.4746552-3.1599731-2.2347107-6.8610687-2.2347107-11.1115494   c0-5.1385727,1.1359406-9.7401619,3.3954315-13.792366c2.2718811-4.0604668,5.2914124-7.4682846,9.0627289-10.2317123   c3.8291473-2.7758217,8.2200623-4.8948669,13.242981-6.381916c5.0229187-1.4746552,10.3143311-2.2140465,15.8535919-2.2140465   c5.6672974,0,10.9958801,0.677433,16.0064087,2.0240364c5.0353088,1.3466034,9.4386292,3.4078178,13.242981,6.1836395   c3.8167419,2.7634315,6.8032532,6.1712494,8.9925232,10.2358437c2.2016296,4.0480766,3.2673645,8.7818451,3.2673645,14.1765213   c0,4.5107117-0.7848206,8.3729095-2.412323,11.594841c-1.5820618,3.217804-3.490448,5.8862305-5.6796875,8.009407   c-2.18927,2.1190414-4.5437622,3.8250122-7.0717468,5.1137924c-2.4949341,1.2887726-4.601593,2.1892624-6.2538757,2.7055969   c2.9410706,1.1607285,5.902771,2.6105957,8.8768616,4.3454819c2.9740906,1.7307587,5.6425171,3.8869781,8.0093994,6.4603958   c2.3999329,2.5775528,4.3083191,5.704483,5.7953491,9.3684006   C302.5133667,116.794136,303.2403564,121.1396179,303.2403564,126.1625366z"
   id="path16"
   style="fill:#000000" />
</g>
</svg>
