<?xml version="1.0" encoding="utf-8"?>
<!-- Generator: Adobe Illustrator 28.3.0, SVG Export Plug-In . SVG Version: 6.00 Build 0)  -->
<svg version="1.1" id="Capa_1" xmlns="http://www.w3.org/2000/svg" xmlns:xlink="http://www.w3.org/1999/xlink" x="0px" y="0px"
	 viewBox="0 0 100.1 54.6" style="enable-background:new 0 0 100.1 54.6;" xml:space="preserve">
<style type="text/css">
	.st0{fill:none;stroke:#1A1A18;stroke-width:0.5669;stroke-miterlimit:22.9256;}
	.st1{fill-rule:evenodd;clip-rule:evenodd;fill:#74777B;}
	.st2{fill-rule:evenodd;clip-rule:evenodd;fill:#FFFFFF;}
	.st3{fill:#FFFFFF;}
</style>
<g>
	<path class="st0" d="M27.3,9.1c10.1,0,18.2,8.2,18.2,18.2s-8.2,18.2-18.2,18.2c-10.1,0-18.2-8.2-18.2-18.2S17.2,9.1,27.3,9.1z"/>
	<rect x="9.1" y="9.1" class="st0" width="36.5" height="36.5"/>
	<path class="st1" d="M75.2,0H24.9C11.2,0,0,11.2,0,24.9v4.8c0,13.7,11.2,24.9,24.9,24.9h50.3c13.7,0,24.9-11.2,24.9-24.9v-4.8
		C100.1,11.2,88.9,0,75.2,0"/>
	<path class="st2" d="M33.8,20.9l6.5-6.5c-7.1-7.1-18.7-7.1-25.8,0c-7.1,7.1-7.1,18.7,0,25.8c7.1,7.1,18.7,7.1,25.8,0l-6.6-6.6
		c-3.2,3.2-8.6,4.3-12.8,0.1c-3.6-3.6-3.6-9.3,0-12.9C24.4,17.3,30.2,17.3,33.8,20.9"/>
	<g>
		<path class="st3" d="M69.3,35.6c0,1.5-0.2,2.9-0.7,4.3c-0.5,1.3-1.2,2.5-2.2,3.4c-0.9,1-2.1,1.7-3.4,2.3c-1.3,0.6-2.7,0.8-4.3,0.8
			c-1.5,0-3-0.2-4.2-0.7c-1.3-0.5-2.4-1.2-3.3-2.1c-0.9-0.9-1.7-2.1-2.2-3.4c-0.5-1.4-0.8-2.9-0.8-4.6c0-1.4,0.2-2.6,0.6-3.7
			c0.4-1.1,0.9-2,1.5-2.8c0.6-0.8,1.2-1.4,1.9-1.9c0.7-0.5,1.3-0.8,1.9-1c-0.5-0.2-1-0.5-1.5-0.9c-0.6-0.4-1.1-0.9-1.7-1.6
			c-0.5-0.6-1-1.4-1.3-2.3c-0.3-0.9-0.5-2-0.5-3.2c0-1.5,0.3-2.8,0.8-4c0.5-1.2,1.2-2.1,2.1-2.9c0.9-0.8,1.9-1.4,3.1-1.8
			c1.2-0.4,2.4-0.6,3.7-0.6c1.3,0,2.6,0.2,3.8,0.6c1.2,0.4,2.2,1,3.1,1.8c0.9,0.8,1.6,1.8,2.1,2.9c0.5,1.2,0.8,2.5,0.8,4.1
			c0,1.3-0.2,2.4-0.6,3.3c-0.4,0.9-0.8,1.7-1.3,2.3c-0.5,0.6-1.1,1.1-1.7,1.5c-0.6,0.4-1.1,0.6-1.5,0.8c0.7,0.3,1.4,0.7,2.1,1.3
			c0.7,0.5,1.3,1.1,1.9,1.9c0.6,0.7,1,1.6,1.4,2.7C69.1,32.9,69.3,34.1,69.3,35.6z M62.3,34.9c0-0.8-0.1-1.6-0.2-2.3
			c-0.1-0.7-0.3-1.4-0.6-1.9c-0.3-0.6-0.7-1-1.1-1.3c-0.5-0.3-1-0.5-1.6-0.5c-1.3,0-2.2,0.6-2.8,1.8c-0.5,1.2-0.8,2.6-0.8,4.3
			c0,0.8,0.1,1.5,0.2,2.3c0.1,0.7,0.3,1.4,0.6,2c0.3,0.6,0.6,1.1,1.1,1.4c0.5,0.4,1,0.5,1.7,0.5c0.8,0,1.4-0.2,1.8-0.5
			c0.5-0.4,0.8-0.8,1.1-1.4c0.3-0.6,0.4-1.3,0.5-2C62.3,36.4,62.3,35.7,62.3,34.9z M61.8,18.9c0-0.6-0.1-1.2-0.2-1.8
			c-0.1-0.6-0.3-1.1-0.5-1.6c-0.2-0.4-0.6-0.8-1-1.1c-0.4-0.3-0.9-0.4-1.4-0.4c-1.1,0-1.9,0.5-2.3,1.5c-0.5,1-0.7,2.1-0.7,3.4
			c0,0.6,0,1.2,0.1,1.8c0.1,0.6,0.3,1.2,0.5,1.7c0.2,0.5,0.6,0.9,0.9,1.3c0.4,0.3,0.9,0.5,1.5,0.5c0.6,0,1.1-0.1,1.4-0.4
			c0.4-0.3,0.7-0.7,0.9-1.2c0.2-0.5,0.4-1.1,0.5-1.7C61.7,20.2,61.8,19.5,61.8,18.9z"/>
	</g>
	<rect x="37.5" y="24.3" class="st2" width="9.1" height="6.1"/>
	<g>
		<path class="st3" d="M90.6,32.7c0,1.6-0.1,3.2-0.4,4.8c-0.2,1.6-0.7,3-1.3,4.3c-0.6,1.3-1.4,2.4-2.5,3.2c-1.1,0.8-2.4,1.2-4,1.2
			c-1.1,0-2.1-0.3-3-0.9c-0.9-0.6-1.6-1.5-2.1-2.6l-0.4,3h-6.1V9.2h6.7v14.2c0.6-1.2,1.3-2.1,2.2-2.7c0.9-0.6,2-0.9,3.1-0.9
			c1.6,0,2.9,0.4,3.9,1.2c1,0.8,1.7,1.8,2.3,3c0.5,1.2,0.9,2.6,1.1,4.2C90.5,29.7,90.6,31.2,90.6,32.7z M83.7,32.7
			c0-0.6,0-1.3-0.1-2.2c0-0.9-0.2-1.7-0.4-2.6c-0.2-0.8-0.5-1.5-0.9-2.1c-0.4-0.6-1-0.9-1.7-0.9c-0.6,0-1.1,0.2-1.5,0.6
			c-0.4,0.4-0.7,0.8-0.9,1.4c-0.2,0.5-0.4,1.1-0.5,1.8c-0.1,0.7-0.1,1.3-0.1,1.8v5.2c0,0.6,0,1.3,0.1,1.9c0.1,0.7,0.2,1.2,0.4,1.8
			s0.5,1,0.9,1.3c0.4,0.3,0.9,0.5,1.4,0.5c0.8,0,1.4-0.3,1.8-1c0.4-0.7,0.7-1.4,0.9-2.3c0.2-0.9,0.3-1.8,0.3-2.7
			C83.6,34.1,83.7,33.3,83.7,32.7z"/>
	</g>
</g>
</svg>
