<?xml version="1.0" encoding="utf-8"?>
<!-- Generator: Adobe Illustrator 28.3.0, SVG Export Plug-In . SVG Version: 6.00 Build 0)  -->
<svg version="1.1" id="Capa_1" xmlns="http://www.w3.org/2000/svg" xmlns:xlink="http://www.w3.org/1999/xlink" x="0px" y="0px"
	 viewBox="0 0 100.1 54.6" style="enable-background:new 0 0 100.1 54.6;" xml:space="preserve">
<style type="text/css">
	.st0{fill:none;stroke:#1A1A18;stroke-width:0.69;stroke-miterlimit:22.93;}
	.st1{fill-rule:evenodd;clip-rule:evenodd;fill:#74777B;}
	.st2{fill-rule:evenodd;clip-rule:evenodd;fill:#FFFFFF;}
	.st3{fill:#FFFFFF;}
</style>
<circle class="st0" cx="27.3" cy="27.3" r="18.2"/>
<rect x="9.1" y="9.1" class="st0" width="36.4" height="36.4"/>
<rect x="36.4" y="21.3" class="st0" width="9.1" height="3"/>
<rect x="36.4" y="18.2" class="st0" width="9.1" height="3"/>
<rect x="36.4" y="30.4" class="st0" width="9.1" height="3"/>
<rect x="36.4" y="33.4" class="st0" width="9.1" height="3"/>
<rect x="45.5" y="21.3" class="st0" width="9.1" height="3"/>
<rect x="45.5" y="18.2" class="st0" width="9.1" height="3"/>
<rect x="45.5" y="30.4" class="st0" width="9.1" height="3"/>
<rect x="45.5" y="33.4" class="st0" width="9.1" height="3"/>
<rect x="45.5" y="27.3" class="st0" width="9.1" height="3"/>
<rect x="54.6" y="21.3" class="st0" width="9.1" height="3"/>
<rect x="54.6" y="24.3" class="st0" width="9.1" height="3"/>
<rect x="54.6" y="18.2" class="st0" width="9.1" height="3"/>
<rect x="54.6" y="30.4" class="st0" width="9.1" height="3"/>
<rect x="54.6" y="33.4" class="st0" width="9.1" height="3"/>
<rect x="54.6" y="27.3" class="st0" width="9.1" height="3"/>
<rect x="54.6" y="27.3" class="st0" width="9.1" height="3"/>
<rect x="45.5" y="24.3" class="st0" width="9.1" height="3"/>
<rect x="36.4" y="27.3" class="st0" width="9.1" height="3"/>
<rect x="36.4" y="24.3" class="st0" width="9.1" height="3"/>
<rect x="54.6" y="21.3" class="st0" width="9.1" height="3"/>
<rect x="54.6" y="18.2" class="st0" width="9.1" height="3"/>
<rect x="54.6" y="30.4" class="st0" width="9.1" height="3"/>
<rect x="54.6" y="33.4" class="st0" width="9.1" height="3"/>
<rect x="54.6" y="27.3" class="st0" width="9.1" height="3"/>
<rect x="54.6" y="24.3" class="st0" width="9.1" height="3"/>
<rect x="45.5" y="18.2" class="st0" width="3" height="9.1"/>
<rect x="45.5" y="27.3" class="st0" width="3" height="9.1"/>
<rect x="48.5" y="18.2" class="st0" width="3" height="9.1"/>
<rect x="48.5" y="27.3" class="st0" width="3" height="9.1"/>
<rect x="42.5" y="18.2" class="st0" width="3" height="9.1"/>
<rect x="42.5" y="27.3" class="st0" width="3" height="9.1"/>
<rect x="39.4" y="18.2" class="st0" width="3" height="9.1"/>
<rect x="39.4" y="27.3" class="st0" width="3" height="9.1"/>
<rect x="54.6" y="18.2" class="st0" width="3" height="9.1"/>
<rect x="54.6" y="27.3" class="st0" width="3" height="9.1"/>
<rect x="57.6" y="18.2" class="st0" width="3" height="9.1"/>
<rect x="57.6" y="27.3" class="st0" width="3" height="9.1"/>
<path class="st1" d="M75.1,0H24.9C11.2,0,0,11.2,0,24.9v4.8c0,13.7,11.2,24.9,24.9,24.9h50.3c13.7,0,24.9-11.2,24.9-24.9v-4.8
	C100,11.2,88.8,0,75.1,0"/>
<path class="st2" d="M33.7,20.9l6.4-6.4c-7.1-7.1-18.7-7.1-25.8,0s-7.1,18.7,0,25.8s18.7,7.1,25.8,0l-6.6-6.6
	c-3.2,3.2-8.5,4.3-12.7,0.1c-3.5-3.5-3.5-9.3,0-12.9C24.4,17.4,30.2,17.4,33.7,20.9"/>
<rect x="42.5" y="24.3" class="st3" width="15.2" height="6.1"/>
<path class="st3" d="M85.8,35.3c0,1.5-0.3,2.9-0.9,4.3c-0.6,1.3-1.5,2.5-2.6,3.4c-1.1,1-2.5,1.7-4.1,2.3s-3.3,0.8-5.3,0.8
	s-3.6-0.2-5.2-0.7s-2.9-1.2-4.1-2.1c-1.1-0.9-2-2.1-2.7-3.4c-0.6-1.4-1-2.9-1-4.6c0-1.4,0.2-2.6,0.7-3.7c0.5-1.1,1.1-2,1.8-2.8
	s1.5-1.4,2.3-1.9c0.8-0.5,1.6-0.8,2.4-1c-0.6-0.2-1.2-0.5-1.9-0.9c-0.7-0.4-1.4-0.9-2-1.6c-0.6-0.6-1.2-1.4-1.6-2.3
	c-0.4-0.9-0.6-2-0.6-3.2c0-1.5,0.3-2.8,1-4c0.6-1.2,1.5-2.1,2.6-2.9s2.4-1.4,3.8-1.8s3-0.6,4.5-0.6c1.6,0,3.2,0.2,4.6,0.6
	s2.7,1,3.8,1.8c1.1,0.8,2,1.8,2.6,2.9c0.6,1.2,0.9,2.5,0.9,4.1c0,1.3-0.2,2.4-0.7,3.3s-1,1.7-1.6,2.3s-1.3,1.1-2,1.5
	s-1.3,0.6-1.8,0.8c0.9,0.3,1.7,0.7,2.6,1.2s1.6,1.1,2.3,1.9c0.7,0.7,1.2,1.6,1.7,2.7C85.6,32.6,85.8,33.9,85.8,35.3z M77.3,34.7
	c0-0.8-0.1-1.6-0.2-2.3c-0.2-0.7-0.4-1.4-0.8-1.9c-0.4-0.6-0.8-1-1.4-1.3s-1.2-0.5-2-0.5c-1.6,0-2.7,0.6-3.4,1.7
	c-0.7,1.2-1,2.6-1,4.2c0,0.8,0.1,1.5,0.2,2.3c0.1,0.7,0.4,1.4,0.7,2c0.3,0.6,0.8,1.1,1.3,1.4c0.6,0.4,1.3,0.5,2.1,0.5
	c0.9,0,1.7-0.2,2.2-0.5c0.6-0.4,1-0.8,1.3-1.4c0.3-0.6,0.5-1.3,0.6-2C77.2,36.2,77.3,35.4,77.3,34.7z M76.6,18.7
	c0-0.6-0.1-1.2-0.2-1.8c-0.1-0.6-0.3-1.1-0.6-1.6c-0.3-0.4-0.7-0.8-1.2-1.1s-1.1-0.4-1.7-0.4c-1.3,0-2.3,0.5-2.9,1.5
	s-0.9,2.1-0.9,3.4c0,0.6,0.1,1.2,0.2,1.8c0.1,0.6,0.3,1.2,0.6,1.7c0.3,0.5,0.7,0.9,1.1,1.3c0.5,0.3,1.1,0.5,1.8,0.5s1.3-0.1,1.7-0.4
	c0.5-0.3,0.8-0.7,1.1-1.2c0.3-0.5,0.5-1.1,0.6-1.7C76.6,20,76.6,19.4,76.6,18.7z"/>
</svg>
