<?xml version="1.0" encoding="utf-8"?>
<!-- Generator: Adobe Illustrator 23.0.1, SVG Export Plug-In . SVG Version: 6.00 Build 0)  -->
<svg version="1.1" id="Layer_1" xmlns="http://www.w3.org/2000/svg" xmlns:xlink="http://www.w3.org/1999/xlink" x="0px" y="0px"
	 width="64px" height="64px" viewBox="0 0 64 64" enable-background="new 0 0 64 64" xml:space="preserve">
<g>
	<rect fill-rule="evenodd" clip-rule="evenodd" fill="#3A99D4" width="64" height="64"/>
	<path fill-rule="evenodd" clip-rule="evenodd" fill="#FFFFFF" d="M6.235,47.591h7.092V34.996h7.092
		c3.563,0,4.874,1.484,5.377,4.874c0.352,2.57,0.26,5.682,1.126,7.721h7.098c-1.276-1.814-1.236-5.608-1.369-7.635
		c-0.225-3.24-1.224-6.63-4.701-7.537v-0.092c3.569-1.432,5.111-4.285,5.111-8.079c0-4.874-3.667-8.894-9.437-8.894H6.235V47.591z
		 M13.327,20.858h7.762c3.165,0,4.874,1.369,4.874,4.464c0,3.263-1.709,4.614-4.874,4.614h-7.762V20.858z"/>
	<path fill-rule="evenodd" clip-rule="evenodd" fill="#FFFFFF" d="M53.422,15.984h-5.111c-0.67,4.834-4.782,6.37-9.246,6.278v4.822
		H47v20.507h6.422V15.984z"/>
</g>
</svg>
