<?xml version="1.0" encoding="UTF-8" standalone="no"?>
<!DOCTYPE svg PUBLIC "-//W3C//DTD SVG 1.1//EN" "http://www.w3.org/Graphics/SVG/1.1/DTD/svg11.dtd">
<svg width="100%" height="100%" viewBox="0 0 357 197" version="1.1" xmlns="http://www.w3.org/2000/svg" xmlns:xlink="http://www.w3.org/1999/xlink" xml:space="preserve" xmlns:serif="http://www.serif.com/" style="fill-rule:evenodd;clip-rule:evenodd;stroke-linejoin:round;stroke-miterlimit:2;">
    <g transform="matrix(4.95047,0,0,4.95047,-4044.28,-3000.26)">
        <g>
            <g transform="matrix(0.894737,0,0,1,86.2105,0)">
                <path d="M895,613.788C895,611.913 894.167,610.115 892.686,608.789C891.204,607.463 889.194,606.718 887.098,606.718L826.902,606.718C824.806,606.718 822.796,607.463 821.314,608.789C819.833,610.115 819,611.913 819,613.788L819,637.981C819,639.856 819.833,641.655 821.314,642.981C822.796,644.306 824.806,645.051 826.902,645.051L887.098,645.051C889.194,645.051 891.204,644.306 892.686,642.981C894.167,641.655 895,639.856 895,637.981L895,613.788Z" style="fill:rgb(221,80,0);"/>
            </g>
            <g transform="matrix(1,0,0,1,-5.97917,1.75329)">
                <path d="M844.833,638C844.445,637.333 844.111,636.653 843.833,635.958C843.556,635.264 843.264,634.569 842.958,633.875L840.875,629.125C840.597,628.514 840.306,628 840,627.583C839.722,627.139 839.222,626.917 838.5,626.917L837.917,626.917L837.917,638L831.167,638L831.167,610.208L841.333,610.208C842.611,610.208 843.806,610.361 844.917,610.666C846.028,610.972 846.986,611.444 847.792,612.083C848.625,612.722 849.278,613.541 849.75,614.541C850.222,615.541 850.459,616.722 850.459,618.083C850.459,619.333 850.264,620.389 849.875,621.25C849.486,622.083 849,622.778 848.417,623.333C847.833,623.861 847.208,624.278 846.542,624.583C845.875,624.861 845.278,625.097 844.75,625.292C845.445,625.43 846.083,625.805 846.667,626.417C847.25,627.028 847.695,627.694 848,628.417L850.375,633.875C850.681,634.597 851,635.292 851.334,635.958C851.667,636.625 852.028,637.306 852.417,638L844.833,638ZM843.5,618.333C843.5,617.333 843.195,616.514 842.583,615.875C842,615.236 841.125,614.916 839.958,614.916L837.917,614.916L837.917,622.25L839.5,622.25C840.778,622.25 841.764,621.917 842.458,621.25C843.153,620.583 843.5,619.611 843.5,618.333ZM853.958,628.292L853.958,623.458L864.875,623.458L864.875,628.292L853.958,628.292ZM870.083,638L870.083,633.375L876.042,633.375L876.042,615.916L869.625,619.5L869.25,614.458L876.208,610.666L882.625,610.666L882.625,633.375L888.084,633.375L888.084,638L870.083,638Z" style="fill:white;"/>
            </g>
        </g>
    </g>
</svg>
