<?xml version="1.0" encoding="utf-8"?>
<!-- Generator: Adobe Illustrator 23.0.1, SVG Export Plug-In . SVG Version: 6.00 Build 0)  -->
<svg version="1.1"
	 id="svg21844" inkscape:output_extension="org.inkscape.output.svg.inkscape" inkscape:version="0.46" sodipodi:docname="R2b (new).svg" sodipodi:version="0.32" xmlns:cc="http://creativecommons.org/ns#" xmlns:dc="http://purl.org/dc/elements/1.1/" xmlns:inkscape="http://www.inkscape.org/namespaces/inkscape" xmlns:rdf="http://www.w3.org/1999/02/22-rdf-syntax-ns#" xmlns:sodipodi="http://sodipodi.sourceforge.net/DTD/sodipodi-0.dtd" xmlns:svg="http://www.w3.org/2000/svg"
	 xmlns="http://www.w3.org/2000/svg" xmlns:xlink="http://www.w3.org/1999/xlink" x="0px" y="0px" width="64px" height="64px"
	 viewBox="0 0 64 64" enable-background="new 0 0 64 64" xml:space="preserve">
<g>
	<rect fill-rule="evenodd" clip-rule="evenodd" fill="#48A647" width="64" height="64"/>
	<path fill-rule="evenodd" clip-rule="evenodd" fill="#FFFFFF" d="M6.156,47.597h7.091V34.992h7.091
		c3.563,0,4.873,1.484,5.376,4.885c0.352,2.564,0.271,5.699,1.126,7.72h7.096c-1.265-1.825-1.236-5.607-1.368-7.639
		c-0.208-3.245-1.207-6.635-4.689-7.53v-0.104c3.557-1.42,5.099-4.296,5.099-8.078c0-4.856-3.655-8.904-9.435-8.904H6.156V47.597z
		 M13.247,20.846h7.76c3.17,0,4.873,1.369,4.873,4.481c0,3.257-1.703,4.608-4.873,4.608h-7.76V20.846z"/>
	<path fill-rule="evenodd" clip-rule="evenodd" fill="#FFFFFF" d="M43.451,28.131c0-3.349,1.207-7.287,5.018-7.287
		c2.743,0,4.729,1.917,4.729,4.897c-0.04,3.874-3.834,5.832-6.634,7.708c-5.462,3.707-9.931,6.831-9.966,14.146h23.206v-5.514
		H44.843c2.31-3.257,6.005-5.047,9.129-7.264c3.112-2.223,5.647-4.833,5.647-9.574c0-6.19-5.058-9.908-10.832-9.908
		c-7.593,0-11.704,5.572-11.485,12.795H43.451z"/>
</g>
</svg>
