<?xml version="1.0" encoding="utf-8"?>
<!-- Generator: Adobe Illustrator 23.0.1, SVG Export Plug-In . SVG Version: 6.00 Build 0)  -->
<svg version="1.1"
	 id="svg21844" inkscape:output_extension="org.inkscape.output.svg.inkscape" inkscape:version="0.46" sodipodi:docname="R3.svg" sodipodi:version="0.32" xmlns:cc="http://creativecommons.org/ns#" xmlns:dc="http://purl.org/dc/elements/1.1/" xmlns:inkscape="http://www.inkscape.org/namespaces/inkscape" xmlns:rdf="http://www.w3.org/1999/02/22-rdf-syntax-ns#" xmlns:sodipodi="http://sodipodi.sourceforge.net/DTD/sodipodi-0.dtd" xmlns:svg="http://www.w3.org/2000/svg"
	 xmlns="http://www.w3.org/2000/svg" xmlns:xlink="http://www.w3.org/1999/xlink" x="0px" y="0px" width="64px" height="64px"
	 viewBox="0 0 64 64" enable-background="new 0 0 64 64" xml:space="preserve">
<g>
	<rect fill-rule="evenodd" clip-rule="evenodd" fill="#EC0021" width="64" height="64"/>
	<path fill="#FFFFFF" d="M22.606,15.515c1.447,0,2.738,0.237,3.896,0.695c1.157,0.474,2.159,1.105,2.987,1.922
		c0.816,0.816,1.464,1.754,1.899,2.819c0.434,1.082,0.642,2.229,0.642,3.461c0,1.899-0.394,3.531-1.198,4.926
		c-0.775,1.383-2.089,2.437-3.895,3.16v0.081c0.868,0.249,1.609,0.619,2.171,1.105c0.567,0.498,1.042,1.088,1.4,1.765
		c0.353,0.683,0.631,1.418,0.788,2.235c0.156,0.816,0.278,1.632,0.341,2.437c0.029,0.515,0.064,1.117,0.093,1.806
		c0.029,0.695,0.093,1.406,0.145,2.13c0.081,0.724,0.196,1.412,0.37,2.055c0.168,0.642,0.406,1.198,0.735,1.644h-7.085
		c-0.394-1.025-0.619-2.252-0.724-3.658c-0.075-1.406-0.22-2.767-0.405-4.069c-0.225-1.684-0.752-2.911-1.528-3.699
		c-0.775-0.776-2.066-1.175-3.843-1.175h-7.085v12.601H5.212v-32.24H22.606z M20.077,30.101c1.62,0,2.842-0.353,3.646-1.076
		c0.817-0.729,1.227-1.899,1.227-3.531c0-1.569-0.411-2.697-1.227-3.409c-0.804-0.701-2.026-1.053-3.646-1.053h-7.768v9.07H20.077z"
		/>
	<path fill="#FFFFFF" d="M47.207,28.925c0.787-0.052,1.516-0.237,2.199-0.526c0.672-0.278,1.239-0.701,1.662-1.239
		c0.445-0.538,0.666-1.25,0.666-2.159c0-1.354-0.458-2.396-1.366-3.12c-0.897-0.724-1.933-1.076-3.108-1.076
		c-1.632,0-2.853,0.527-3.687,1.592c-0.828,1.065-1.222,2.42-1.186,4.052h-6.107c0.064-1.632,0.353-3.12,0.88-4.445
		c0.527-1.343,1.268-2.489,2.217-3.467c0.961-0.961,2.078-1.696,3.409-2.223c1.326-0.538,2.802-0.805,4.422-0.805
		c1.261,0,2.529,0.197,3.791,0.567c1.262,0.382,2.408,0.949,3.409,1.696c1.002,0.752,1.829,1.673,2.466,2.755
		c0.631,1.077,0.943,2.344,0.943,3.751c0,1.54-0.382,2.882-1.088,4.069c-0.752,1.158-1.858,1.962-3.334,2.385v0.093
		c1.754,0.394,3.108,1.233,4.109,2.524c0.984,1.308,1.499,2.848,1.499,4.648c0,1.661-0.33,3.137-0.99,4.428
		c-0.642,1.302-1.511,2.379-2.593,3.247c-1.077,0.886-2.327,1.54-3.739,1.991c-1.418,0.457-2.894,0.683-4.422,0.683
		c-1.788,0-3.409-0.26-4.856-0.764c-1.476-0.527-2.703-1.262-3.716-2.24c-1.036-0.984-1.817-2.171-2.379-3.589
		c-0.555-1.424-0.822-3.045-0.793-4.874h6.083c0.041,0.845,0.186,1.644,0.406,2.408c0.254,0.764,0.596,1.435,1.053,1.991
		c0.451,0.55,1.019,0.996,1.69,1.326c0.683,0.33,1.487,0.503,2.408,0.503c1.447,0,2.657-0.451,3.658-1.331
		c1.001-0.897,1.499-2.107,1.499-3.635c0-1.21-0.232-2.119-0.695-2.761c-0.475-0.637-1.066-1.082-1.806-1.372
		c-0.695-0.29-1.487-0.446-2.344-0.498c-0.88-0.041-1.684-0.07-2.472-0.07v-4.515C45.69,28.977,46.414,28.977,47.207,28.925"/>
</g>
</svg>
