<?xml version="1.0" encoding="utf-8"?>
<!-- Generator: Adobe Illustrator 16.0.0, SVG Export Plug-In . SVG Version: 6.00 Build 0)  -->
<!DOCTYPE svg PUBLIC "-//W3C//DTD SVG 1.1//EN" "http://www.w3.org/Graphics/SVG/1.1/DTD/svg11.dtd">
<svg version="1.1" id="Layer_1" xmlns="http://www.w3.org/2000/svg" xmlns:xlink="http://www.w3.org/1999/xlink" x="0px" y="0px"
	 width="58px" height="58px" viewBox="0 0 58 58" enable-background="new 0 0 58 58" xml:space="preserve">
<rect id="rect21854" fill="#9A2587" width="58" height="58"/>
<path fill="#FFFFFF" d="M30.041,43.182c-0.144-0.632-0.259-1.292-0.345-1.98c-0.057-0.689-0.101-1.364-0.129-2.025
	c-0.028-0.66-0.057-1.233-0.086-1.723c-0.058-0.774-0.172-1.55-0.344-2.325c-0.143-0.774-0.388-1.479-0.733-2.11
	c-0.344-0.66-0.789-1.219-1.334-1.68c-0.545-0.487-1.234-0.846-2.067-1.076v-0.086c1.723-0.689,2.958-1.693,3.704-3.015
	c0.775-1.321,1.163-2.885,1.163-4.694c0-1.177-0.215-2.268-0.646-3.272c-0.402-1.034-1.004-1.938-1.809-2.713
	c-0.775-0.775-1.722-1.378-2.842-1.809c-1.091-0.459-2.325-0.689-3.703-0.689H4.288v30.749h6.761V32.717h6.762
	c1.694,0,2.914,0.374,3.66,1.12s1.235,1.923,1.464,3.531c0.172,1.234,0.301,2.526,0.388,3.875c0.086,1.35,0.316,2.513,0.689,3.489
	h6.76C30.457,44.302,30.213,43.785,30.041,43.182z M21.944,26.86c-0.775,0.689-1.938,1.034-3.488,1.034h-7.408v-8.656h7.408
	c1.55,0,2.713,0.344,3.488,1.034c0.775,0.66,1.163,1.737,1.163,3.229C23.107,25.051,22.719,26.171,21.944,26.86z"/>
<path fill="#FFFFFF" d="M53.274,31.012c-0.751-1.196-1.973-2.251-3.668-3.168c1.195-0.64,2.126-1.417,2.793-2.334
	c0.694-0.944,1.042-2.196,1.042-3.752c0-2.307-0.903-4.21-2.71-5.711c-1.778-1.529-4.029-2.293-6.754-2.293
	c-2.75,0-5.03,0.764-6.835,2.293c-1.779,1.501-2.67,3.418-2.67,5.753c0,1.417,0.307,2.598,0.918,3.542
	c0.611,0.945,1.584,1.779,2.918,2.502c-1.695,0.917-2.932,1.973-3.71,3.168c-0.751,1.194-1.126,2.668-1.126,4.419
	c0,2.807,0.974,5.085,2.919,6.837c1.945,1.751,4.475,2.625,7.586,2.625c3.086,0,5.601-0.874,7.546-2.625
	c1.945-1.779,2.919-4.059,2.919-6.837C54.442,33.68,54.053,32.206,53.274,31.012z M40.81,19.547
	c0.834-0.722,1.904-1.084,3.211-1.084c1.306,0,2.361,0.362,3.168,1.084c0.806,0.723,1.209,1.654,1.209,2.793
	c0,1.14-0.418,2.071-1.251,2.793c-0.806,0.723-1.848,1.084-3.126,1.084c-1.307,0-2.377-0.361-3.211-1.084
	c-0.806-0.75-1.209-1.695-1.209-2.834C39.601,21.159,40.004,20.242,40.81,19.547z M47.313,38.599
	c-0.834,0.861-1.958,1.292-3.375,1.292c-1.418,0-2.544-0.431-3.378-1.292c-0.833-0.862-1.251-2.028-1.251-3.502
	c0-1.5,0.418-2.695,1.251-3.585c0.862-0.89,1.987-1.334,3.378-1.334c1.444,0,2.584,0.459,3.418,1.376
	c0.833,0.889,1.25,2.098,1.25,3.626C48.605,36.598,48.175,37.736,47.313,38.599z"/>
</svg>
