<?xml version="1.0" encoding="UTF-8"?>
<svg id="Capa_1" data-name="Capa 1" xmlns="http://www.w3.org/2000/svg" viewBox="0 0 100.07 100.08">
  <defs>
    <style>
      .cls-1 {
        fill: #1a75cf;
      }

      .cls-1, .cls-2 {
        stroke-width: 0px;
      }

      .cls-2 {
        fill: #fff;
      }
    </style>
  </defs>
  <rect class="cls-1" width="100.07" height="100.08"/>
  <g>
    <path class="cls-2" d="m7.5,30.26h18.17c6.04,0,9.86,4.94,9.86,10.94,0,4.66-1.6,8.16-5.33,9.94v.11c3.63,1.11,4.67,5.28,4.91,9.27.14,2.5.09,7.16,1.42,9.38h-7.41c-.9-2.5-.8-6.33-1.18-9.5-.52-4.16-1.89-6-5.62-6h-7.41v15.49h-7.41V30.26Zm7.41,17.94h8.12c3.3,0,5.1-1.67,5.1-5.66s-1.79-5.5-5.1-5.5h-8.12v11.16Z"/>
    <path class="cls-2" d="m65.93,65.41c-2.6,3.94-5.99,5.44-9.25,5.44-10.43,0-16.57-9.16-16.57-20.6s6.14-20.93,16.57-20.93c6.89,0,13.4,5,14.21,13.99h-7.08c-.85-4.39-3.63-6.66-7.13-6.66-6.65,0-9.16,6.66-9.16,13.6s2.5,13.27,9.16,13.27c4.81,0,7.6-3.05,8.02-8.55h-7.46v-6.5h14.16v21.43h-4.72l-.76-4.5Z"/>
    <path class="cls-2" d="m92.64,69.91h-6.7v-25.21h-8.31v-5.94c4.67.11,8.97-1.78,9.68-7.72h5.33v38.87Z"/>
  </g>
</svg>