<?xml version="1.0" encoding="utf-8"?>
<!-- Generator: Adobe Illustrator 28.3.0, SVG Export Plug-In . SVG Version: 6.00 Build 0)  -->
<svg version="1.1" id="Capa_1" xmlns="http://www.w3.org/2000/svg" xmlns:xlink="http://www.w3.org/1999/xlink" x="0px" y="0px"
	 viewBox="0 0 192 100" style="enable-background:new 0 0 192 100;" xml:space="preserve">
<style type="text/css">
	.st0{fill-rule:evenodd;clip-rule:evenodd;fill:#546122;}
	.st1{fill:#FFFFFF;}
</style>
<g>
	<path class="st0" d="M41.6,99.9C18.6,99.6,0,77.3,0,50C0,22.6,18.6,0.4,41.9,0h107.3C173,0,192,22.4,192,50c0,27.6-19.1,50-42.4,50
		L41.6,99.9z"/>
</g>
<g>
	<path class="st1" d="M27.1,21.8h30.6c10.2,0,16.6,7.1,16.6,15.7c0,6.7-2.7,11.7-9,14.2v0.2c6.1,1.6,7.9,7.6,8.3,13.3
		c0.2,3.6,0.2,10.3,2.4,13.4H63.5c-1.5-3.6-1.4-9.1-2-13.6c-0.9-6-3.2-8.6-9.5-8.6H39.6v22.2H27.1V21.8z M39.6,47.5h13.7
		c5.6,0,8.6-2.4,8.6-8.1c0-5.5-3-7.9-8.6-7.9H39.6V47.5z"/>
	<path class="st1" d="M84.5,21.8H97v46.3h27.7v10.5H84.5V21.8z"/>
	<path class="st1" d="M157.4,78.6h-11.3V42.5h-14V34c7.9,0.2,15.1-2.5,16.3-11.1h9V78.6z"/>
</g>
</svg>
