<?xml version="1.0" encoding="utf-8"?>
<!-- Generator: Adobe Illustrator 28.3.0, SVG Export Plug-In . SVG Version: 6.00 Build 0)  -->
<svg version="1.1" id="Capa_1" xmlns="http://www.w3.org/2000/svg" xmlns:xlink="http://www.w3.org/1999/xlink" x="0px" y="0px"
	 viewBox="0 0 192 100" style="enable-background:new 0 0 192 100;" xml:space="preserve">
<style type="text/css">
	.st0{fill-rule:evenodd;clip-rule:evenodd;fill:#76BC21;}
	.st1{fill:#FFFFFF;}
</style>
<g>
	<path class="st0" d="M41.6,99.9C18.6,99.6,0,77.3,0,50C0,22.6,18.6,0.4,41.9,0h107.3C173,0,192,22.4,192,50c0,27.6-19.1,50-42.4,50
		L41.6,99.9z"/>
</g>
<g>
	<path class="st1" d="M27.1,21.8h30.6c10.2,0,16.6,7.1,16.6,15.7c0,6.7-2.7,11.7-9,14.2v0.2c6.1,1.6,7.9,7.6,8.3,13.3
		c0.2,3.6,0.2,10.3,2.4,13.4H63.5c-1.5-3.6-1.4-9.1-2-13.6c-0.9-6-3.2-8.6-9.5-8.6H39.6v22.2H27.1V21.8z M39.6,47.5h13.7
		c5.6,0,8.6-2.4,8.6-8.1c0-5.5-3-7.9-8.6-7.9H39.6V47.5z"/>
	<path class="st1" d="M84.5,21.8H97v46.3h27.7v10.5H84.5V21.8z"/>
	<path class="st1" d="M129.1,44.3c-0.4-12.7,6.8-22.5,20.2-22.5c10.2,0,19.1,6.5,19.1,17.4c0,8.4-4.5,13-9.9,16.9
		c-5.5,3.9-12,7.1-16.1,12.8h26.3v9.7h-40.9c0.1-12.9,8-18.4,17.6-24.9c4.9-3.3,11.6-6.8,11.7-13.6c0-5.3-3.5-8.6-8.4-8.6
		c-6.7,0-8.8,6.9-8.8,12.8H129.1z"/>
</g>
<g>
</g>
<g>
</g>
<g>
</g>
<g>
</g>
<g>
</g>
<g>
</g>
<g>
</g>
<g>
</g>
<g>
</g>
<g>
</g>
<g>
</g>
<g>
</g>
<g>
</g>
<g>
</g>
<g>
</g>
</svg>
