<?xml version="1.0" encoding="utf-8"?>
<!-- Generator: Adobe Illustrator 28.3.0, SVG Export Plug-In . SVG Version: 6.00 Build 0)  -->
<svg version="1.1" id="codi" xmlns="http://www.w3.org/2000/svg" xmlns:xlink="http://www.w3.org/1999/xlink" x="0px" y="0px"
	 viewBox="0 0 190.8 190.8" style="enable-background:new 0 0 190.8 190.8;" xml:space="preserve">
<style type="text/css">
	.st0{fill:#FFDD00;}
	.st1{fill:#1D1D1B;}
</style>
<rect class="st0" width="190.8" height="190.8"/>
<g>
	<path class="st1" d="M14.3,62h35.8c11.9,0,19.4,8.3,19.4,18.3S66.3,94,59,96.9v0.2c7.2,1.9,9.2,8.8,9.7,15.5
		c0.3,4.2,0.2,12,2.8,15.7H56.9c-1.8-4.2-1.6-10.6-2.3-15.9c-1-7-3.7-10-11.1-10H28.9v25.9H14.3V62L14.3,62z M28.9,92h16
		c6.5,0,10-2.8,10-9.5s-3.5-9.2-10-9.2h-16C28.9,73.3,28.9,92,28.9,92z"/>
	<path class="st1" d="M81.4,62H96v54.1h32.3v12.3H81.4V62L81.4,62z"/>
	<path class="st1" d="M159.1,113.3h-27.5v-12.1l28.2-37.9h11.8v39.1h8.6v10.9h-8.6v15.1h-12.5V113.3z M159.1,79.9h-0.3L142,102.5
		h17.1V79.9L159.1,79.9z"/>
</g>
</svg>
