<?xml version="1.0" encoding="utf-8"?>
<!-- Generator: Adobe Illustrator 25.4.1, SVG Export Plug-In . SVG Version: 6.00 Build 0)  -->
<svg version="1.1"
	 id="svg10" inkscape:version="0.92.4 (5da689c313, 2019-01-14)" sodipodi:docname="C1.svg" xmlns:cc="http://creativecommons.org/ns#" xmlns:dc="http://purl.org/dc/elements/1.1/" xmlns:inkscape="http://www.inkscape.org/namespaces/inkscape" xmlns:rdf="http://www.w3.org/1999/02/22-rdf-syntax-ns#" xmlns:sodipodi="http://sodipodi.sourceforge.net/DTD/sodipodi-0.dtd" xmlns:svg="http://www.w3.org/2000/svg"
	 xmlns="http://www.w3.org/2000/svg" xmlns:xlink="http://www.w3.org/1999/xlink" x="0px" y="0px"
	 viewBox="0 0 356.9479065 196.3253326" style="enable-background:new 0 0 356.9479065 196.3253326;" xml:space="preserve">
<style type="text/css">
	.st0{fill-rule:evenodd;clip-rule:evenodd;fill:#57BE24;}
	.st1{fill-rule:evenodd;clip-rule:evenodd;fill:#FFFFFF;}
</style>
<path class="st0" d="M265.0282288,3.278214H89.964325c-47.608326,0-86.5711136,38.950386-86.5711136,86.5711136v16.6257172
	c0,47.6207199,38.9627838,86.5710983,86.5711136,86.5710983h175.0639038c47.6083374,0,86.571106-38.9503784,86.571106-86.5710983
	V89.8493271C351.5993347,42.2285995,312.6241455,3.278214,265.0282288,3.278214z"/>
<polygon class="st1" points="220.5126953,161.6957397 220.5126953,140.2719879 248.1354523,140.2719879 248.1354523,59.3791695 
	218.380249,75.9924927 216.6693268,52.6429214 248.9082489,35.0832176 278.651062,35.0832176 278.651062,140.2719879 
	303.9553833,140.2719879 303.9553833,161.6957397 "/>
<rect x="151.0740662" y="87.7664642" class="st1" width="52.8444061" height="21.1427231"/>
<g>
	<polygon class="st1" points="110.1226883,131.6826935 110.1918716,161.7333984 80.1324768,161.7333984 80.2009277,131.6826935 	"/>
	<path class="st1" d="M109.9939041,75.6951218l0.1138535,49.60952H80.2152939l0.1127548-49.7591324
		c0-7.4967194-6.0784912-13.5752907-13.5752106-13.5752907L38.565197,62.1156693V34.9644051h113.1929626v27.1512642
		l-28.1886826,0.0034027C116.0730362,62.119072,109.9939041,68.1986847,109.9939041,75.6951218"/>
</g>
</svg>
