<?xml version="1.0" encoding="UTF-8" standalone="no"?>
<!-- Generator: Adobe Illustrator 16.0.0, SVG Export Plug-In . SVG Version: 6.00 Build 0)  -->

<svg
   xmlns:dc="http://purl.org/dc/elements/1.1/"
   xmlns:cc="http://creativecommons.org/ns#"
   xmlns:rdf="http://www.w3.org/1999/02/22-rdf-syntax-ns#"
   xmlns:svg="http://www.w3.org/2000/svg"
   xmlns="http://www.w3.org/2000/svg"
   xmlns:sodipodi="http://sodipodi.sourceforge.net/DTD/sodipodi-0.dtd"
   xmlns:inkscape="http://www.inkscape.org/namespaces/inkscape"
   version="1.1"
   id="Layer_1"
   x="0px"
   y="0px"
   width="58px"
   height="58px"
   viewBox="0 0 58 58"
   enable-background="new 0 0 58 58"
   xml:space="preserve"
   sodipodi:docname="RG1_girona.svg"
   inkscape:version="0.92.1 r"><metadata
     id="metadata20"><rdf:RDF><cc:Work
         rdf:about=""><dc:format>image/svg+xml</dc:format><dc:type
           rdf:resource="http://purl.org/dc/dcmitype/StillImage" /></cc:Work></rdf:RDF></metadata><defs
     id="defs18" /><sodipodi:namedview
     pagecolor="#ffffff"
     bordercolor="#666666"
     borderopacity="1"
     objecttolerance="10"
     gridtolerance="10"
     guidetolerance="10"
     inkscape:pageopacity="0"
     inkscape:pageshadow="2"
     inkscape:window-width="824"
     inkscape:window-height="480"
     id="namedview16"
     showgrid="false"
     inkscape:zoom="4.0689655"
     inkscape:cx="28.07839"
     inkscape:cy="29"
     inkscape:window-x="579"
     inkscape:window-y="208"
     inkscape:window-maximized="0"
     inkscape:current-layer="text3694" /><path
     id="path4000"
     fill="#0A7EC2"
     d="M58,58V0H0v58H58z" /><g
     enable-background="new    "
     id="g9"
     transform="translate(0,3.5635593)"><g
       aria-label="RG1"
       transform="scale(0.95663634,1.0453293)"
       style="font-style:normal;font-weight:normal;font-size:30.69345284px;line-height:1.25;font-family:sans-serif;letter-spacing:0px;word-spacing:0px;fill:#ffffff;fill-opacity:1;stroke:none;stroke-width:0.76733637"
       id="text3694"><path
         d="m 15.981685,13.580059 q 2.652705,0 4.466137,1.708522 1.828419,1.708523 1.828419,4.346241 0,2.068211 -0.869249,3.432032 -0.854261,1.348833 -2.607744,2.053224 v 0.05995 q 1.543665,0.40465 2.367952,1.843406 0.824287,1.438755 0.899222,4.406189 0.05995,2.967433 0.854261,4.061487 H 18.094857 Q 17.67522,34.427028 17.52535,32.044089 17.300544,28.806889 16.431296,27.877693 15.577035,26.93351 13.793577,26.93351 H 8.862842 v 8.557598 H 4.0370159 V 13.580059 Z m -1.738497,9.906432 q 1.513691,0 2.352965,-0.734365 0.854261,-0.734365 0.854261,-2.397926 0,-1.558652 -0.824287,-2.293017 -0.8093,-0.734365 -2.382939,-0.734365 H 8.862842 v 6.159673 z"
         style="font-style:normal;font-variant:normal;font-weight:bold;font-stretch:normal;line-height:0;font-family:'Helvetica Neue';-inkscape-font-specification:'Helvetica Neue Bold';letter-spacing:-1.38712275px;fill:#ffffff;stroke-width:0.76733637"
         id="path3716" /><path
         d="m 34.647217,13.055513 q 3.566915,0 6.204634,2.068211 2.637718,2.053224 3.042368,5.6651 h -4.60102 q -0.464598,-1.843405 -1.678548,-2.757615 -1.21395,-0.929196 -2.952447,-0.929196 -2.862524,0 -4.421176,2.083198 -1.543665,2.068211 -1.543665,5.440295 0,3.192239 1.528678,5.26045 1.543665,2.068211 4.436163,2.068211 2.308004,0 3.64185,-1.168989 1.348834,-1.183976 1.573639,-3.551928 h -4.8558 v -3.596889 h 9.217028 v 11.854747 h -3.072343 l -0.494572,-2.472861 q -1.183976,1.483716 -2.68268,2.248055 -1.498703,0.749352 -3.342109,0.749352 -3.132291,0 -5.605152,-1.438755 -2.472861,-1.453743 -3.821694,-4.091462 -1.333847,-2.637718 -1.333847,-5.859931 0,-5.065619 2.952447,-8.317806 2.952446,-3.252187 7.808246,-3.252187 z"
         style="font-style:normal;font-variant:normal;font-weight:bold;font-stretch:normal;line-height:0;font-family:'Helvetica Neue';-inkscape-font-specification:'Helvetica Neue Bold';letter-spacing:-1.38712275px;fill:#ffffff;stroke-width:0.76733637"
         id="path3718" /><path
         d="M 56.684833,13.999696 V 35.491108 H 52.323605 V 21.553163 h -5.395333 v -3.282161 h 0.284754 q 2.637718,0 4.151409,-1.079067 1.528678,-1.094054 1.843406,-3.192239 z"
         style="font-style:normal;font-variant:normal;font-weight:bold;font-stretch:normal;line-height:0;font-family:'Helvetica Neue';-inkscape-font-specification:'Helvetica Neue Bold';letter-spacing:-1.38712275px;fill:#ffffff;stroke-width:0.76733637"
         id="path3720" /></g></g></svg>