<?xml version="1.0" encoding="utf-8"?>
<!-- Generator: Adobe Illustrator 25.2.0, SVG Export Plug-In . SVG Version: 6.00 Build 0)  -->
<svg version="1.1"
	 id="svg10" inkscape:version="0.92.4 (5da689c313, 2019-01-14)" sodipodi:docname="C1.svg" xmlns:cc="http://creativecommons.org/ns#" xmlns:dc="http://purl.org/dc/elements/1.1/" xmlns:inkscape="http://www.inkscape.org/namespaces/inkscape" xmlns:rdf="http://www.w3.org/1999/02/22-rdf-syntax-ns#" xmlns:sodipodi="http://sodipodi.sourceforge.net/DTD/sodipodi-0.dtd" xmlns:svg="http://www.w3.org/2000/svg"
	 xmlns="http://www.w3.org/2000/svg" xmlns:xlink="http://www.w3.org/1999/xlink" x="0px" y="0px"
	 viewBox="0 0 356.9479065 196.3253326" style="enable-background:new 0 0 356.9479065 196.3253326;" xml:space="preserve">
<style type="text/css">
	.st0{fill-rule:evenodd;clip-rule:evenodd;fill:#C2D500;}
	.st1{fill-rule:evenodd;clip-rule:evenodd;fill:#54565A;}
</style>
<g>
	<g>
		<g>
			<path class="st0" d="M265.0282288,3.2786984H89.964325c-47.608326,0-86.5711136,38.950386-86.5711136,86.571106v16.6257172
				c0,47.6207275,38.9627838,86.571106,86.5711136,86.571106h175.0639038c47.6083374,0,86.571106-38.9503784,86.571106-86.571106
				V89.8498077C351.5993347,42.229084,312.6241455,3.2786984,265.0282288,3.2786984z"/>
		</g>
	</g>
</g>
<g>
	<path class="st1" d="M118.8423996,75.9061661l22.3996048-22.4243889c-24.7044144-24.6920223-64.9600906-24.6920223-89.664505,0
		c-24.6920223,24.6961555-24.6920223,64.9848785,0,89.6768951c24.7044106,24.7044067,64.960083,24.7044067,89.664505,0
		l-22.8787384-22.9035263c-11.2390442,11.2183914-29.7394714,15.1051712-44.3861618,0.4956589
		c-12.3170967-12.3542709-12.3170967-32.4945068,0-44.8446426C86.3520279,63.5518913,106.479866,63.5518913,118.8423996,75.9061661z
		"/>
	<rect x="138.9124146" y="87.752388" class="st1" width="31.4247074" height="21.1604595"/>
	<polygon class="st1" points="173.5341187,161.3204041 173.5341187,139.9740753 196.3054657,139.9740753 196.3054657,59.4296722 
		171.7662659,75.9639893 170.3495178,52.7011147 196.9498138,35.2085228 221.4559631,35.2085228 221.4559631,139.9740753 
		242.2859802,139.9740753 242.2859802,161.3204041 	"/>
	<path class="st1" d="M292.9835205,95.1872559c0-2.8211212-0.1404419-6.5674667-0.4212952-11.2514343
		c-0.2354431-4.6715775-0.7971802-9.1903229-1.639801-13.5438538c-0.8426208-4.3576584-2.1767883-8.1370468-3.8992004-11.3464317
		c-1.7554321-3.2093849-4.1098022-4.7996216-7.0961609-4.7996216c-2.9615479,0-5.3489685,1.5902367-7.0713806,4.7996216
		c-1.7554626,3.2093849-3.0772095,6.9887733-3.9322205,11.3464317c-0.8219604,4.3535309-1.3836975,8.8722763-1.639801,13.5438538
		c-0.2808838,4.6839676-0.4212952,8.4303131-0.4212952,11.2514343c0,2.0528488,0.0454102,4.6509247,0.0826111,7.7900848
		c0.0578003,3.1350403,0.256073,6.4724655,0.5493469,9.9957657c0.3386841,3.5274353,0.7600098,7.0135651,1.2763062,10.4666443
		c0.5617676,3.4696045,1.2763367,6.6046371,2.2469788,9.4257584c0.9376221,2.8252563,2.1437378,5.0928802,3.5604858,6.8276825
		c1.4621887,1.7306824,3.2300415,2.5980835,5.3489685,2.5980835c2.015686,0,3.725708-0.8674011,5.1878967-2.5980835
		c1.4291382-1.7348022,2.6352539-4.0024261,3.6306763-6.8276825c1.0285034-2.8211212,1.7802429-5.9561539,2.3296204-9.4257584
		c0.5039062-3.4530792,0.9375916-6.939209,1.2763062-10.4666443c0.2932739-3.5233002,0.4915161-6.8607254,0.5493469-9.9957657
		C292.9587402,99.8381805,292.9835205,97.2401047,292.9835205,95.1872559L292.9835205,95.1872559z M318.1216431,95.1872559
		c0,7.1787796-0.3634949,14.7416916-1.1235046,22.6804733c-0.7145691,7.9511795-2.4122009,15.315834-4.989624,22.1063461
		c-2.598053,6.8029022-6.4270325,12.4120941-11.4620667,16.8234558c-5.0681152,4.4278717-11.9082031,6.6418152-20.6193848,6.6418152
		c-5.8528748,0-10.8177185-1.0326233-14.9729919-3.0813446c-4.1222229-2.0487213-7.6455078-4.8120117-10.4914246-8.2650909
		c-2.8582916-3.4654846-5.1176605-7.4720459-6.7905121-12.0114441c-1.6274109-4.5559235-2.9037323-9.355545-3.8165588-14.4277802
		c-0.8797913-5.0557098-1.4869843-10.1857681-1.7224121-15.3736496c-0.2684784-5.1961517-0.4089203-10.218811-0.4089203-15.0927811
		c0-6.7905121,0.4915314-13.8371201,1.416748-21.1439362c0.9830627-7.3068237,2.8335114-14.0023384,5.5844116-20.0906677
		c2.7633057-6.0883293,6.6376953-11.0903435,11.6149292-14.9977798c4.9772339-3.9115677,11.5198975-5.8570251,19.586731-5.8570251
		c8.1742249,0,14.7540894,1.9206772,19.7189331,5.7620239c5.0226746,3.8413467,8.8640137,8.8144493,11.6479492,14.9069099
		c2.7302551,6.0883293,4.5683289,12.77145,5.4811401,20.0782738
		C317.6879272,81.1518784,318.1216431,88.2686996,318.1216431,95.1872559z"/>
</g>
</svg>
