<?xml version="1.0" encoding="utf-8"?>
<!-- Generator: Adobe Illustrator 25.2.0, SVG Export Plug-In . SVG Version: 6.00 Build 0)  -->
<svg version="1.1"
	 id="svg10" inkscape:version="0.92.4 (5da689c313, 2019-01-14)" sodipodi:docname="C1.svg" xmlns:cc="http://creativecommons.org/ns#" xmlns:dc="http://purl.org/dc/elements/1.1/" xmlns:inkscape="http://www.inkscape.org/namespaces/inkscape" xmlns:rdf="http://www.w3.org/1999/02/22-rdf-syntax-ns#" xmlns:sodipodi="http://sodipodi.sourceforge.net/DTD/sodipodi-0.dtd" xmlns:svg="http://www.w3.org/2000/svg"
	 xmlns="http://www.w3.org/2000/svg" xmlns:xlink="http://www.w3.org/1999/xlink" x="0px" y="0px"
	 viewBox="0 0 356.9479065 196.3253326" style="enable-background:new 0 0 356.9479065 196.3253326;" xml:space="preserve">
<style type="text/css">
	.st0{fill-rule:evenodd;clip-rule:evenodd;fill:#F5333F;}
	.st1{fill-rule:evenodd;clip-rule:evenodd;fill:#FFFFFF;}
</style>
<g>
	<g>
		<g>
			<path class="st0" d="M265.0282288,3.2786984H89.964325c-47.608326,0-86.5711136,38.950386-86.5711136,86.571106v16.6257172
				c0,47.6207275,38.9627838,86.571106,86.5711136,86.571106h175.0639038c47.6083374,0,86.571106-38.9503784,86.571106-86.571106
				V89.8498077C351.5993347,42.229084,312.6241455,3.2786984,265.0282288,3.2786984z"/>
		</g>
	</g>
</g>
<g>
	<path class="st1" d="M117.8749084,75.8949966l22.4225159-22.4197006c-24.7043076-24.6958408-64.9857788-24.6958408-89.6957397,0
		c-24.7043114,24.7014847-24.7043114,64.9829559,0,89.6788025c24.7099609,24.7043152,64.9914322,24.7043152,89.6957397,0
		l-22.9110718-22.9026031c-11.2225571,11.2084351-29.7310257,15.105545-44.3706131,0.4885483
		c-12.3436852-12.3521576-12.3436852-32.4928894,0-44.845047C85.3820114,63.5456619,105.5227509,63.5456619,117.8749084,75.8949966z
		"/>
	<rect x="130.9161224" y="87.7840195" class="st1" width="31.7304077" height="21.1573715"/>
	<path class="st1" d="M287.4784241,121.4121552c-0.8330688-0.3755951-1.8497009-0.6890564-3.0273132-0.9347458
		c-1.1917419-0.2485123-2.5613708-0.3784103-4.1625671-0.3784103c-1.9203186,0-3.5695496,0.4094772-4.8911743,1.2171402
		c-1.3442078,0.8161316-2.4088745,1.8807831-3.2165222,3.1939392c-0.7850647,1.3131561-1.3611755,2.7788086-1.6661682,4.4026108
		c-0.3275757,1.6266174-0.480072,3.3153687-0.480072,5.0690765c0,3.1289825,0.6156311,5.7552948,1.8412476,7.8761139
		c1.2171326,2.1292877,3.2334595,3.1939392,6.0038147,3.1939392c3.0979309,0,5.4757385-1.0957031,7.1164551-3.2814789
		c1.6576843-2.1942444,2.4822998-4.7866669,2.4822998-7.7885742V121.4121552L287.4784241,121.4121552z M289.8872986,161.3660431
		l-1.4402466-10.8780365c-2.3382568,3.6260223-4.8996277,6.6279297-7.6784363,9.005722
		c-2.7929382,2.3778076-6.6194458,3.5610657-11.5501404,3.5610657c-7.6925659,0-13.6088409-2.4342804-17.7714081-7.3169708
		c-4.1625671-4.8742218-6.2438507-11.5670929-6.2438507-20.0673218c0-9.1356201,2.6658478-16.4187012,7.9890747-21.8548965
		c5.3627625-5.4418411,12.9282532-8.1641693,22.7501221-8.1641693c3.2250061,0,5.5717468,0.1581421,7.0684509,0.471611
		c1.4967041,0.3134613,2.9934387,0.5930328,4.4675598,0.8415451V96.2757721c0-3.6260147-1.0646362-6.34552-3.2024231-8.1641693
		c-2.1377563-1.8101807-5.1085815-2.7138596-8.9577026-2.7138596c-6.5318909,0-12.9762573,1.6266174-19.381073,4.8742142
		l-3.5299988-18.1950073c4.171051-2.1292877,8.9181824-3.5695267,14.2498779-4.3150635
		c5.3543091-0.7511826,10.3019409-1.12677,14.9050598-1.12677c10.0308228,0,17.5228882,2.312851,22.4225159,6.9385529
		c4.9306946,4.6285324,7.3875732,11.0728912,7.3875732,19.3246002v51.0239563c0,2.8748169,0.1524963,5.7891846,0.480072,8.7261353
		c0.3049927,2.9369659,0.6410522,5.8428497,0.9460449,8.7176819H289.8872986z"/>
</g>
<g>
	<polygon class="st1" points="171.7428741,162.3889008 171.7428741,140.9323425 194.6317902,140.9323425 194.6317902,59.9720573 
		169.9658813,76.5917435 168.5418243,53.2087555 195.2794647,35.625843 219.9121552,35.625843 219.9121552,140.9323425 
		240.8497314,140.9323425 240.8497314,162.3889008 	"/>
</g>
</svg>
