<?xml version="1.0" encoding="UTF-8" standalone="no"?>
<!-- Generator: Adobe Illustrator 25.2.0, SVG Export Plug-In . SVG Version: 6.00 Build 0)  -->

<svg
   version="1.1"
   id="svg10"
   inkscape:version="1.1.2 (b8e25be833, 2022-02-05)"
   sodipodi:docname="Cercanías_C5_VerdeAM.svg"
   x="0px"
   y="0px"
   viewBox="0 0 356.9479065 196.3253326"
   style="enable-background:new 0 0 356.9479065 196.3253326;"
   xml:space="preserve"
   xmlns:inkscape="http://www.inkscape.org/namespaces/inkscape"
   xmlns:sodipodi="http://sodipodi.sourceforge.net/DTD/sodipodi-0.dtd"
   xmlns="http://www.w3.org/2000/svg"
   xmlns:svg="http://www.w3.org/2000/svg"><defs
   id="defs23" /><sodipodi:namedview
   id="namedview21"
   pagecolor="#ffffff"
   bordercolor="#666666"
   borderopacity="1.0"
   inkscape:pageshadow="2"
   inkscape:pageopacity="0.0"
   inkscape:pagecheckerboard="0"
   showgrid="false"
   inkscape:zoom="2.2464317"
   inkscape:cx="164.92823"
   inkscape:cy="61.875908"
   inkscape:window-width="1920"
   inkscape:window-height="1017"
   inkscape:window-x="-8"
   inkscape:window-y="-8"
   inkscape:window-maximized="1"
   inkscape:current-layer="g18" />
<style
   type="text/css"
   id="style2">
	.st0{fill-rule:evenodd;clip-rule:evenodd;fill:#FFC629;}
	.st1{fill-rule:evenodd;clip-rule:evenodd;fill:#54565A;}
</style>
<g
   id="g18">
	<g
   id="g8"
   style="fill:#b2d019;fill-opacity:1">
		<g
   id="g6"
   style="fill:#b2d019;fill-opacity:1">
			<path
   class="st0"
   d="M265.0282288,3.2786984H89.964325c-47.608326,0-86.5711136,38.950386-86.5711136,86.571106v16.6257172     c0,47.6207275,38.9627838,86.571106,86.5711136,86.571106h175.0639038c47.6083374,0,86.571106-38.9503784,86.571106-86.571106     V89.8498077C351.5993347,42.229084,312.6241455,3.2786984,265.0282288,3.2786984z"
   id="path4"
   style="fill:#b2d019;fill-opacity:1" />
		</g>
	</g>
	<g
   id="g16">
		<path
   class="st1"
   d="M121.8462982,75.8987198l22.399765-22.4080315c-24.6715469-24.7045994-64.9605713-24.7045994-89.6651764,0    c-24.7045994,24.6922112-24.7045994,64.9812317,0,89.6734314c24.7046013,24.6963501,64.9936218,24.6963501,89.6651764,0    l-22.8912964-22.899559c-11.2060852,11.2060776-29.7396927,15.1052933-44.3410568,0.4791412    c-12.3750229-12.350235-12.3750229-32.4906158,0-44.844986C89.3556824,63.5608788,109.5043259,63.5608788,121.8462982,75.8987198z    "
   id="path10" />
		<rect
   x="152.2303467"
   y="87.7491608"
   class="st1"
   width="52.8168716"
   height="21.1564884"
   id="rect12" />
		<path
   class="st1"
   d="M300.3670654,119.2112808c0,13.7793961-4.5187683,24.6591721-13.5232849,32.6310501    c-9.0045166,7.9842834-22.8334656,11.9661102-41.5075226,11.9661102c-3.3498535,0-7.3523254-0.3180542-11.9867554-0.9624176    c-4.6509552-0.6402283-10.1651917-1.8587341-16.6170502-3.6637573l2.3296051-21.8256378    c5.5390167,2.1932983,10.6319427,3.5728912,15.3489838,4.1594238c4.6963959,0.5741425,8.4551697,0.8674164,11.2886963,0.8674164    c8.1247253,0,14.0850525-2.0611267,17.9842529-6.1833801c3.8661499-4.1098633,5.795105-9.4630127,5.795105-16.0181351    c0-5.7951126-1.8959045-10.4915009-5.5968323-14.0974426c-3.7463684-3.6059341-9.1077881-5.4068375-16.0635681-5.4068375    c-3.7339935,0-7.9140625,0.2560883-12.5402374,0.7723999c-4.6468353,0.5121841-9.719101,1.3548126-15.2663879,2.5154877    l2.3172302-68.9300079h72.0650482v21.4291h-45.790863l-0.3758698,25.303524    c1.4167633-0.2602234,3.2920074-0.4915314,5.6794434-0.6815338c2.399826-0.1982651,4.7418365-0.2932663,7.0714569-0.2932663    c5.2581177,0,10.2808228,0.8095779,15.0350647,2.4122162c4.787262,1.615036,8.9797363,3.9942093,12.5856628,7.1416626    c3.6059265,3.1639709,6.4518738,7.141655,8.5708313,11.9784851    C299.3013916,107.1501846,300.3670654,112.7842026,300.3670654,119.2112808z"
   id="path14" />
	</g>
</g>
</svg>
