<?xml version="1.0" encoding="UTF-8" standalone="no"?>
<!-- Generator: Adobe Illustrator 25.2.0, SVG Export Plug-In . SVG Version: 6.00 Build 0)  -->

<svg
   version="1.1"
   id="svg10"
   inkscape:version="1.1.2 (b8e25be833, 2022-02-05)"
   sodipodi:docname="Cercanías_C7_(NaranjaAM).svg"
   x="0px"
   y="0px"
   viewBox="0 0 356.9479065 196.3253326"
   style="enable-background:new 0 0 356.9479065 196.3253326;"
   xml:space="preserve"
   xmlns:inkscape="http://www.inkscape.org/namespaces/inkscape"
   xmlns:sodipodi="http://sodipodi.sourceforge.net/DTD/sodipodi-0.dtd"
   xmlns="http://www.w3.org/2000/svg"
   xmlns:svg="http://www.w3.org/2000/svg"><defs
   id="defs23" /><sodipodi:namedview
   id="namedview21"
   pagecolor="#ffffff"
   bordercolor="#666666"
   borderopacity="1.0"
   inkscape:pageshadow="2"
   inkscape:pageopacity="0.0"
   inkscape:pagecheckerboard="0"
   showgrid="false"
   inkscape:zoom="3.1769342"
   inkscape:cx="178.31657"
   inkscape:cy="98.20789"
   inkscape:window-width="1920"
   inkscape:window-height="1017"
   inkscape:window-x="-8"
   inkscape:window-y="-8"
   inkscape:window-maximized="1"
   inkscape:current-layer="svg10" />
<style
   type="text/css"
   id="style2">
	.st0{fill-rule:evenodd;clip-rule:evenodd;fill:#F5333F;}
	.st1{fill-rule:evenodd;clip-rule:evenodd;fill:#FFFFFF;}
</style>
<g
   id="g10"
   style="fill:#ec760d;fill-opacity:1">
	<g
   id="g8"
   style="fill:#ec760d;fill-opacity:1">
		<g
   id="g6"
   style="fill:#ec760d;fill-opacity:1">
			<path
   class="st0"
   d="M265.0282288,3.2786984H89.964325c-47.608326,0-86.5711136,38.950386-86.5711136,86.571106v16.6257172     c0,47.6207275,38.9627838,86.571106,86.5711136,86.571106h175.0639038c47.6083374,0,86.571106-38.9503784,86.571106-86.571106     V89.8498077C351.5993347,42.229084,312.6241455,3.2786984,265.0282288,3.2786984z"
   id="path4"
   style="fill:#ec760d;fill-opacity:1" />
		</g>
	</g>
</g>
<g
   id="g18">
	<path
   class="st1"
   d="M124.8949203,75.8737106l22.4081802-22.4329681c-24.7138748-24.7138729-65.0056229-24.7138729-89.6988373,0   c-24.7014732,24.7056046-24.7014732,65.0097504,0,89.7112198c24.6932144,24.7014771,64.9849625,24.7014771,89.6988373,0   l-22.8875046-22.9122849c-11.2433395,11.210289-29.7508545,15.1109543-44.4031525,0.4834518   c-12.3342056-12.3466034-12.3342056-32.5069427,0-44.8494186C92.3921051,63.5147133,112.5276489,63.5147133,124.8949203,75.8737106   z"
   id="path12" />
	<rect
   x="155.3027649"
   y="87.7120743"
   class="st1"
   width="52.8366928"
   height="21.16856"
   id="rect14" />
	<path
   class="st1"
   d="M303.6479797,47.9244347c-3.8428345,9.0079002-7.8013306,18.730648-11.7598572,29.1641045   c-3.995697,10.4251938-8.0120544,20.9578247-11.9953613,31.5813599   c-4.0039978,10.6235352-7.9170532,21.0487289-11.7929382,31.2838516   c-3.842804,10.2351227-7.4624939,19.6066437-10.8135986,28.0980377l-28.8004761-11.1978912   c3.2312775-7.9872894,6.7104645-16.4538879,10.4251862-25.4039307c3.7353973-8.9500504,7.5658112-17.8629074,11.4086304-26.7385864   c3.875885-8.8921967,7.6815033-17.4910202,11.3838348-25.7923355c3.7601929-8.3054504,7.1567383-15.8010101,10.2723083-22.5032196   h-53.9027557V34.9828148h85.5750275V47.9244347z"
   id="path16" />
</g>
</svg>
