<?xml version="1.0" encoding="utf-8"?>
<!-- Generator: Adobe Illustrator 28.3.0, SVG Export Plug-In . SVG Version: 6.00 Build 0)  -->
<svg version="1.1" id="Capa_1" xmlns="http://www.w3.org/2000/svg" xmlns:xlink="http://www.w3.org/1999/xlink" x="0px" y="0px"
	 viewBox="0 0 100.1 54.6" style="enable-background:new 0 0 100.1 54.6;" xml:space="preserve">
<style type="text/css">
	.st0{fill:none;stroke:#1A1A18;stroke-width:0.69;stroke-miterlimit:22.93;}
	.st1{fill-rule:evenodd;clip-rule:evenodd;fill:#E5232C;}
	.st2{fill-rule:evenodd;clip-rule:evenodd;fill:#FFFFFF;}
	.st3{fill:#FFFFFF;}
</style>
<circle class="st0" cx="27.3" cy="27.3" r="18.2"/>
<rect x="9.1" y="9.1" class="st0" width="36.4" height="36.4"/>
<path class="st1" d="M75.1,0H24.9C11.2,0,0,11.2,0,24.9v4.8c0,13.7,11.2,24.9,24.9,24.9h50.3c13.7,0,24.9-11.2,24.9-24.9v-4.8
	C100,11.2,88.8,0,75.1,0"/>
<path class="st2" d="M33.7,20.9l6.4-6.4c-7.1-7.1-18.7-7.1-25.8,0s-7.1,18.7,0,25.8s18.7,7.1,25.8,0l-6.6-6.6
	c-3.2,3.2-8.5,4.3-12.7,0.1c-3.5-3.5-3.5-9.3,0-12.9C24.4,17.4,30.2,17.4,33.7,20.9"/>
<rect x="42.5" y="24.3" class="st3" width="15.2" height="6.1"/>
<path class="st3" d="M81.4,21.2c-1.1,3-2.3,6-3.4,9.1s-2.3,6-3.4,9c-1.1,2.9-2.1,5.6-3.1,8.1l-8.3-3.2c0.9-2.3,1.9-4.7,3-7.3
	s2.2-5.1,3.3-7.7c1.1-2.6,2.2-5,3.3-7.4c1.1-2.4,2.1-4.5,2.9-6.5H60.2V9.1h24.6v3.7C83.7,15.5,82.5,18.2,81.4,21.2z"/>
</svg>
