<?xml version="1.0" encoding="utf-8"?>
<!-- Generator: Adobe Illustrator 25.2.0, SVG Export Plug-In . SVG Version: 6.00 Build 0)  -->
<svg version="1.1"
	 id="svg10" inkscape:version="0.92.4 (5da689c313, 2019-01-14)" sodipodi:docname="C1.svg" xmlns:cc="http://creativecommons.org/ns#" xmlns:dc="http://purl.org/dc/elements/1.1/" xmlns:inkscape="http://www.inkscape.org/namespaces/inkscape" xmlns:rdf="http://www.w3.org/1999/02/22-rdf-syntax-ns#" xmlns:sodipodi="http://sodipodi.sourceforge.net/DTD/sodipodi-0.dtd" xmlns:svg="http://www.w3.org/2000/svg"
	 xmlns="http://www.w3.org/2000/svg" xmlns:xlink="http://www.w3.org/1999/xlink" x="0px" y="0px"
	 viewBox="0 0 356.9479065 196.3253326" style="enable-background:new 0 0 356.9479065 196.3253326;" xml:space="preserve">
<style type="text/css">
	.st0{fill-rule:evenodd;clip-rule:evenodd;fill:#FF8300;}
	.st1{fill-rule:evenodd;clip-rule:evenodd;fill:#FFFFFF;}
	.st2{fill:#FFFFFF;}
</style>
<g>
	<g>
		<g>
			<path class="st0" d="M265.0282288,3.2786984H89.964325c-47.608326,0-86.5711136,38.950386-86.5711136,86.571106v16.6257172
				c0,47.6207275,38.9627838,86.571106,86.5711136,86.571106h175.0639038c47.6083374,0,86.571106-38.9503784,86.571106-86.571106
				V89.8498077C351.5993347,42.229084,312.6241455,3.2786984,265.0282288,3.2786984z"/>
		</g>
	</g>
</g>
<g>
	<path class="st1" d="M125.3859177,75.8961945l22.4007187-22.4089851c-24.7056427-24.709774-64.9839859-24.709774-89.6689758,0
		c-24.6932526,24.6932564-24.6932526,64.9839783,0,89.6772308c24.6849861,24.6932526,64.9633331,24.6932526,89.6689758,0
		l-22.8798828-22.9046631c-11.2396011,11.2065582-29.7409515,15.1059265-44.3883667,0.4832916
		c-12.3177185-12.3548889-12.3177185-32.4919891,0-44.8468781C92.8939209,63.5536957,113.0227661,63.5536957,125.3859177,75.8961945
		z"/>
	<rect x="156.7836456" y="87.747139" class="st1" width="52.8191071" height="21.157383"/>
	<g>
		<path class="st2" d="M261.4351501,168.9570312l-26.0537109-13.3164062
			c15.6328125-9.6494141,41.6865234-36.0898438,45.3535156-54.2304688
			c-6.7548828,9.2636719-15.6328125,12.5439453-24.1240234,12.5439453c-22.7734375,0-32.4228516-16.0180664-32.4228516-38.7910156
			c0-21.8081055,15.6318359-42.0727539,44.7744141-42.0727539c32.2294922,0,44.3876953,21.2294922,44.3876953,46.7045898
			C313.3501892,115.1123047,290.7701111,149.4648438,261.4351501,168.9570312z M268.9624939,51.4248047
			c-10.421875,0-14.2822266,10.6147461-14.2822266,21.4223633c0,11.5795898,3.28125,22.7729492,14.2822266,22.7729492
			c8.4912109,0,14.28125-10.8076172,14.28125-22.7729492C283.2437439,63.0043945,280.1558533,51.4248047,268.9624939,51.4248047z"/>
	</g>
</g>
</svg>
