<?xml version="1.0" encoding="UTF-8"?>
<!DOCTYPE svg PUBLIC "-//W3C//DTD SVG 1.1//EN" "http://www.w3.org/Graphics/SVG/1.1/DTD/svg11.dtd">
<svg xmlns="http://www.w3.org/2000/svg" version="1.1" width="512px" height="512px" style="shape-rendering:geometricPrecision; text-rendering:geometricPrecision; image-rendering:optimizeQuality; fill-rule:evenodd; clip-rule:evenodd" xmlns:xlink="http://www.w3.org/1999/xlink">
<g><path style="opacity:0.956" fill="#313967" d="M 237.5,-0.5 C 249.833,-0.5 262.167,-0.5 274.5,-0.5C 369.63,10.1768 439.797,57.5101 485,141.5C 498.688,171.27 507.521,202.27 511.5,234.5C 511.5,248.5 511.5,262.5 511.5,276.5C 499.905,370.554 452.572,440.054 369.5,485C 339.025,498.698 307.358,507.531 274.5,511.5C 262.167,511.5 249.833,511.5 237.5,511.5C 147.743,502.231 79.5768,459.231 33,382.5C 13.8013,345.958 2.63464,307.625 -0.5,267.5C -0.5,259.5 -0.5,251.5 -0.5,243.5C 5.52525,158.96 43.1919,92.1271 112.5,43C 150.901,18.8123 192.567,4.31226 237.5,-0.5 Z M 68.5,113.5 C 66.984,116.533 64.984,119.2 62.5,121.5C 63.5293,118.109 65.5293,115.443 68.5,113.5 Z M 443.5,114.5 C 442.711,114.217 442.044,113.717 441.5,113C 317.5,112.5 193.5,112.333 69.5,112.5C 76.2025,102.622 83.8692,93.4551 92.5,85C 138.689,43.2503 193.022,21.4169 255.5,19.5C 305.863,21.0105 351.863,35.8438 393.5,64C 405.928,73.7572 417.761,84.2572 429,95.5C 434.073,101.728 438.907,108.062 443.5,114.5 Z M 444.5,115.5 C 446.9,117.296 448.567,119.63 449.5,122.5C 447.1,120.704 445.433,118.37 444.5,115.5 Z M 62.5,121.5 C 62.573,123.027 61.9063,124.027 60.5,124.5C 60.427,122.973 61.0937,121.973 62.5,121.5 Z M 449.5,122.5 C 450.906,122.973 451.573,123.973 451.5,125.5C 450.094,125.027 449.427,124.027 449.5,122.5 Z M 60.5,124.5 C 60.573,126.027 59.9063,127.027 58.5,127.5C 58.427,125.973 59.0937,124.973 60.5,124.5 Z M 451.5,125.5 C 452.906,125.973 453.573,126.973 453.5,128.5C 452.094,128.027 451.427,127.027 451.5,125.5 Z M 58.5,127.5 C 58.573,129.027 57.9063,130.027 56.5,130.5C 56.427,128.973 57.0937,127.973 58.5,127.5 Z M 453.5,128.5 C 465.031,145.723 473.698,164.39 479.5,184.5C 427.834,184.054 376.167,183.554 324.5,183C 333.999,176.749 343.666,170.749 353.5,165C 373.267,154.807 394.267,148.807 416.5,147C 431.5,146.167 446.5,145.333 461.5,144.5C 458.807,139.114 456.14,133.78 453.5,128.5 Z M 56.5,130.5 C 53.9604,134.915 51.9604,139.582 50.5,144.5C 141.834,144.872 233.167,145.372 324.5,146C 304.167,159.168 283.501,171.835 262.5,184C 185.498,184.833 108.498,184.667 31.5,183.5C 37.4728,164.562 45.8061,146.895 56.5,130.5 Z M 482.5,194.5 C 484.328,197.135 485.495,200.135 486,203.5C 493.865,240.671 493.199,277.671 484,314.5C 483.444,316.595 482.944,316.762 482.5,315C 484.392,308.267 485.725,301.434 486.5,294.5C 418.499,294.667 350.499,294.5 282.5,294C 313.999,274.083 345.666,254.416 377.5,235C 397.1,225.599 417.766,219.932 439.5,218C 455.144,216.813 470.811,216.313 486.5,216.5C 485.552,209.093 484.218,201.759 482.5,194.5 Z M 28.5,195.5 C 26.8528,202.404 25.8528,209.404 25.5,216.5C 86.5009,216.333 147.501,216.5 208.5,217C 176.167,237.502 143.501,257.502 110.5,277C 83.1356,287.396 54.8022,293.396 25.5,295C 25.1667,295.333 24.8333,295.667 24.5,296C 26.4432,302.381 27.6098,308.881 28,315.5C 17.5123,277.383 16.8456,239.05 26,200.5C 26.3736,198.509 27.207,196.842 28.5,195.5 Z M 271.5,215.5 C 296.511,215.421 321.511,215.921 346.5,217C 304.165,242.499 262.165,268.499 220.5,295C 195.157,295.611 169.823,295.278 144.5,294C 187.232,268.309 229.566,242.143 271.5,215.5 Z M 31.5,325.5 C 76.0888,326.984 120.756,327.818 165.5,328C 140.632,346.742 112.632,358.075 81.5,362C 70.7258,363.334 60.0591,364.668 49.5,366C 52.6536,371.808 55.6536,377.642 58.5,383.5C 46.316,365.791 37.316,346.458 31.5,325.5 Z M 479.5,326.5 C 475.045,341.548 469.045,355.881 461.5,369.5C 461.5,368.5 461.5,367.5 461.5,366.5C 363.166,366.143 264.833,365.643 166.5,365C 186.833,351.832 207.499,339.165 228.5,327C 312.166,326.5 395.833,326.333 479.5,326.5 Z M 461.5,369.5 C 461.573,371.027 460.906,372.027 459.5,372.5C 459.427,370.973 460.094,369.973 461.5,369.5 Z M 458.5,374.5 C 458.25,376.674 457.25,378.341 455.5,379.5C 455.75,377.326 456.75,375.659 458.5,374.5 Z M 455.5,379.5 C 455.573,381.027 454.906,382.027 453.5,382.5C 453.427,380.973 454.094,379.973 455.5,379.5 Z M 453.5,382.5 C 453.573,384.027 452.906,385.027 451.5,385.5C 451.427,383.973 452.094,382.973 453.5,382.5 Z M 58.5,383.5 C 62.3214,387.806 65.6547,392.473 68.5,397.5C 64.1879,393.546 60.8545,388.88 58.5,383.5 Z M 451.5,385.5 C 451.573,387.027 450.906,388.027 449.5,388.5C 449.427,386.973 450.094,385.973 451.5,385.5 Z M 449.5,388.5 C 448.471,391.891 446.471,394.557 443.5,396.5C 445.016,393.467 447.016,390.8 449.5,388.5 Z M 443.5,396.5 C 423.708,423.789 399.041,445.623 369.5,462C 290.434,502.459 212.1,501.125 134.5,458C 117.182,446.689 101.015,433.856 86,419.5C 79.5266,413.196 74.0266,406.196 69.5,398.5C 69.8333,398.5 70.1667,398.5 70.5,398.5C 194.334,398.833 318.001,398.5 441.5,397.5C 442.167,397.167 442.833,396.833 443.5,396.5 Z"/></g>
<g><path style="opacity:0.122" fill="#303868" d="M 441.5,397.5 C 318.001,398.5 194.334,398.833 70.5,398.5C 131.996,397.167 193.83,396.5 256,396.5C 318.001,396.5 379.834,396.833 441.5,397.5 Z"/></g>
</svg>
