<?xml version="1.0" encoding="UTF-8"?>
<svg id="Capa_1" data-name="Capa 1" xmlns="http://www.w3.org/2000/svg" viewBox="0 0 100.71 100.06">
  <defs>
    <style>
      .cls-1 {
        fill: #a1c517;
      }

      .cls-1, .cls-2 {
        stroke-width: 0px;
      }

      .cls-2 {
        fill: #fff;
        fill-rule: evenodd;
      }
    </style>
  </defs>
  <rect class="cls-1" width="100.71" height="100.06"/>
  <g>
    <g>
      <path class="cls-2" d="m6.59,59.68h11.7v-20.79h11.7c5.89,0,8.05,2.46,8.87,8.05.6,4.25.45,9.38,1.86,12.74h11.7c-2.09-2.99-2.01-9.24-2.25-12.6-.36-5.36-2.01-10.94-7.74-12.44v-.15c5.89-2.38,8.42-7.09,8.42-13.34,0-8.04-6.03-14.68-15.56-14.68H6.59v53.21ZM18.29,15.56h12.82c5.21,0,8.05,2.24,8.05,7.37s-2.84,7.6-8.05,7.6h-12.82v-14.97Z"/>
      <path class="cls-2" d="m67.03,27.56c0-5.51,2.01-12,8.27-12,4.55,0,7.83,3.12,7.83,8.05-.08,6.41-6.33,9.61-10.96,12.74-9.01,6.11-16.39,11.25-16.47,23.32h38.3v-9.09h-24.66c3.8-5.37,9.91-8.35,15.06-12,5.13-3.66,9.31-7.98,9.31-15.8,0-10.21-8.34-16.32-17.88-16.32-12.52,0-19.3,9.17-18.92,21.09h10.13Z"/>
    </g>
    <g>
      <polygon class="cls-2" points="6.65 93.1 12.45 93.1 12.45 74.23 12.54 74.23 24.26 93.1 30.45 93.1 30.45 64.91 24.66 64.91 24.66 83.82 24.58 83.82 12.81 64.91 6.65 64.91 6.65 93.1"/>
      <path class="cls-2" d="m34.67,82.91c0,6.48,4.14,10.73,10.54,10.73s10.58-4.26,10.58-10.73-4.15-10.78-10.58-10.78-10.54,4.26-10.54,10.78m5.61,0c0-3.28,1.14-6.54,4.93-6.54s4.97,3.27,4.97,6.54-1.15,6.51-4.97,6.51-4.93-3.27-4.93-6.51"/>
      <path class="cls-2" d="m59.4,93.1h5.61v-9.2c0-3.6,1.43-6.55,5.52-6.55.67,0,1.5.08,2.02.19v-5.21c-.35-.12-.84-.19-1.22-.19-2.73,0-5.48,1.78-6.51,4.34h-.08v-3.79h-5.34v20.41Z"/>
      <path class="cls-2" d="m88.61,93.1h5.33v-28.19h-5.61v10.27h-.08.04c-1.31-2.01-3.68-3.05-6.09-3.05-6,0-9.04,5.1-9.04,10.58s3,10.94,9.16,10.94c2.6,0,4.89-.95,6.19-3.16h.08v2.61Zm-.08-10.26c0,3.35-1.11,6.59-4.81,6.59-3.47,0-4.93-3.35-4.93-6.55s1.27-6.51,4.93-6.51,4.81,3.16,4.81,6.48"/>
    </g>
  </g>
</svg>