<?xml version="1.0" encoding="UTF-8"?>
<svg id="Capa_1" data-name="Capa 1" xmlns="http://www.w3.org/2000/svg" viewBox="0 0 100.69 100.03">
  <defs>
    <style>
      .cls-1 {
        fill: #fff;
        fill-rule: evenodd;
      }

      .cls-1, .cls-2 {
        stroke-width: 0px;
      }

      .cls-2 {
        fill: #005f27;
      }
    </style>
  </defs>
  <rect class="cls-2" width="100.69" height="100.03"/>
  <g>
    <g>
      <path class="cls-1" d="m6.49,59.57h11.69v-20.8h11.7c5.89,0,8.04,2.47,8.86,8.05.6,4.25.45,9.38,1.86,12.74h11.7c-2.08-2.99-2.02-9.24-2.24-12.59-.37-5.37-2.01-10.95-7.74-12.45v-.14c5.89-2.38,8.42-7.07,8.42-13.34,0-8.04-6.05-14.67-15.58-14.67H6.49v53.2ZM18.18,15.46h12.82c5.21,0,8.04,2.24,8.04,7.38s-2.83,7.6-8.04,7.6h-12.82v-14.98Z"/>
      <path class="cls-1" d="m66.91,27.46c0-5.51,2.01-12,8.27-12,4.54,0,7.83,3.13,7.83,8.04-.08,6.41-6.34,9.62-10.95,12.74-9.01,6.1-16.39,11.25-16.46,23.32h38.29v-9.09h-24.66c3.8-5.37,9.91-8.35,15.05-12,5.14-3.65,9.31-7.97,9.31-15.79,0-10.21-8.34-16.31-17.88-16.31-12.51,0-19.29,9.16-18.91,21.08h10.13Z"/>
    </g>
    <g>
      <path class="cls-1" d="m15.14,83.65c-.08,6.95,5.76,10.03,12,10.03,7.66,0,11.72-3.86,11.72-9.04,0-6.39-6.32-7.69-8.37-8.2-7.07-1.81-8.4-2.09-8.4-4.26,0-2.37,2.28-3.19,4.26-3.19,2.96,0,5.37.87,5.57,4.26h6c0-6.51-5.4-9.07-11.28-9.07-5.09,0-10.54,2.76-10.54,8.52,0,5.29,4.22,6.92,8.4,8.01,4.15,1.1,8.37,1.62,8.37,4.66s-3.31,3.52-5.49,3.52c-3.32,0-6.23-1.46-6.23-5.22h-6Z"/>
      <path class="cls-1" d="m61.08,72.6h-5.6v10.69c0,4.14-1.3,5.84-4.34,5.84-2.61,0-3.6-1.66-3.6-5.02v-11.52h-5.59v12.55c0,5.05,1.5,8.41,7.46,8.41,2.36,0,4.81-1.11,6.23-3.39h.12v2.83h5.33v-20.4Z"/>
      <path class="cls-1" d="m79.89,93.01h5.33v-28.19h-5.6v10.27h-.08.04c-1.3-2.02-3.67-3.04-6.08-3.04-6,0-9.04,5.08-9.04,10.57s3,10.94,9.16,10.94c2.61,0,4.9-.94,6.2-3.16h.08v2.61Zm-.08-10.26c0,3.34-1.1,6.58-4.82,6.58-3.47,0-4.93-3.34-4.93-6.55s1.26-6.51,4.93-6.51,4.82,3.15,4.82,6.47"/>
    </g>
  </g>
</svg>