<?xml version="1.0" encoding="utf-8"?>
<!-- Generator: Adobe Illustrator 23.0.1, SVG Export Plug-In . SVG Version: 6.00 Build 0)  -->
<svg version="1.1"
	 id="svg21844" inkscape:output_extension="org.inkscape.output.svg.inkscape" inkscape:version="0.46" sodipodi:docname="R4.svg" sodipodi:version="0.32" xmlns:cc="http://creativecommons.org/ns#" xmlns:dc="http://purl.org/dc/elements/1.1/" xmlns:inkscape="http://www.inkscape.org/namespaces/inkscape" xmlns:rdf="http://www.w3.org/1999/02/22-rdf-syntax-ns#" xmlns:sodipodi="http://sodipodi.sourceforge.net/DTD/sodipodi-0.dtd" xmlns:svg="http://www.w3.org/2000/svg"
	 xmlns="http://www.w3.org/2000/svg" xmlns:xlink="http://www.w3.org/1999/xlink" x="0px" y="0px" width="64.012px" height="64px"
	 viewBox="0 0 64.012 64" enable-background="new 0 0 64.012 64" xml:space="preserve">
<g>
	<rect fill-rule="evenodd" clip-rule="evenodd" fill="#FFB21E" width="64.012" height="64"/>
	<path fill="#FFFFFF" d="M23.756,15.528c1.447,0,2.738,0.226,3.896,0.683c1.158,0.475,2.159,1.106,2.987,1.922
		c0.834,0.817,1.465,1.766,1.899,2.837c0.434,1.065,0.66,2.211,0.66,3.444c0,1.899-0.411,3.543-1.216,4.927
		c-0.776,1.384-2.09,2.437-3.896,3.161v0.093c0.868,0.237,1.609,0.608,2.171,1.106c0.567,0.498,1.042,1.083,1.401,1.754
		c0.353,0.683,0.631,1.418,0.788,2.235c0.156,0.816,0.278,1.632,0.341,2.437c0.041,0.515,0.07,1.117,0.093,1.818
		c0.029,0.683,0.093,1.395,0.145,2.119c0.081,0.724,0.208,1.413,0.371,2.055c0.168,0.648,0.405,1.198,0.735,1.644h-7.086
		c-0.382-1.025-0.619-2.235-0.712-3.659c-0.087-1.407-0.231-2.767-0.417-4.058c-0.226-1.696-0.753-2.924-1.529-3.711
		c-0.776-0.776-2.067-1.175-3.844-1.175h-7.086v12.603H6.359V15.528H23.756z M21.226,30.105c1.621,0,2.86-0.353,3.647-1.077
		c0.817-0.729,1.228-1.899,1.228-3.531c0-1.569-0.411-2.698-1.228-3.41c-0.787-0.701-2.026-1.054-3.647-1.054h-7.769v9.071H21.226z"
		/>
	<path fill="#FFFFFF" d="M36.568,40.44v-5.858l13.744-18.427h5.743V35.16h4.191v5.28h-4.191v7.323h-6.108V40.44H36.568z
		 M49.814,24.189L41.639,35.16h8.308V24.189H49.814z"/>
</g>
</svg>
