<?xml version="1.0" encoding="utf-8"?>
<!-- Generator: Adobe Illustrator 23.0.1, SVG Export Plug-In . SVG Version: 6.00 Build 0)  -->
<svg version="1.1"
	 id="svg21844" inkscape:output_extension="org.inkscape.output.svg.inkscape" inkscape:version="0.46" sodipodi:docname="R7.svg" sodipodi:version="0.32" xmlns:cc="http://creativecommons.org/ns#" xmlns:dc="http://purl.org/dc/elements/1.1/" xmlns:inkscape="http://www.inkscape.org/namespaces/inkscape" xmlns:rdf="http://www.w3.org/1999/02/22-rdf-syntax-ns#" xmlns:sodipodi="http://sodipodi.sourceforge.net/DTD/sodipodi-0.dtd" xmlns:svg="http://www.w3.org/2000/svg"
	 xmlns="http://www.w3.org/2000/svg" xmlns:xlink="http://www.w3.org/1999/xlink" x="0px" y="0px" width="64px" height="64px"
	 viewBox="0 0 64 64" enable-background="new 0 0 64 64" xml:space="preserve">
<g>
	<rect fill-rule="evenodd" clip-rule="evenodd" fill="#DA91C0" width="64" height="64"/>
	<path fill="#FFFFFF" d="M24.615,15.528c1.436,0,2.738,0.237,3.896,0.695c1.158,0.475,2.148,1.106,2.987,1.922
		c0.816,0.817,1.453,1.754,1.899,2.819c0.434,1.083,0.642,2.229,0.642,3.462c0,1.899-0.394,3.531-1.198,4.927
		c-0.787,1.384-2.09,2.437-3.896,3.161v0.081c0.868,0.249,1.609,0.619,2.171,1.106c0.567,0.498,1.042,1.094,1.395,1.766
		c0.359,0.683,0.619,1.418,0.793,2.235c0.156,0.816,0.278,1.632,0.341,2.437c0.029,0.515,0.052,1.117,0.093,1.806
		c0.029,0.695,0.081,1.407,0.145,2.13c0.081,0.712,0.197,1.413,0.371,2.055c0.168,0.642,0.405,1.198,0.735,1.644h-7.086
		c-0.394-1.025-0.619-2.252-0.724-3.659c-0.093-1.407-0.22-2.767-0.405-4.07c-0.237-1.685-0.753-2.912-1.529-3.699
		c-0.776-0.776-2.067-1.175-3.844-1.175h-7.086v12.603H7.218V15.528H24.615z M22.085,30.116c1.621,0,2.842-0.353,3.647-1.094
		c0.817-0.712,1.228-1.893,1.228-3.514c0-1.569-0.411-2.698-1.228-3.41c-0.805-0.712-2.026-1.054-3.647-1.054h-7.769v9.071H22.085z"
		/>
	<path fill="#FFFFFF" d="M55.649,26.999c-1.279,2.107-2.345,4.36-3.202,6.727c-0.857,2.373-1.511,4.794-1.986,7.231
		c-0.475,2.437-0.712,4.701-0.741,6.82h-6.872c0.371-4.724,1.476-9.269,3.318-13.64c1.858-4.371,4.278-8.377,7.294-12.013h-15
		v-5.963h21.6v5.517C58.399,23.114,56.94,24.892,55.649,26.999"/>
</g>
</svg>
