<?xml version="1.0" encoding="UTF-8"?>
<!DOCTYPE svg PUBLIC "-//W3C//DTD SVG 1.1//EN" "http://www.w3.org/Graphics/SVG/1.1/DTD/svg11.dtd">
<svg xmlns="http://www.w3.org/2000/svg" version="1.1" width="512px" height="512px" style="shape-rendering:geometricPrecision; text-rendering:geometricPrecision; image-rendering:optimizeQuality; fill-rule:evenodd; clip-rule:evenodd" xmlns:xlink="http://www.w3.org/1999/xlink">
<g><path style="opacity:0.004" fill="#fefffe" d="M 474.5,4.5 C 475.833,5.16667 475.833,5.16667 474.5,4.5 Z"/></g>
<g><path style="opacity:0.263" fill="#746d68" d="M 268.5,5.5 C 269.5,5.5 270.5,5.5 271.5,5.5C 271.5,6.83333 271.5,8.16667 271.5,9.5C 270.5,8.83333 269.5,8.16667 268.5,7.5C 268.5,6.83333 268.5,6.16667 268.5,5.5 Z"/></g>
<g><path style="opacity:0.482" fill="#413c8b" d="M 271.5,5.5 C 272.833,5.5 274.167,5.5 275.5,5.5C 277.857,7.09843 280.523,8.09843 283.5,8.5C 279.629,8.18503 275.962,8.51836 272.5,9.5C 272.167,9.5 271.833,9.5 271.5,9.5C 271.5,8.16667 271.5,6.83333 271.5,5.5 Z"/></g>
<g><path style="opacity:0.004" fill="#fefffe" d="M 409.5,7.5 C 410.833,8.16667 410.833,8.16667 409.5,7.5 Z"/></g>
<g><path style="opacity:0.396" fill="#eade6c" d="M 245.5,5.5 C 230.334,7.25449 215.001,9.58782 199.5,12.5C 214.257,7.5806 229.59,5.24727 245.5,5.5 Z"/></g>
<g><path style="opacity:1" fill="#fad701" d="M 245.5,5.5 C 253.167,5.5 260.833,5.5 268.5,5.5C 268.5,6.16667 268.5,6.83333 268.5,7.5C 269.45,10.1149 271.117,12.1149 273.5,13.5C 275.902,15.9092 278.569,17.9092 281.5,19.5C 281.5,21.5 282.5,22.5 284.5,22.5C 286.167,26.1667 288.833,28.8333 292.5,30.5C 297.167,37.1667 302.833,42.8333 309.5,47.5C 309.833,49.8333 311.167,51.1667 313.5,51.5C 314.833,54.8333 317.167,57.1667 320.5,58.5C 320.539,59.5832 320.873,60.5832 321.5,61.5C 329.574,69.5787 337.907,77.2454 346.5,84.5C 346.5,86.5 347.5,87.5 349.5,87.5C 351.167,91.1667 353.833,93.8333 357.5,95.5C 358.5,98.5 360.5,100.5 363.5,101.5C 366.139,106.139 369.806,109.806 374.5,112.5C 375.167,115.167 376.833,116.833 379.5,117.5C 380.833,120.833 383.167,123.167 386.5,124.5C 387.5,124.833 388.167,125.5 388.5,126.5C 390.833,130.833 394.167,134.167 398.5,136.5C 398.833,138.833 400.167,140.167 402.5,140.5C 402.833,142.833 404.167,144.167 406.5,144.5C 407.5,147.5 409.5,149.5 412.5,150.5C 413.833,153.833 416.167,156.167 419.5,157.5C 421.428,159.781 422.428,162.447 422.5,165.5C 424.167,165.5 425.833,165.5 427.5,165.5C 430.5,167.833 433.167,170.5 435.5,173.5C 436.167,176.833 438.167,178.833 441.5,179.5C 442.167,182.833 444.167,184.833 447.5,185.5C 448.167,185.833 448.833,186.167 449.5,186.5C 452.5,191.5 456.5,195.5 461.5,198.5C 462.352,202.359 464.686,205.026 468.5,206.5C 469.833,207.5 471.167,208.5 472.5,209.5C 473.833,212.833 476.167,215.167 479.5,216.5C 481.833,220.833 485.167,224.167 489.5,226.5C 489.5,227.167 489.5,227.833 489.5,228.5C 490.038,230.117 490.371,231.784 490.5,233.5C 492.912,233.244 494.579,234.244 495.5,236.5C 333.168,237.5 170.835,237.833 8.5,237.5C 8.5,232.5 8.5,227.5 8.5,222.5C 9.16213,218.534 9.49546,214.534 9.5,210.5C 9.43255,209.041 9.76589,207.708 10.5,206.5C 12.5045,201.466 14.3378,196.132 16,190.5C 16.4974,187.854 16.6641,185.187 16.5,182.5C 18.6386,177.549 20.8053,172.549 23,167.5C 23.4955,165.527 23.6621,163.527 23.5,161.5C 23.5,161.167 23.5,160.833 23.5,160.5C 25.5744,157.896 27.7411,155.229 30,152.5C 31.4622,149.564 32.6289,146.564 33.5,143.5C 105.669,143.833 177.669,143.499 249.5,142.5C 250.833,141.5 250.833,140.5 249.5,139.5C 243.444,132.442 236.778,126.109 229.5,120.5C 228.833,117.833 227.167,116.167 224.5,115.5C 223.5,112.5 221.5,110.5 218.5,109.5C 215.833,104.833 212.167,101.167 207.5,98.5C 206.833,95.8333 205.167,94.1667 202.5,93.5C 201.167,90.1667 198.833,87.8333 195.5,86.5C 192.833,81.8333 189.167,78.1667 184.5,75.5C 183.5,72.5 181.5,70.5 178.5,69.5C 177.5,66.5 175.5,64.5 172.5,63.5C 170.167,59.1667 166.833,55.8333 162.5,53.5C 161.833,50.8333 160.167,49.1667 157.5,48.5C 156.42,46.0038 155.086,43.6705 153.5,41.5C 151.037,39.1449 148.704,36.4782 146.5,33.5C 146.833,33.1667 147.167,32.8333 147.5,32.5C 150.809,32.373 154.142,32.0397 157.5,31.5C 156.833,30.8333 156.167,30.1667 155.5,29.5C 159.852,27.3241 164.185,25.1574 168.5,23C 178.564,20.3698 188.23,16.8698 197.5,12.5C 198.167,12.5 198.833,12.5 199.5,12.5C 215.001,9.58782 230.334,7.25449 245.5,5.5 Z"/></g>
<g><path style="opacity:0.039" fill="#807bb9" d="M 275.5,5.5 C 284.555,6.4603 293.555,7.79363 302.5,9.5C 301.903,10.1386 301.07,10.472 300,10.5C 294.545,9.4111 289.045,8.74443 283.5,8.5C 280.523,8.09843 277.857,7.09843 275.5,5.5 Z"/></g>
<g><path style="opacity:0.004" fill="#fefffe" d="M 440.5,10.5 C 441.833,11.1667 441.833,11.1667 440.5,10.5 Z"/></g>
<g><path style="opacity:0.535" fill="#716cac" d="M 304.5,10.5 C 307.152,10.4095 309.485,11.0762 311.5,12.5C 308.612,13.0102 306.279,12.3435 304.5,10.5 Z"/></g>
<g><path style="opacity:1" fill="#c3ae52" d="M 268.5,7.5 C 269.5,8.16667 270.5,8.83333 271.5,9.5C 271.833,9.5 272.167,9.5 272.5,9.5C 272.833,10.1667 273.167,10.8333 273.5,11.5C 273.5,12.1667 273.5,12.8333 273.5,13.5C 271.117,12.1149 269.45,10.1149 268.5,7.5 Z"/></g>
<g><path style="opacity:1" fill="#967e5c" d="M 273.5,11.5 C 276.5,13.8333 279.167,16.5 281.5,19.5C 278.569,17.9092 275.902,15.9092 273.5,13.5C 273.5,12.8333 273.5,12.1667 273.5,11.5 Z"/></g>
<g><path style="opacity:1" fill="#2b25a1" d="M 283.5,8.5 C 289.045,8.74443 294.545,9.4111 300,10.5C 301.07,10.472 301.903,10.1386 302.5,9.5C 303.167,9.83333 303.833,10.1667 304.5,10.5C 306.279,12.3435 308.612,13.0102 311.5,12.5C 312.167,12.5 312.833,12.5 313.5,12.5C 313.62,13.5862 314.287,14.2528 315.5,14.5C 331.298,18.4166 346.631,23.4166 361.5,29.5C 363.898,29.2594 365.898,29.9261 367.5,31.5C 373.816,37.3334 381.149,41.6667 389.5,44.5C 391.167,45.1667 392.833,45.8333 394.5,46.5C 394.511,48.0174 395.177,49.1841 396.5,50C 400.698,52.7215 404.698,55.5548 408.5,58.5C 409.167,58.5 409.833,58.5 410.5,58.5C 410.833,60.8333 412.167,62.1667 414.5,62.5C 414.539,63.5832 414.873,64.5832 415.5,65.5C 418.4,67.7737 421.4,69.7737 424.5,71.5C 425.363,75.1129 427.697,77.1129 431.5,77.5C 433.428,79.7808 434.428,82.4475 434.5,85.5C 435.552,85.3505 436.552,85.5172 437.5,86C 444.403,93.3967 451.07,100.897 457.5,108.5C 459.062,112.392 461.395,115.725 464.5,118.5C 465.338,118.842 465.672,119.508 465.5,120.5C 471.872,131.929 477.872,143.596 483.5,155.5C 483.957,156.298 484.624,156.631 485.5,156.5C 485.5,156.833 485.5,157.167 485.5,157.5C 485.077,159.781 485.744,161.448 487.5,162.5C 487.5,162.833 487.5,163.167 487.5,163.5C 489.219,169.827 491.052,176.161 493,182.5C 493.377,183.942 494.21,184.942 495.5,185.5C 496.301,187.042 496.634,188.708 496.5,190.5C 496.334,194.846 496.501,199.179 497,203.5C 498.62,206.968 499.787,210.634 500.5,214.5C 500.747,215.713 501.414,216.38 502.5,216.5C 502.5,217.833 502.5,219.167 502.5,220.5C 503.113,226.271 502.446,231.604 500.5,236.5C 500.167,236.5 499.833,236.5 499.5,236.5C 496.5,232.833 493.167,229.5 489.5,226.5C 486.5,222.833 483.167,219.5 479.5,216.5C 477.5,213.833 475.167,211.5 472.5,209.5C 471.167,208.5 469.833,207.5 468.5,206.5C 466.138,203.808 463.804,201.141 461.5,198.5C 457.833,194.167 453.833,190.167 449.5,186.5C 448.833,186.167 448.167,185.833 447.5,185.5C 447.5,185.167 447.5,184.833 447.5,184.5C 446.82,182.61 446.653,180.61 447,178.5C 446.439,179.022 445.772,179.355 445,179.5C 443.269,178.259 441.436,177.259 439.5,176.5C 438.167,175.5 436.833,174.5 435.5,173.5C 433.167,170.5 430.5,167.833 427.5,165.5C 425.167,162.5 422.5,159.833 419.5,157.5C 417.5,154.833 415.167,152.5 412.5,150.5C 410.833,148.167 408.833,146.167 406.5,144.5C 405.5,142.833 404.167,141.5 402.5,140.5C 401.5,138.833 400.167,137.5 398.5,136.5C 395.5,132.833 392.167,129.5 388.5,126.5C 388.167,125.5 387.5,124.833 386.5,124.5C 384.5,121.833 382.167,119.5 379.5,117.5C 378.167,115.5 376.5,113.833 374.5,112.5C 371.167,108.5 367.5,104.833 363.5,101.5C 361.833,99.1667 359.833,97.1667 357.5,95.5C 355.167,92.5 352.5,89.8333 349.5,87.5C 348.833,86.1667 347.833,85.1667 346.5,84.5C 338.167,75.5 329.5,66.8333 320.5,58.5C 318.5,55.8333 316.167,53.5 313.5,51.5C 312.5,49.8333 311.167,48.5 309.5,47.5C 304.167,41.5 298.5,35.8333 292.5,30.5C 290.167,27.5 287.5,24.8333 284.5,22.5C 283.833,21.1667 282.833,20.1667 281.5,19.5C 279.167,16.5 276.5,13.8333 273.5,11.5C 273.167,10.8333 272.833,10.1667 272.5,9.5C 275.962,8.51836 279.629,8.18503 283.5,8.5 Z"/></g>
<g><path style="opacity:1" fill="#97815d" d="M 281.5,19.5 C 282.833,20.1667 283.833,21.1667 284.5,22.5C 282.5,22.5 281.5,21.5 281.5,19.5 Z"/></g>
<g><path style="opacity:0.471" fill="#6660a3" d="M 313.5,12.5 C 328.275,15.6101 342.608,20.1101 356.5,26C 358.431,26.9022 360.097,28.0688 361.5,29.5C 346.631,23.4166 331.298,18.4166 315.5,14.5C 314.287,14.2528 313.62,13.5862 313.5,12.5 Z"/></g>
<g><path style="opacity:1" fill="#948255" d="M 284.5,22.5 C 287.5,24.8333 290.167,27.5 292.5,30.5C 288.833,28.8333 286.167,26.1667 284.5,22.5 Z"/></g>
<g><path style="opacity:1" fill="#eed739" d="M 197.5,12.5 C 188.23,16.8698 178.564,20.3698 168.5,23C 164.185,25.1574 159.852,27.3241 155.5,29.5C 156.167,30.1667 156.833,30.8333 157.5,31.5C 154.142,32.0397 150.809,32.373 147.5,32.5C 147.167,32.8333 146.833,33.1667 146.5,33.5C 148.704,36.4782 151.037,39.1449 153.5,41.5C 152.167,41.1667 150.833,40.8333 149.5,40.5C 147.167,38.5 144.833,36.5 142.5,34.5C 142.5,33.8333 142.5,33.1667 142.5,32.5C 159.585,22.8081 177.919,16.1414 197.5,12.5 Z"/></g>
<g><path style="opacity:0.004" fill="#fefffe" d="M 70.5,31.5 C 71.8333,32.1667 71.8333,32.1667 70.5,31.5 Z"/></g>
<g><path style="opacity:1" fill="#9b8458" d="M 292.5,30.5 C 298.5,35.8333 304.167,41.5 309.5,47.5C 302.833,42.8333 297.167,37.1667 292.5,30.5 Z"/></g>
<g><path style="opacity:0.255" fill="#7d79b1" d="M 367.5,31.5 C 375.377,35.0718 382.71,39.4051 389.5,44.5C 381.149,41.6667 373.816,37.3334 367.5,31.5 Z"/></g>
<g><path style="opacity:0.004" fill="#fefffe" d="M 61.5,37.5 C 62.8333,38.1667 62.8333,38.1667 61.5,37.5 Z"/></g>
<g><path style="opacity:0.004" fill="#fefffe" d="M 437.5,39.5 C 438.833,40.1667 438.833,40.1667 437.5,39.5 Z"/></g>
<g><path style="opacity:0.149" fill="#817db5" d="M 142.5,32.5 C 142.5,33.1667 142.5,33.8333 142.5,34.5C 129.979,39.7646 118.312,46.598 107.5,55C 106.552,55.4828 105.552,55.6495 104.5,55.5C 116.161,46.3289 128.828,38.6623 142.5,32.5 Z"/></g>
<g><path style="opacity:1" fill="#c6b24e" d="M 149.5,40.5 C 150.833,40.8333 152.167,41.1667 153.5,41.5C 155.086,43.6705 156.42,46.0038 157.5,48.5C 154.5,46.1667 151.833,43.5 149.5,40.5 Z"/></g>
<g><path style="opacity:0.004" fill="#fefffe" d="M 70.5,42.5 C 71.8333,43.1667 71.8333,43.1667 70.5,42.5 Z"/></g>
<g><path style="opacity:1" fill="#2b24a2" d="M 142.5,34.5 C 144.833,36.5 147.167,38.5 149.5,40.5C 151.833,43.5 154.5,46.1667 157.5,48.5C 158.833,50.5 160.5,52.1667 162.5,53.5C 165.5,57.1667 168.833,60.5 172.5,63.5C 174.167,65.8333 176.167,67.8333 178.5,69.5C 179.5,70.8333 180.5,72.1667 181.5,73.5C 181.506,77.2197 182.84,80.2197 185.5,82.5C 186.5,79.8333 187.5,79.8333 188.5,82.5C 186.711,83.623 186.378,84.9564 187.5,86.5C 189.071,85.6906 190.738,85.3573 192.5,85.5C 192.833,88.8333 193.167,92.1667 193.5,95.5C 195.711,95.9668 197.711,96.9668 199.5,98.5C 198.347,101.662 199.347,102.329 202.5,100.5C 205.26,100.758 207.594,101.758 209.5,103.5C 208.167,104.167 206.833,104.833 205.5,105.5C 206.991,106.244 208.491,106.91 210,107.5C 210.423,106.044 211.256,105.544 212.5,106C 213.212,107.425 213.379,108.925 213,110.5C 214.399,111.227 215.899,111.727 217.5,112C 218.757,114.889 221.257,117.055 225,118.5C 225.239,120.725 224.405,121.058 222.5,119.5C 221.614,120.325 221.281,121.325 221.5,122.5C 224.166,122.933 226.832,123.433 229.5,124C 229.594,125.422 229.928,126.922 230.5,128.5C 233.85,126.726 235.516,127.726 235.5,131.5C 232.32,131.176 231.153,132.51 232,135.5C 233.413,133.586 235.247,132.253 237.5,131.5C 238.386,132.325 238.719,133.325 238.5,134.5C 240.995,135.199 243.328,136.199 245.5,137.5C 175.841,139.497 105.841,140.163 35.5,139.5C 37.1298,135.52 38.7965,131.52 40.5,127.5C 44.0521,124.613 46.3854,120.947 47.5,116.5C 50.3231,115.008 51.9898,112.674 52.5,109.5C 58.2201,103.088 63.7201,96.4214 69,89.5C 76.0304,82.1352 83.3637,75.1352 91,68.5C 91.4643,67.9056 91.631,67.2389 91.5,66.5C 93.0269,66.573 94.0269,65.9063 94.5,64.5C 97.4274,63.2427 99.7607,61.2427 101.5,58.5C 102.306,57.2719 103.306,56.2719 104.5,55.5C 105.552,55.6495 106.552,55.4828 107.5,55C 118.312,46.598 129.979,39.7646 142.5,34.5 Z"/></g>
<g><path style="opacity:0.055" fill="#8a88bf" d="M 394.5,46.5 C 399.651,50.0545 404.318,54.0545 408.5,58.5C 404.698,55.5548 400.698,52.7215 396.5,50C 395.177,49.1841 394.511,48.0174 394.5,46.5 Z"/></g>
<g><path style="opacity:1" fill="#b39f51" d="M 157.5,48.5 C 160.167,49.1667 161.833,50.8333 162.5,53.5C 160.5,52.1667 158.833,50.5 157.5,48.5 Z"/></g>
<g><path style="opacity:1" fill="#a0845f" d="M 309.5,47.5 C 311.167,48.5 312.5,49.8333 313.5,51.5C 311.167,51.1667 309.833,49.8333 309.5,47.5 Z"/></g>
<g><path style="opacity:0.004" fill="#fefffe" d="M 64.5,51.5 C 65.8333,52.1667 65.8333,52.1667 64.5,51.5 Z"/></g>
<g><path style="opacity:1" fill="#9e895b" d="M 313.5,51.5 C 316.167,53.5 318.5,55.8333 320.5,58.5C 317.167,57.1667 314.833,54.8333 313.5,51.5 Z"/></g>
<g><path style="opacity:1" fill="#ab9a4d" d="M 162.5,53.5 C 166.833,55.8333 170.167,59.1667 172.5,63.5C 168.833,60.5 165.5,57.1667 162.5,53.5 Z"/></g>
<g><path style="opacity:0.004" fill="#fefffe" d="M 477.5,54.5 C 478.833,55.1667 478.833,55.1667 477.5,54.5 Z"/></g>
<g><path style="opacity:0.125" fill="#aba9c6" d="M 410.5,58.5 C 412.167,59.5 413.5,60.8333 414.5,62.5C 412.167,62.1667 410.833,60.8333 410.5,58.5 Z"/></g>
<g><path style="opacity:0.176" fill="#7872aa" d="M 101.5,58.5 C 99.7607,61.2427 97.4274,63.2427 94.5,64.5C 96.2393,61.7573 98.5726,59.7573 101.5,58.5 Z"/></g>
<g><path style="opacity:1" fill="#a78f59" d="M 320.5,58.5 C 329.5,66.8333 338.167,75.5 346.5,84.5C 337.907,77.2454 329.574,69.5787 321.5,61.5C 320.873,60.5832 320.539,59.5832 320.5,58.5 Z"/></g>
<g><path style="opacity:1" fill="#b09c52" d="M 172.5,63.5 C 175.5,64.5 177.5,66.5 178.5,69.5C 176.167,67.8333 174.167,65.8333 172.5,63.5 Z"/></g>
<g><path style="opacity:0.153" fill="#a298c3" d="M 94.5,64.5 C 94.0269,65.9063 93.0269,66.573 91.5,66.5C 91.9731,65.0937 92.9731,64.427 94.5,64.5 Z"/></g>
<g><path style="opacity:0.294" fill="#6d65ab" d="M 414.5,62.5 C 418.502,64.8393 421.835,67.8393 424.5,71.5C 421.4,69.7737 418.4,67.7737 415.5,65.5C 414.873,64.5832 414.539,63.5832 414.5,62.5 Z"/></g>
<g><path style="opacity:1" fill="#aa9855" d="M 178.5,69.5 C 181.5,70.5 183.5,72.5 184.5,75.5C 183.5,74.8333 182.5,74.1667 181.5,73.5C 180.5,72.1667 179.5,70.8333 178.5,69.5 Z"/></g>
<g><path style="opacity:0.004" fill="#fefffe" d="M 477.5,73.5 C 478.833,74.1667 478.833,74.1667 477.5,73.5 Z"/></g>
<g><path style="opacity:1" fill="#a99753" d="M 184.5,75.5 C 189.167,78.1667 192.833,81.8333 195.5,86.5C 191.5,83.1667 187.833,79.5 184.5,75.5 Z"/></g>
<g><path style="opacity:0.608" fill="#645ca3" d="M 424.5,71.5 C 427.447,72.7805 429.781,74.7805 431.5,77.5C 427.697,77.1129 425.363,75.1129 424.5,71.5 Z"/></g>
<g><path style="opacity:0.004" fill="#fefffe" d="M 42.5,79.5 C 43.8333,80.1667 43.8333,80.1667 42.5,79.5 Z"/></g>
<g><path style="opacity:1" fill="#a78f5a" d="M 346.5,84.5 C 347.833,85.1667 348.833,86.1667 349.5,87.5C 347.5,87.5 346.5,86.5 346.5,84.5 Z"/></g>
<g><path style="opacity:1" fill="#aa9857" d="M 195.5,86.5 C 198.833,87.8333 201.167,90.1667 202.5,93.5C 199.833,91.5 197.5,89.1667 195.5,86.5 Z"/></g>
<g><path style="opacity:1" fill="#ab9359" d="M 349.5,87.5 C 352.5,89.8333 355.167,92.5 357.5,95.5C 353.833,93.8333 351.167,91.1667 349.5,87.5 Z"/></g>
<g><path style="opacity:1" fill="#a28d55" d="M 202.5,93.5 C 205.167,94.1667 206.833,95.8333 207.5,98.5C 205.5,97.1667 203.833,95.5 202.5,93.5 Z"/></g>
<g><path style="opacity:0.11" fill="#6d68a8" d="M 431.5,77.5 C 441.665,86.6574 450.332,96.9907 457.5,108.5C 451.07,100.897 444.403,93.3967 437.5,86C 436.552,85.5172 435.552,85.3505 434.5,85.5C 434.428,82.4475 433.428,79.7808 431.5,77.5 Z"/></g>
<g><path style="opacity:1" fill="#ac945e" d="M 357.5,95.5 C 359.833,97.1667 361.833,99.1667 363.5,101.5C 360.5,100.5 358.5,98.5 357.5,95.5 Z"/></g>
<g><path style="opacity:1" fill="#9f8d50" d="M 207.5,98.5 C 212.167,101.167 215.833,104.833 218.5,109.5C 214.5,106.167 210.833,102.5 207.5,98.5 Z"/></g>
<g><path style="opacity:0.294" fill="#756fad" d="M 91.5,66.5 C 91.631,67.2389 91.4643,67.9056 91,68.5C 83.3637,75.1352 76.0304,82.1352 69,89.5C 63.7201,96.4214 58.2201,103.088 52.5,109.5C 62.9764,93.0166 75.9764,78.6833 91.5,66.5 Z"/></g>
<g><path style="opacity:1" fill="#b59e5a" d="M 363.5,101.5 C 367.5,104.833 371.167,108.5 374.5,112.5C 369.806,109.806 366.139,106.139 363.5,101.5 Z"/></g>
<g><path style="opacity:1" fill="#9f8e54" d="M 218.5,109.5 C 221.5,110.5 223.5,112.5 224.5,115.5C 222.167,113.833 220.167,111.833 218.5,109.5 Z"/></g>
<g><path style="opacity:0.498" fill="#726aad" d="M 457.5,108.5 C 460.605,111.275 462.938,114.608 464.5,118.5C 461.395,115.725 459.062,112.392 457.5,108.5 Z"/></g>
<g><path style="opacity:1" fill="#b4985c" d="M 374.5,112.5 C 376.5,113.833 378.167,115.5 379.5,117.5C 376.833,116.833 375.167,115.167 374.5,112.5 Z"/></g>
<g><path style="opacity:0.184" fill="#7971b8" d="M 52.5,109.5 C 51.9898,112.674 50.3231,115.008 47.5,116.5C 48.7859,113.883 50.4525,111.55 52.5,109.5 Z"/></g>
<g><path style="opacity:1" fill="#9b8856" d="M 224.5,115.5 C 227.167,116.167 228.833,117.833 229.5,120.5C 227.5,119.167 225.833,117.5 224.5,115.5 Z"/></g>
<g><path style="opacity:1" fill="#b0985f" d="M 379.5,117.5 C 382.167,119.5 384.5,121.833 386.5,124.5C 383.167,123.167 380.833,120.833 379.5,117.5 Z"/></g>
<g><path style="opacity:0.235" fill="#817ab2" d="M 47.5,116.5 C 46.3854,120.947 44.0521,124.613 40.5,127.5C 42.0702,123.362 44.4036,119.696 47.5,116.5 Z"/></g>
<g><path style="opacity:1" fill="#302695" d="M 181.5,73.5 C 182.5,74.1667 183.5,74.8333 184.5,75.5C 187.833,79.5 191.5,83.1667 195.5,86.5C 197.5,89.1667 199.833,91.5 202.5,93.5C 203.833,95.5 205.5,97.1667 207.5,98.5C 210.833,102.5 214.5,106.167 218.5,109.5C 220.167,111.833 222.167,113.833 224.5,115.5C 225.833,117.5 227.5,119.167 229.5,120.5C 234.833,126.167 240.167,131.833 245.5,137.5C 243.328,136.199 240.995,135.199 238.5,134.5C 238.719,133.325 238.386,132.325 237.5,131.5C 235.247,132.253 233.413,133.586 232,135.5C 231.153,132.51 232.32,131.176 235.5,131.5C 235.516,127.726 233.85,126.726 230.5,128.5C 229.928,126.922 229.594,125.422 229.5,124C 226.832,123.433 224.166,122.933 221.5,122.5C 221.281,121.325 221.614,120.325 222.5,119.5C 224.405,121.058 225.239,120.725 225,118.5C 221.257,117.055 218.757,114.889 217.5,112C 215.899,111.727 214.399,111.227 213,110.5C 213.379,108.925 213.212,107.425 212.5,106C 211.256,105.544 210.423,106.044 210,107.5C 208.491,106.91 206.991,106.244 205.5,105.5C 206.833,104.833 208.167,104.167 209.5,103.5C 207.594,101.758 205.26,100.758 202.5,100.5C 199.347,102.329 198.347,101.662 199.5,98.5C 197.711,96.9668 195.711,95.9668 193.5,95.5C 193.167,92.1667 192.833,88.8333 192.5,85.5C 190.738,85.3573 189.071,85.6906 187.5,86.5C 186.378,84.9564 186.711,83.623 188.5,82.5C 187.5,79.8333 186.5,79.8333 185.5,82.5C 182.84,80.2197 181.506,77.2197 181.5,73.5 Z"/></g>
<g><path style="opacity:1" fill="#86744d" d="M 229.5,120.5 C 236.778,126.109 243.444,132.442 249.5,139.5C 177.508,141.497 105.174,142.164 32.5,141.5C 32.5,141.167 32.5,140.833 32.5,140.5C 33.1667,140.5 33.8333,140.5 34.5,140.5C 105.834,140.667 177.167,140.5 248.5,140C 247.627,138.955 246.627,138.122 245.5,137.5C 240.167,131.833 234.833,126.167 229.5,120.5 Z"/></g>
<g><path style="opacity:0.008" fill="#7a75b1" d="M 465.5,120.5 C 466.794,121.29 467.961,122.29 469,123.5C 475.55,133.933 481.05,144.933 485.5,156.5C 484.624,156.631 483.957,156.298 483.5,155.5C 477.872,143.596 471.872,131.929 465.5,120.5 Z"/></g>
<g><path style="opacity:1" fill="#b79b60" d="M 388.5,126.5 C 392.167,129.5 395.5,132.833 398.5,136.5C 394.167,134.167 390.833,130.833 388.5,126.5 Z"/></g>
<g><path style="opacity:0.118" fill="#837faf" d="M 40.5,127.5 C 38.7965,131.52 37.1298,135.52 35.5,139.5C 34.8333,139.5 34.5,139.833 34.5,140.5C 33.8333,140.5 33.1667,140.5 32.5,140.5C 34.4288,135.628 37.0955,131.295 40.5,127.5 Z"/></g>
<g><path style="opacity:1" fill="#b29e62" d="M 398.5,136.5 C 400.167,137.5 401.5,138.833 402.5,140.5C 400.167,140.167 398.833,138.833 398.5,136.5 Z"/></g>
<g><path style="opacity:1" fill="#342b74" d="M 245.5,137.5 C 246.627,138.122 247.627,138.955 248.5,140C 177.167,140.5 105.834,140.667 34.5,140.5C 34.5,139.833 34.8333,139.5 35.5,139.5C 105.841,140.163 175.841,139.497 245.5,137.5 Z"/></g>
<g><path style="opacity:1" fill="#e3c861" d="M 249.5,139.5 C 250.833,140.5 250.833,141.5 249.5,142.5C 177.164,142.167 104.83,142.5 32.5,143.5C 32.1207,145.213 31.1207,146.213 29.5,146.5C 29.7497,144.326 30.7497,142.659 32.5,141.5C 105.174,142.164 177.508,141.497 249.5,139.5 Z"/></g>
<g><path style="opacity:1" fill="#b79c63" d="M 402.5,140.5 C 404.167,141.5 405.5,142.833 406.5,144.5C 404.167,144.167 402.833,142.833 402.5,140.5 Z"/></g>
<g><path style="opacity:1" fill="#f3d634" d="M 249.5,142.5 C 177.669,143.499 105.669,143.833 33.5,143.5C 32.6289,146.564 31.4622,149.564 30,152.5C 27.7411,155.229 25.5744,157.896 23.5,160.5C 25.5026,155.829 27.5026,151.162 29.5,146.5C 31.1207,146.213 32.1207,145.213 32.5,143.5C 104.83,142.5 177.164,142.167 249.5,142.5 Z"/></g>
<g><path style="opacity:1" fill="#baa05f" d="M 406.5,144.5 C 408.833,146.167 410.833,148.167 412.5,150.5C 409.5,149.5 407.5,147.5 406.5,144.5 Z"/></g>
<g><path style="opacity:1" fill="#baa35d" d="M 412.5,150.5 C 415.167,152.5 417.5,154.833 419.5,157.5C 416.167,156.167 413.833,153.833 412.5,150.5 Z"/></g>
<g><path style="opacity:0.333" fill="#7b75b3" d="M 485.5,157.5 C 486.931,158.78 487.598,160.447 487.5,162.5C 485.744,161.448 485.077,159.781 485.5,157.5 Z"/></g>
<g><path style="opacity:1" fill="#d8bc4a" d="M 419.5,157.5 C 422.5,159.833 425.167,162.5 427.5,165.5C 425.833,165.5 424.167,165.5 422.5,165.5C 422.428,162.447 421.428,159.781 419.5,157.5 Z"/></g>
<g><path style="opacity:0.506" fill="#6c64a7" d="M 487.5,163.5 C 491.131,170.387 493.798,177.72 495.5,185.5C 494.21,184.942 493.377,183.942 493,182.5C 491.052,176.161 489.219,169.827 487.5,163.5 Z"/></g>
<g><path style="opacity:0.408" fill="#ede062" d="M 23.5,161.5 C 23.6621,163.527 23.4955,165.527 23,167.5C 20.8053,172.549 18.6386,177.549 16.5,182.5C 17.7727,175.046 20.106,168.046 23.5,161.5 Z"/></g>
<g><path style="opacity:1" fill="#c9ac59" d="M 435.5,173.5 C 436.833,174.5 438.167,175.5 439.5,176.5C 440.167,177.5 440.833,178.5 441.5,179.5C 438.167,178.833 436.167,176.833 435.5,173.5 Z"/></g>
<g><path style="opacity:1" fill="#432f83" d="M 439.5,176.5 C 441.436,177.259 443.269,178.259 445,179.5C 445.772,179.355 446.439,179.022 447,178.5C 446.653,180.61 446.82,182.61 447.5,184.5C 445.5,182.833 443.5,181.167 441.5,179.5C 440.833,178.5 440.167,177.5 439.5,176.5 Z"/></g>
<g><path style="opacity:1" fill="#cbb157" d="M 441.5,179.5 C 443.5,181.167 445.5,182.833 447.5,184.5C 447.5,184.833 447.5,185.167 447.5,185.5C 444.167,184.833 442.167,182.833 441.5,179.5 Z"/></g>
<g><path style="opacity:1" fill="#866e60" d="M 449.5,186.5 C 453.833,190.167 457.833,194.167 461.5,198.5C 456.5,195.5 452.5,191.5 449.5,186.5 Z"/></g>
<g><path style="opacity:0.961" fill="#efdd55" d="M 16.5,182.5 C 16.6641,185.187 16.4974,187.854 16,190.5C 14.3378,196.132 12.5045,201.466 10.5,206.5C 11.4444,198.105 13.4444,190.105 16.5,182.5 Z"/></g>
<g><path style="opacity:1" fill="#cbb15b" d="M 461.5,198.5 C 463.804,201.141 466.138,203.808 468.5,206.5C 464.686,205.026 462.352,202.359 461.5,198.5 Z"/></g>
<g><path style="opacity:0.835" fill="#594ea2" d="M 496.5,190.5 C 499.103,198.92 501.103,207.587 502.5,216.5C 501.414,216.38 500.747,215.713 500.5,214.5C 499.787,210.634 498.62,206.968 497,203.5C 496.501,199.179 496.334,194.846 496.5,190.5 Z"/></g>
<g><path style="opacity:1" fill="#8c7660" d="M 472.5,209.5 C 475.167,211.5 477.5,213.833 479.5,216.5C 476.167,215.167 473.833,212.833 472.5,209.5 Z"/></g>
<g><path style="opacity:1" fill="#8c755d" d="M 479.5,216.5 C 483.167,219.5 486.5,222.833 489.5,226.5C 485.167,224.167 481.833,220.833 479.5,216.5 Z"/></g>
<g><path style="opacity:1" fill="#907860" d="M 489.5,226.5 C 493.167,229.5 496.5,232.833 499.5,236.5C 499.167,236.5 498.833,236.5 498.5,236.5C 495.5,233.833 492.5,231.167 489.5,228.5C 489.5,227.833 489.5,227.167 489.5,226.5 Z"/></g>
<g><path style="opacity:0.106" fill="#e8da73" d="M 9.5,210.5 C 9.49546,214.534 9.16213,218.534 8.5,222.5C 7.51192,227.64 7.17859,232.974 7.5,238.5C 6.83333,238.5 6.16667,238.5 5.5,238.5C 5.78963,228.878 7.12296,219.545 9.5,210.5 Z"/></g>
<g><path style="opacity:0.11" fill="#c2bfeb" d="M 504.5,227.5 C 504.264,230.609 504.597,233.609 505.5,236.5C 504.833,236.5 504.167,236.5 503.5,236.5C 503.19,233.287 503.523,230.287 504.5,227.5 Z"/></g>
<g><path style="opacity:1" fill="#efd430" d="M 8.5,222.5 C 8.5,227.5 8.5,232.5 8.5,237.5C 170.835,237.833 333.168,237.5 495.5,236.5C 494.579,234.244 492.912,233.244 490.5,233.5C 490.371,231.784 490.038,230.117 489.5,228.5C 492.5,231.167 495.5,233.833 498.5,236.5C 335.17,238.499 171.503,239.165 7.5,238.5C 7.17859,232.974 7.51192,227.64 8.5,222.5 Z"/></g>
<g><path style="opacity:1" fill="#d1b95f" d="M 498.5,236.5 C 498.833,236.5 499.167,236.5 499.5,236.5C 499.5,237.5 499.5,238.5 499.5,239.5C 334.833,239.5 170.167,239.5 5.5,239.5C 5.5,239.167 5.5,238.833 5.5,238.5C 6.16667,238.5 6.83333,238.5 7.5,238.5C 171.503,239.165 335.17,238.499 498.5,236.5 Z"/></g>
<g><path style="opacity:1" fill="#766550" d="M 499.5,236.5 C 499.833,236.5 500.167,236.5 500.5,236.5C 501.686,237.961 501.686,239.295 500.5,240.5C 335.5,240.5 170.5,240.5 5.5,240.5C 5.5,240.167 5.5,239.833 5.5,239.5C 170.167,239.5 334.833,239.5 499.5,239.5C 499.5,238.5 499.5,237.5 499.5,236.5 Z"/></g>
<g><path style="opacity:1" fill="#332879" d="M 5.5,240.5 C 170.5,240.5 335.5,240.5 500.5,240.5C 500.5,240.833 500.5,241.167 500.5,241.5C 336.5,241.5 172.5,241.5 8.5,241.5C 7.50698,249.984 7.17364,258.651 7.5,267.5C 6.83333,259.167 6.16667,250.833 5.5,242.5C 5.5,241.833 5.5,241.167 5.5,240.5 Z"/></g>
<g><path style="opacity:1" fill="#2a25a2" d="M 8.5,241.5 C 172.5,241.5 336.5,241.5 500.5,241.5C 502.467,249.097 503.134,257.097 502.5,265.5C 500.599,265.433 498.766,265.767 497,266.5C 457.273,265.175 417.44,264.509 377.5,264.5C 259.429,266.175 141.263,266.842 23,266.5C 21.8333,266.333 20.6667,266.167 19.5,266C 21.6641,265.086 23.6641,263.919 25.5,262.5C 27.0709,263.309 28.7376,263.643 30.5,263.5C 30.5,262.5 30.5,261.5 30.5,260.5C 28.5328,260.261 26.6995,260.594 25,261.5C 24.3109,260.643 23.4776,259.977 22.5,259.5C 21.0803,261.22 19.747,263.054 18.5,265C 14.5187,264.808 11.5187,266.308 9.5,269.5C 9.67451,260.249 9.34118,250.916 8.5,241.5 Z"/></g>
<g><path style="opacity:0.223" fill="#534e8e" d="M 503.5,236.5 C 504.167,236.5 504.833,236.5 505.5,236.5C 505.5,247.167 505.5,257.833 505.5,268.5C 504.833,268.5 504.167,268.5 503.5,268.5C 503.5,257.833 503.5,247.167 503.5,236.5 Z"/></g>
<g><path style="opacity:0.004" fill="#928ecc" d="M 5.5,242.5 C 6.16667,250.833 6.83333,259.167 7.5,267.5C 7.1778,273.358 7.51114,279.025 8.5,284.5C 8.5,286.833 8.5,289.167 8.5,291.5C 7.10485,287.409 6.27152,283.076 6,278.5C 4.82998,266.478 4.66332,254.478 5.5,242.5 Z"/></g>
<g><path style="opacity:1" fill="#2d259c" d="M 8.5,241.5 C 9.34118,250.916 9.67451,260.249 9.5,269.5C 11.5187,266.308 14.5187,264.808 18.5,265C 19.747,263.054 21.0803,261.22 22.5,259.5C 23.4776,259.977 24.3109,260.643 25,261.5C 26.6995,260.594 28.5328,260.261 30.5,260.5C 30.5,261.5 30.5,262.5 30.5,263.5C 28.7376,263.643 27.0709,263.309 25.5,262.5C 23.6641,263.919 21.6641,265.086 19.5,266C 20.6667,266.167 21.8333,266.333 23,266.5C 141.263,266.842 259.429,266.175 377.5,264.5C 417.44,264.509 457.273,265.175 497,266.5C 498.766,265.767 500.599,265.433 502.5,265.5C 339.669,267.166 176.669,268.166 13.5,268.5C 11.9519,268.821 11.2852,269.821 11.5,271.5C 10.5041,271.414 9.67076,271.748 9,272.5C 8.50115,276.486 8.33449,280.486 8.5,284.5C 7.51114,279.025 7.1778,273.358 7.5,267.5C 7.17364,258.651 7.50698,249.984 8.5,241.5 Z"/></g>
<g><path style="opacity:1" fill="#382a87" d="M 502.5,220.5 C 503.612,222.599 504.279,224.933 504.5,227.5C 503.523,230.287 503.19,233.287 503.5,236.5C 503.5,247.167 503.5,257.833 503.5,268.5C 340.167,268.5 176.833,268.5 13.5,268.5C 176.669,268.166 339.669,267.166 502.5,265.5C 503.134,257.097 502.467,249.097 500.5,241.5C 500.5,241.167 500.5,240.833 500.5,240.5C 501.686,239.295 501.686,237.961 500.5,236.5C 502.446,231.604 503.113,226.271 502.5,220.5 Z"/></g>
<g><path style="opacity:1" fill="#82705b" d="M 13.5,268.5 C 176.833,268.5 340.167,268.5 503.5,268.5C 504.167,268.5 504.833,268.5 505.5,268.5C 505.5,268.833 505.5,269.167 505.5,269.5C 504.833,269.5 504.167,269.5 503.5,269.5C 421.833,269.5 340.167,269.5 258.5,269.5C 176.16,268.836 94.1599,269.503 12.5,271.5C 12.1667,271.5 11.8333,271.5 11.5,271.5C 11.2852,269.821 11.9519,268.821 13.5,268.5 Z"/></g>
<g><path style="opacity:1" fill="#d7bd3d" d="M 258.5,269.5 C 258.5,269.833 258.5,270.167 258.5,270.5C 177.164,270.167 95.8306,270.5 14.5,271.5C 16.2776,273.264 17.6109,275.264 18.5,277.5C 16.8333,276.167 15.1667,274.833 13.5,273.5C 13.1667,272.833 12.8333,272.167 12.5,271.5C 94.1599,269.503 176.16,268.836 258.5,269.5 Z"/></g>
<g><path style="opacity:1" fill="#e4ca43" d="M 258.5,270.5 C 258.5,270.167 258.5,269.833 258.5,269.5C 340.167,269.5 421.833,269.5 503.5,269.5C 503.5,274.167 503.5,278.833 503.5,283.5C 502.297,295.515 499.964,307.182 496.5,318.5C 496.632,307.188 498.466,296.188 502,285.5C 502.499,280.511 502.666,275.511 502.5,270.5C 421.167,270.5 339.833,270.5 258.5,270.5 Z"/></g>
<g><path style="opacity:1" fill="#fad701" d="M 258.5,270.5 C 339.833,270.5 421.167,270.5 502.5,270.5C 502.666,275.511 502.499,280.511 502,285.5C 498.466,296.188 496.632,307.188 496.5,318.5C 493.889,320.619 492.222,323.286 491.5,326.5C 490.127,326.343 488.793,326.51 487.5,327C 489.007,328.473 489.674,330.307 489.5,332.5C 488.547,340.96 485.714,348.627 481,355.5C 479.857,358.777 479.023,362.11 478.5,365.5C 406.167,365.5 333.833,365.5 261.5,365.5C 261.337,367.857 261.503,370.19 262,372.5C 264.259,373.38 266.425,374.38 268.5,375.5C 269.5,376.167 270.5,376.833 271.5,377.5C 273.833,377.833 275.167,379.167 275.5,381.5C 275.5,382.833 275.5,384.167 275.5,385.5C 279.423,388.139 283.423,390.806 287.5,393.5C 288.144,396.81 290.144,398.81 293.5,399.5C 294.73,401.297 295.396,403.297 295.5,405.5C 294.5,405.5 293.5,405.5 292.5,405.5C 292.5,406.5 292.5,407.5 292.5,408.5C 294.819,407.833 297.153,407.666 299.5,408C 300.255,410.175 301.088,412.341 302,414.5C 302.725,413.941 303.558,413.608 304.5,413.5C 306.756,414.114 308.756,415.114 310.5,416.5C 311.5,417.167 312.5,417.833 313.5,418.5C 314.167,421.167 315.833,422.833 318.5,423.5C 319.08,425.749 320.413,427.415 322.5,428.5C 323.872,429.512 325.205,430.512 326.5,431.5C 326.5,433.5 327.5,434.5 329.5,434.5C 330.5,437.5 332.5,439.5 335.5,440.5C 336.833,443.833 339.167,446.167 342.5,447.5C 342.5,448.167 342.5,448.833 342.5,449.5C 342.539,450.583 342.873,451.583 343.5,452.5C 346.534,454.223 349.534,455.89 352.5,457.5C 354.5,459.5 356.5,461.5 358.5,463.5C 359.5,466.5 361.5,468.5 364.5,469.5C 365.075,471.411 366.075,473.078 367.5,474.5C 360.128,477.318 352.795,480.485 345.5,484C 343.937,484.759 342.937,485.926 342.5,487.5C 341.833,487.5 341.167,487.5 340.5,487.5C 337.161,487.89 333.827,488.39 330.5,489C 326.688,490.769 323.021,492.602 319.5,494.5C 319.167,494.5 318.833,494.5 318.5,494.5C 309.19,494.598 300.19,496.098 291.5,499C 275.247,501.144 258.913,501.977 242.5,501.5C 240.518,497.854 237.851,494.854 234.5,492.5C 233.415,490.413 231.749,489.08 229.5,488.5C 228.833,485.833 227.167,484.167 224.5,483.5C 223.833,480.833 222.167,479.167 219.5,478.5C 218.833,475.833 217.167,474.167 214.5,473.5C 213.833,473.5 213.5,473.167 213.5,472.5C 212.5,469.5 210.5,467.5 207.5,466.5C 206.5,463.5 204.5,461.5 201.5,460.5C 201.5,458.5 200.5,457.5 198.5,457.5C 197.167,456.833 196.167,455.833 195.5,454.5C 195.167,452.167 193.833,450.833 191.5,450.5C 190.167,447.167 187.833,444.833 184.5,443.5C 184.5,441.5 183.5,440.5 181.5,440.5C 180.167,439.833 179.167,438.833 178.5,437.5C 177.833,434.833 176.167,433.167 173.5,432.5C 172.833,429.833 171.167,428.167 168.5,427.5C 165.5,422.5 161.5,418.5 156.5,415.5C 155.271,412.026 152.938,409.693 149.5,408.5C 149.5,408.167 149.5,407.833 149.5,407.5C 146.972,403.575 143.638,400.575 139.5,398.5C 138.833,395.833 137.167,394.167 134.5,393.5C 133.167,390.167 130.833,387.833 127.5,386.5C 125.551,381.066 121.885,377.399 116.5,375.5C 115.5,372.5 113.5,370.5 110.5,369.5C 109.833,366.833 108.167,365.167 105.5,364.5C 104.833,361.833 103.167,360.167 100.5,359.5C 99.5,356.5 97.5,354.5 94.5,353.5C 94.5123,350.858 93.179,349.525 90.5,349.5C 87.7845,344.784 84.1178,341.118 79.5,338.5C 78.9695,336.076 78.1362,333.743 77,331.5C 74.1473,330.172 71.6473,328.505 69.5,326.5C 68.3951,325.4 67.0618,324.733 65.5,324.5C 64.5,321.5 62.5,319.5 59.5,318.5C 58.5,315.5 56.5,313.5 53.5,312.5C 50.5665,308.227 47.2332,304.227 43.5,300.5C 42.9095,298.903 41.9095,297.569 40.5,296.5C 41.8334,295.38 42.3334,294.047 42,292.5C 40.4815,292.057 39.3148,292.724 38.5,294.5C 38.6225,290.98 36.6225,289.314 32.5,289.5C 31.9694,286.221 29.9694,284.887 26.5,285.5C 24.8054,281.805 22.1387,279.139 18.5,277.5C 17.6109,275.264 16.2776,273.264 14.5,271.5C 95.8306,270.5 177.164,270.167 258.5,270.5 Z"/></g>
<g><path style="opacity:0.024" fill="#f2e895" d="M 503.5,269.5 C 504.167,269.5 504.833,269.5 505.5,269.5C 505.008,274.324 504.341,278.99 503.5,283.5C 503.5,278.833 503.5,274.167 503.5,269.5 Z"/></g>
<g><path style="opacity:1" fill="#bba655" d="M 18.5,277.5 C 22.1387,279.139 24.8054,281.805 26.5,285.5C 23.5,283.167 20.8333,280.5 18.5,277.5 Z"/></g>
<g><path style="opacity:1" fill="#352990" d="M 13.5,273.5 C 15.1667,274.833 16.8333,276.167 18.5,277.5C 20.8333,280.5 23.5,283.167 26.5,285.5C 27.5,286.833 28.5,288.167 29.5,289.5C 24.9464,288.867 20.9464,286.534 17.5,282.5C 16.6906,280.929 16.3573,279.262 16.5,277.5C 15.5,277.5 14.5,277.5 13.5,277.5C 13.5,276.167 13.5,274.833 13.5,273.5 Z"/></g>
<g><path style="opacity:0.69" fill="#534a9c" d="M 8.5,284.5 C 10.464,293.708 12.464,303.041 14.5,312.5C 13.8333,312.5 13.1667,312.5 12.5,312.5C 10.843,305.557 9.50967,298.557 8.5,291.5C 8.5,289.167 8.5,286.833 8.5,284.5 Z"/></g>
<g><path style="opacity:1" fill="#877858" d="M 30.5,290.5 C 32.0269,290.427 33.0269,291.094 33.5,292.5C 31.9731,292.573 30.9731,291.906 30.5,290.5 Z"/></g>
<g><path style="opacity:1" fill="#2b25a1" d="M 11.5,271.5 C 11.8333,271.5 12.1667,271.5 12.5,271.5C 12.8333,272.167 13.1667,272.833 13.5,273.5C 13.5,274.833 13.5,276.167 13.5,277.5C 14.5,277.5 15.5,277.5 16.5,277.5C 16.3573,279.262 16.6906,280.929 17.5,282.5C 20.9464,286.534 24.9464,288.867 29.5,289.5C 29.1854,291.226 29.0187,292.893 29,294.5C 30.0495,293.483 31.2161,293.316 32.5,294C 34.1742,295.506 35.1742,297.339 35.5,299.5C 38.0384,300.043 40.3718,301.043 42.5,302.5C 46.1667,305.833 49.8333,309.167 53.5,312.5C 55.1667,314.833 57.1667,316.833 59.5,318.5C 61.1667,320.833 63.1667,322.833 65.5,324.5C 66.5,325.833 67.5,327.167 68.5,328.5C 69.1495,330.435 69.4828,332.435 69.5,334.5C 72.8408,333.843 74.8408,335.176 75.5,338.5C 77.0754,339.456 78.742,340.123 80.5,340.5C 83.9047,343.579 87.238,346.579 90.5,349.5C 91.5,351.167 92.8333,352.5 94.5,353.5C 96.1667,355.833 98.1667,357.833 100.5,359.5C 101.833,361.5 103.5,363.167 105.5,364.5C 106.833,366.5 108.5,368.167 110.5,369.5C 112.167,371.833 114.167,373.833 116.5,375.5C 116.856,377.19 117.856,378.19 119.5,378.5C 119.427,380.027 120.094,381.027 121.5,381.5C 123.167,382.5 124.5,383.833 125.5,385.5C 125.703,387.044 126.37,388.378 127.5,389.5C 125.647,390.76 123.814,390.76 122,389.5C 121.517,390.448 121.351,391.448 121.5,392.5C 123.792,392.756 125.959,392.423 128,391.5C 129.067,392.191 130.234,392.691 131.5,393C 133.495,396.492 135.328,399.992 137,403.5C 138.699,402.594 140.533,402.261 142.5,402.5C 144.64,404.458 146.973,406.125 149.5,407.5C 149.5,407.833 149.5,408.167 149.5,408.5C 151.5,411.167 153.833,413.5 156.5,415.5C 157.5,416.833 158.5,418.167 159.5,419.5C 161.188,422.513 162.854,425.513 164.5,428.5C 167.5,428.167 168.833,429.5 168.5,432.5C 170.216,432.629 171.883,432.962 173.5,433.5C 175.167,434.833 176.833,436.167 178.5,437.5C 179.167,438.833 180.167,439.833 181.5,440.5C 182.167,441.833 183.167,442.833 184.5,443.5C 186.5,446.167 188.833,448.5 191.5,450.5C 192.5,452.167 193.833,453.5 195.5,454.5C 196.167,455.833 197.167,456.833 198.5,457.5C 199.167,458.833 200.167,459.833 201.5,460.5C 203.167,462.833 205.167,464.833 207.5,466.5C 209.167,468.833 211.167,470.833 213.5,472.5C 213.5,473.167 213.833,473.5 214.5,473.5C 215.833,475.5 217.5,477.167 219.5,478.5C 220.833,480.5 222.5,482.167 224.5,483.5C 225.833,485.5 227.5,487.167 229.5,488.5C 230.5,489.833 231.5,491.167 232.5,492.5C 231.741,494.431 230.407,495.931 228.5,497C 229.252,497.671 229.586,498.504 229.5,499.5C 217.703,496.573 205.703,494.906 193.5,494.5C 191.901,494.768 190.568,494.434 189.5,493.5C 174.82,488.158 160.154,482.825 145.5,477.5C 132.904,469.944 120.237,462.277 107.5,454.5C 106.415,452.413 104.749,451.08 102.5,450.5C 101.415,448.413 99.7488,447.08 97.5,446.5C 91.3044,439.804 84.6377,433.637 77.5,428C 73.322,421.66 68.322,416.16 62.5,411.5C 61.456,408.062 59.456,405.396 56.5,403.5C 55.2189,399.567 52.8855,396.567 49.5,394.5C 49.0074,392.194 48.6741,389.861 48.5,387.5C 46.7839,387.371 45.1172,387.038 43.5,386.5C 43.5,386.167 43.5,385.833 43.5,385.5C 42.8897,383.566 41.8897,381.899 40.5,380.5C 38.0841,373.32 34.4174,366.987 29.5,361.5C 29.5,361.167 29.5,360.833 29.5,360.5C 30.0431,360.44 30.3764,360.107 30.5,359.5C 23.1908,344.539 17.8575,328.872 14.5,312.5C 12.464,303.041 10.464,293.708 8.5,284.5C 8.33449,280.486 8.50115,276.486 9,272.5C 9.67076,271.748 10.5041,271.414 11.5,271.5 Z"/></g>
<g><path style="opacity:1" fill="#e8cd2f" d="M 26.5,285.5 C 29.9694,284.887 31.9694,286.221 32.5,289.5C 36.6225,289.314 38.6225,290.98 38.5,294.5C 39.3148,292.724 40.4815,292.057 42,292.5C 42.3334,294.047 41.8334,295.38 40.5,296.5C 41.9095,297.569 42.9095,298.903 43.5,300.5C 42.8333,300.5 42.1667,300.5 41.5,300.5C 39.5,299.167 37.8333,297.5 36.5,295.5C 36.5,293.5 35.5,292.5 33.5,292.5C 33.0269,291.094 32.0269,290.427 30.5,290.5C 30.5,289.833 30.1667,289.5 29.5,289.5C 28.5,288.167 27.5,286.833 26.5,285.5 Z"/></g>
<g><path style="opacity:1" fill="#3a2b87" d="M 29.5,289.5 C 30.1667,289.5 30.5,289.833 30.5,290.5C 30.9731,291.906 31.9731,292.573 33.5,292.5C 34.1667,293.833 35.1667,294.833 36.5,295.5C 37.8333,297.5 39.5,299.167 41.5,300.5C 41.8333,301.167 42.1667,301.833 42.5,302.5C 40.3718,301.043 38.0384,300.043 35.5,299.5C 35.1742,297.339 34.1742,295.506 32.5,294C 31.2161,293.316 30.0495,293.483 29,294.5C 29.0187,292.893 29.1854,291.226 29.5,289.5 Z"/></g>
<g><path style="opacity:1" fill="#a08b4c" d="M 33.5,292.5 C 35.5,292.5 36.5,293.5 36.5,295.5C 35.1667,294.833 34.1667,293.833 33.5,292.5 Z"/></g>
<g><path style="opacity:1" fill="#b29b56" d="M 41.5,300.5 C 42.1667,300.5 42.8333,300.5 43.5,300.5C 47.2332,304.227 50.5665,308.227 53.5,312.5C 49.8333,309.167 46.1667,305.833 42.5,302.5C 42.1667,301.833 41.8333,301.167 41.5,300.5 Z"/></g>
<g><path style="opacity:1" fill="#ab9857" d="M 53.5,312.5 C 56.5,313.5 58.5,315.5 59.5,318.5C 57.1667,316.833 55.1667,314.833 53.5,312.5 Z"/></g>
<g><path style="opacity:0.004" fill="#fefffe" d="M 8.5,317.5 C 9.83333,318.167 9.83333,318.167 8.5,317.5 Z"/></g>
<g><path style="opacity:1" fill="#a99453" d="M 59.5,318.5 C 62.5,319.5 64.5,321.5 65.5,324.5C 63.1667,322.833 61.1667,320.833 59.5,318.5 Z"/></g>
<g><path style="opacity:1" fill="#a48a54" d="M 65.5,324.5 C 67.0618,324.733 68.3951,325.4 69.5,326.5C 70.1098,327.391 70.4431,328.391 70.5,329.5C 69.8333,329.167 69.1667,328.833 68.5,328.5C 67.5,327.167 66.5,325.833 65.5,324.5 Z"/></g>
<g><path style="opacity:1" fill="#ceb642" d="M 496.5,318.5 C 492.449,335.592 486.449,351.926 478.5,367.5C 477.167,367.5 475.833,367.5 474.5,367.5C 404.164,367.167 333.83,367.5 263.5,368.5C 263.855,369.522 264.522,370.189 265.5,370.5C 266.167,371.833 267.167,372.833 268.5,373.5C 268.5,374.167 268.5,374.833 268.5,375.5C 266.425,374.38 264.259,373.38 262,372.5C 261.503,370.19 261.337,367.857 261.5,365.5C 333.833,365.5 406.167,365.5 478.5,365.5C 479.023,362.11 479.857,358.777 481,355.5C 485.714,348.627 488.547,340.96 489.5,332.5C 489.674,330.307 489.007,328.473 487.5,327C 488.793,326.51 490.127,326.343 491.5,326.5C 492.222,323.286 493.889,320.619 496.5,318.5 Z"/></g>
<g><path style="opacity:1" fill="#dfc640" d="M 69.5,326.5 C 71.6473,328.505 74.1473,330.172 77,331.5C 78.1362,333.743 78.9695,336.076 79.5,338.5C 77.5484,337.215 75.8818,335.549 74.5,333.5C 74.0269,332.094 73.0269,331.427 71.5,331.5C 71.6716,330.508 71.3382,329.842 70.5,329.5C 70.4431,328.391 70.1098,327.391 69.5,326.5 Z"/></g>
<g><path style="opacity:1" fill="#846f5b" d="M 71.5,331.5 C 73.0269,331.427 74.0269,332.094 74.5,333.5C 72.9731,333.573 71.9731,332.906 71.5,331.5 Z"/></g>
<g><path style="opacity:1" fill="#3a2c81" d="M 68.5,328.5 C 69.1667,328.833 69.8333,329.167 70.5,329.5C 71.3382,329.842 71.6716,330.508 71.5,331.5C 71.9731,332.906 72.9731,333.573 74.5,333.5C 75.8818,335.549 77.5484,337.215 79.5,338.5C 79.8333,339.167 80.1667,339.833 80.5,340.5C 78.742,340.123 77.0754,339.456 75.5,338.5C 74.8408,335.176 72.8408,333.843 69.5,334.5C 69.4828,332.435 69.1495,330.435 68.5,328.5 Z"/></g>
<g><path style="opacity:0.398" fill="#6861a7" d="M 12.5,312.5 C 13.1667,312.5 13.8333,312.5 14.5,312.5C 17.8575,328.872 23.1908,344.539 30.5,359.5C 30.3764,360.107 30.0431,360.44 29.5,360.5C 21.4904,345.48 15.8237,329.48 12.5,312.5 Z"/></g>
<g><path style="opacity:1" fill="#b29954" d="M 79.5,338.5 C 84.1178,341.118 87.7845,344.784 90.5,349.5C 87.238,346.579 83.9047,343.579 80.5,340.5C 80.1667,339.833 79.8333,339.167 79.5,338.5 Z"/></g>
<g><path style="opacity:1" fill="#bfa94f" d="M 90.5,349.5 C 93.179,349.525 94.5123,350.858 94.5,353.5C 92.8333,352.5 91.5,351.167 90.5,349.5 Z"/></g>
<g><path style="opacity:1" fill="#b39957" d="M 94.5,353.5 C 97.5,354.5 99.5,356.5 100.5,359.5C 98.1667,357.833 96.1667,355.833 94.5,353.5 Z"/></g>
<g><path style="opacity:1" fill="#a49157" d="M 100.5,359.5 C 103.167,360.167 104.833,361.833 105.5,364.5C 103.5,363.167 101.833,361.5 100.5,359.5 Z"/></g>
<g><path style="opacity:1" fill="#a89656" d="M 105.5,364.5 C 108.167,365.167 109.833,366.833 110.5,369.5C 108.5,368.167 106.833,366.5 105.5,364.5 Z"/></g>
<g><path style="opacity:1" fill="#3b2f73" d="M 474.5,367.5 C 475.354,370.161 474.688,372.494 472.5,374.5C 472.833,372.5 473.167,370.5 473.5,368.5C 403.825,367.837 334.492,368.503 265.5,370.5C 264.522,370.189 263.855,369.522 263.5,368.5C 333.83,367.5 404.164,367.167 474.5,367.5 Z"/></g>
<g><path style="opacity:0.133" fill="#7571b0" d="M 29.5,361.5 C 34.4174,366.987 38.0841,373.32 40.5,380.5C 36.0909,374.693 32.4242,368.36 29.5,361.5 Z"/></g>
<g><path style="opacity:1" fill="#a89157" d="M 110.5,369.5 C 113.5,370.5 115.5,372.5 116.5,375.5C 114.167,373.833 112.167,371.833 110.5,369.5 Z"/></g>
<g><path style="opacity:1" fill="#2b24a2" d="M 472.5,374.5 C 470.625,377.588 469.292,380.922 468.5,384.5C 467.508,384.328 466.842,384.662 466.5,385.5C 464.661,386.752 462.828,386.752 461,385.5C 460.544,386.744 461.044,387.577 462.5,388C 460.193,388.354 459.859,389.354 461.5,391C 459.615,393.158 458.615,395.658 458.5,398.5C 454.894,401.024 452.228,404.357 450.5,408.5C 450.5,408.833 450.5,409.167 450.5,409.5C 448.284,410.203 446.451,411.536 445,413.5C 441.862,416.792 439.362,420.458 437.5,424.5C 434.231,426.1 431.564,428.433 429.5,431.5C 427.659,432.402 426.326,433.736 425.5,435.5C 424.167,438.167 422.167,440.167 419.5,441.5C 415.723,442.52 412.723,444.686 410.5,448C 409.207,448.49 407.873,448.657 406.5,448.5C 406.5,449.5 406.5,450.5 406.5,451.5C 405.5,451.5 404.5,451.5 403.5,451.5C 403.5,452.5 403.5,453.5 403.5,454.5C 399.077,455.253 395.744,457.587 393.5,461.5C 385.575,465.694 377.575,469.694 369.5,473.5C 368.833,473.5 368.5,473.167 368.5,472.5C 368.167,470.5 367.833,468.5 367.5,466.5C 366.448,466.649 365.448,466.483 364.5,466C 365.641,463.692 367.308,461.859 369.5,460.5C 369,460.167 368.5,459.833 368,459.5C 365.833,460.828 364,462.494 362.5,464.5C 361.614,463.675 361.281,462.675 361.5,461.5C 360.127,461.657 358.793,461.49 357.5,461C 356.262,457.594 353.929,455.427 350.5,454.5C 349.167,453.5 347.833,452.5 346.5,451.5C 345.833,450.5 345.167,449.5 344.5,448.5C 344.338,446.176 343.172,444.509 341,443.5C 340.506,441.866 340.34,440.199 340.5,438.5C 338.712,438.785 337.045,438.452 335.5,437.5C 336.348,435.591 336.682,433.591 336.5,431.5C 335.178,431.67 334.011,431.337 333,430.5C 331.093,433.287 329.593,433.12 328.5,430C 328.905,429.055 329.572,428.388 330.5,428C 328.226,425.912 325.559,424.412 322.5,423.5C 321.643,422.264 320.977,420.931 320.5,419.5C 321.747,417.958 321.747,416.458 320.5,415C 318.559,414.257 316.726,414.424 315,415.5C 315.235,411.38 313.568,410.047 310,411.5C 308.594,410.586 307.094,409.92 305.5,409.5C 304.833,409.167 304.167,408.833 303.5,408.5C 303.167,407.5 302.5,406.833 301.5,406.5C 300.5,404.833 299.167,403.5 297.5,402.5C 296.738,400.738 295.404,399.738 293.5,399.5C 292.438,396.622 290.438,394.622 287.5,393.5C 287.631,392.761 287.464,392.094 287,391.5C 283.372,387.887 279.539,384.554 275.5,381.5C 275.167,379.167 273.833,377.833 271.5,377.5C 271.262,375.596 270.262,374.262 268.5,373.5C 267.167,372.833 266.167,371.833 265.5,370.5C 334.492,368.503 403.825,367.837 473.5,368.5C 473.167,370.5 472.833,372.5 472.5,374.5 Z"/></g>
<g><path style="opacity:1" fill="#93805a" d="M 268.5,373.5 C 270.262,374.262 271.262,375.596 271.5,377.5C 270.5,376.833 269.5,376.167 268.5,375.5C 268.5,374.833 268.5,374.167 268.5,373.5 Z"/></g>
<g><path style="opacity:0.027" fill="#837bb3" d="M 474.5,367.5 C 475.833,367.5 477.167,367.5 478.5,367.5C 475.922,373.664 472.588,379.33 468.5,384.5C 469.292,380.922 470.625,377.588 472.5,374.5C 474.688,372.494 475.354,370.161 474.5,367.5 Z"/></g>
<g><path style="opacity:1" fill="#c5ad4f" d="M 116.5,375.5 C 121.885,377.399 125.551,381.066 127.5,386.5C 126.833,386.167 126.167,385.833 125.5,385.5C 124.5,383.833 123.167,382.5 121.5,381.5C 121.573,379.973 120.906,378.973 119.5,378.5C 117.856,378.19 116.856,377.19 116.5,375.5 Z"/></g>
<g><path style="opacity:1" fill="#583d5e" d="M 119.5,378.5 C 120.906,378.973 121.573,379.973 121.5,381.5C 120.094,381.027 119.427,380.027 119.5,378.5 Z"/></g>
<g><path style="opacity:0.004" fill="#fefffe" d="M 508.5,379.5 C 509.833,380.167 509.833,380.167 508.5,379.5 Z"/></g>
<g><path style="opacity:0.004" fill="#fefffe" d="M 480.5,380.5 C 481.833,381.167 481.833,381.167 480.5,380.5 Z"/></g>
<g><path style="opacity:0.049" fill="#8584af" d="M 40.5,380.5 C 41.8897,381.899 42.8897,383.566 43.5,385.5C 41.2729,384.599 40.2729,382.933 40.5,380.5 Z"/></g>
<g><path style="opacity:1" fill="#4e409d" d="M 466.5,385.5 C 466.5,386.167 466.5,386.833 466.5,387.5C 464.551,391.648 461.885,395.315 458.5,398.5C 458.615,395.658 459.615,393.158 461.5,391C 459.859,389.354 460.193,388.354 462.5,388C 461.044,387.577 460.544,386.744 461,385.5C 462.828,386.752 464.661,386.752 466.5,385.5 Z"/></g>
<g><path style="opacity:0.035" fill="#b3afdb" d="M 468.5,384.5 C 468.068,385.71 467.401,386.71 466.5,387.5C 466.5,386.833 466.5,386.167 466.5,385.5C 466.842,384.662 467.508,384.328 468.5,384.5 Z"/></g>
<g><path style="opacity:1" fill="#ab9457" d="M 127.5,386.5 C 130.833,387.833 133.167,390.167 134.5,393.5C 131.833,391.5 129.5,389.167 127.5,386.5 Z"/></g>
<g><path style="opacity:1" fill="#d4bc47" d="M 275.5,381.5 C 279.539,384.554 283.372,387.887 287,391.5C 287.464,392.094 287.631,392.761 287.5,393.5C 283.423,390.806 279.423,388.139 275.5,385.5C 275.5,384.167 275.5,382.833 275.5,381.5 Z"/></g>
<g><path style="opacity:0.831" fill="#5b52a0" d="M 43.5,386.5 C 45.1172,387.038 46.7839,387.371 48.5,387.5C 48.6741,389.861 49.0074,392.194 49.5,394.5C 47.5116,391.872 45.5116,389.205 43.5,386.5 Z"/></g>
<g><path style="opacity:1" fill="#34288e" d="M 125.5,385.5 C 126.167,385.833 126.833,386.167 127.5,386.5C 129.5,389.167 131.833,391.5 134.5,393.5C 135.833,395.5 137.5,397.167 139.5,398.5C 140.5,399.833 141.5,401.167 142.5,402.5C 140.533,402.261 138.699,402.594 137,403.5C 135.328,399.992 133.495,396.492 131.5,393C 130.234,392.691 129.067,392.191 128,391.5C 125.959,392.423 123.792,392.756 121.5,392.5C 121.351,391.448 121.517,390.448 122,389.5C 123.814,390.76 125.647,390.76 127.5,389.5C 126.37,388.378 125.703,387.044 125.5,385.5 Z"/></g>
<g><path style="opacity:1" fill="#ab915b" d="M 134.5,393.5 C 137.167,394.167 138.833,395.833 139.5,398.5C 137.5,397.167 135.833,395.5 134.5,393.5 Z"/></g>
<g><path style="opacity:1" fill="#c2b04e" d="M 287.5,393.5 C 290.438,394.622 292.438,396.622 293.5,399.5C 290.144,398.81 288.144,396.81 287.5,393.5 Z"/></g>
<g><path style="opacity:0.141" fill="#6660a3" d="M 49.5,394.5 C 52.8855,396.567 55.2189,399.567 56.5,403.5C 53.4531,401.082 51.1198,398.082 49.5,394.5 Z"/></g>
<g><path style="opacity:0.239" fill="#6e67ad" d="M 458.5,398.5 C 456.312,402.207 453.645,405.54 450.5,408.5C 452.228,404.357 454.894,401.024 458.5,398.5 Z"/></g>
<g><path style="opacity:1" fill="#8c7755" d="M 297.5,402.5 C 299.167,403.5 300.5,404.833 301.5,406.5C 299.167,406.167 297.833,404.833 297.5,402.5 Z"/></g>
<g><path style="opacity:0.263" fill="#615b9b" d="M 56.5,403.5 C 59.456,405.396 61.456,408.062 62.5,411.5C 59.5293,409.557 57.5293,406.891 56.5,403.5 Z"/></g>
<g><path style="opacity:1" fill="#b69d55" d="M 139.5,398.5 C 143.638,400.575 146.972,403.575 149.5,407.5C 146.973,406.125 144.64,404.458 142.5,402.5C 141.5,401.167 140.5,399.833 139.5,398.5 Z"/></g>
<g><path style="opacity:1" fill="#e9ce2e" d="M 293.5,399.5 C 295.404,399.738 296.738,400.738 297.5,402.5C 297.833,404.833 299.167,406.167 301.5,406.5C 302.5,406.833 303.167,407.5 303.5,408.5C 303.833,410.833 305.167,412.167 307.5,412.5C 309.262,413.262 310.262,414.596 310.5,416.5C 308.756,415.114 306.756,414.114 304.5,413.5C 303.558,413.608 302.725,413.941 302,414.5C 301.088,412.341 300.255,410.175 299.5,408C 297.153,407.666 294.819,407.833 292.5,408.5C 292.5,407.5 292.5,406.5 292.5,405.5C 293.5,405.5 294.5,405.5 295.5,405.5C 295.396,403.297 294.73,401.297 293.5,399.5 Z"/></g>
<g><path style="opacity:1" fill="#917f50" d="M 303.5,408.5 C 304.167,408.833 304.833,409.167 305.5,409.5C 306.167,410.5 306.833,411.5 307.5,412.5C 305.167,412.167 303.833,410.833 303.5,408.5 Z"/></g>
<g><path style="opacity:1" fill="#b0985a" d="M 149.5,408.5 C 152.938,409.693 155.271,412.026 156.5,415.5C 153.833,413.5 151.5,411.167 149.5,408.5 Z"/></g>
<g><path style="opacity:1" fill="#b09859" d="M 156.5,415.5 C 161.5,418.5 165.5,422.5 168.5,427.5C 165.5,424.833 162.5,422.167 159.5,419.5C 158.5,418.167 157.5,416.833 156.5,415.5 Z"/></g>
<g><path style="opacity:0.035" fill="#6c68aa" d="M 450.5,409.5 C 446.511,414.821 442.178,419.821 437.5,424.5C 439.362,420.458 441.862,416.792 445,413.5C 446.451,411.536 448.284,410.203 450.5,409.5 Z"/></g>
<g><path style="opacity:1" fill="#9e8c5c" d="M 313.5,418.5 C 315.5,419.833 317.167,421.5 318.5,423.5C 315.833,422.833 314.167,421.167 313.5,418.5 Z"/></g>
<g><path style="opacity:0.004" fill="#fefffe" d="M 33.5,422.5 C 34.8333,423.167 34.8333,423.167 33.5,422.5 Z"/></g>
<g><path style="opacity:1" fill="#a39354" d="M 318.5,423.5 C 320.587,424.585 321.92,426.251 322.5,428.5C 320.413,427.415 319.08,425.749 318.5,423.5 Z"/></g>
<g><path style="opacity:1" fill="#3b2a84" d="M 159.5,419.5 C 162.5,422.167 165.5,424.833 168.5,427.5C 169.833,429.5 171.5,431.167 173.5,432.5C 173.5,432.833 173.5,433.167 173.5,433.5C 171.883,432.962 170.216,432.629 168.5,432.5C 168.833,429.5 167.5,428.167 164.5,428.5C 162.854,425.513 161.188,422.513 159.5,419.5 Z"/></g>
<g><path style="opacity:1" fill="#332893" d="M 305.5,409.5 C 307.094,409.92 308.594,410.586 310,411.5C 313.568,410.047 315.235,411.38 315,415.5C 316.726,414.424 318.559,414.257 320.5,415C 321.747,416.458 321.747,417.958 320.5,419.5C 320.977,420.931 321.643,422.264 322.5,423.5C 325.559,424.412 328.226,425.912 330.5,428C 329.572,428.388 328.905,429.055 328.5,430C 329.593,433.12 331.093,433.287 333,430.5C 334.011,431.337 335.178,431.67 336.5,431.5C 336.682,433.591 336.348,435.591 335.5,437.5C 337.045,438.452 338.712,438.785 340.5,438.5C 340.34,440.199 340.506,441.866 341,443.5C 343.172,444.509 344.338,446.176 344.5,448.5C 343.833,448.167 343.167,447.833 342.5,447.5C 340.5,444.833 338.167,442.5 335.5,440.5C 333.833,438.167 331.833,436.167 329.5,434.5C 328.833,433.167 327.833,432.167 326.5,431.5C 325.205,430.512 323.872,429.512 322.5,428.5C 321.92,426.251 320.587,424.585 318.5,423.5C 317.167,421.5 315.5,419.833 313.5,418.5C 312.5,417.833 311.5,417.167 310.5,416.5C 310.262,414.596 309.262,413.262 307.5,412.5C 306.833,411.5 306.167,410.5 305.5,409.5 Z"/></g>
<g><path style="opacity:0.035" fill="#726dac" d="M 437.5,424.5 C 435.451,427.55 432.784,429.883 429.5,431.5C 431.564,428.433 434.231,426.1 437.5,424.5 Z"/></g>
<g><path style="opacity:1" fill="#ab944a" d="M 168.5,427.5 C 171.167,428.167 172.833,429.833 173.5,432.5C 171.5,431.167 169.833,429.5 168.5,427.5 Z"/></g>
<g><path style="opacity:0.004" fill="#fefffe" d="M 33.5,431.5 C 34.8333,432.167 34.8333,432.167 33.5,431.5 Z"/></g>
<g><path style="opacity:0.275" fill="#706aac" d="M 62.5,411.5 C 68.322,416.16 73.322,421.66 77.5,428C 84.6377,433.637 91.3044,439.804 97.5,446.5C 90.1005,441.278 83.1005,435.445 76.5,429C 75,426.167 72.8333,424 70,422.5C 66.9955,419.151 64.4955,415.484 62.5,411.5 Z"/></g>
<g><path style="opacity:1" fill="#947d56" d="M 326.5,431.5 C 327.833,432.167 328.833,433.167 329.5,434.5C 327.5,434.5 326.5,433.5 326.5,431.5 Z"/></g>
<g><path style="opacity:1" fill="#a58c52" d="M 173.5,433.5 C 173.5,433.167 173.5,432.833 173.5,432.5C 176.167,433.167 177.833,434.833 178.5,437.5C 176.833,436.167 175.167,434.833 173.5,433.5 Z"/></g>
<g><path style="opacity:0.153" fill="#6a64a7" d="M 429.5,431.5 C 429.167,433.833 427.833,435.167 425.5,435.5C 426.326,433.736 427.659,432.402 429.5,431.5 Z"/></g>
<g><path style="opacity:1" fill="#9d8b53" d="M 329.5,434.5 C 331.833,436.167 333.833,438.167 335.5,440.5C 332.5,439.5 330.5,437.5 329.5,434.5 Z"/></g>
<g><path style="opacity:1" fill="#99834f" d="M 181.5,440.5 C 183.5,440.5 184.5,441.5 184.5,443.5C 183.167,442.833 182.167,441.833 181.5,440.5 Z"/></g>
<g><path style="opacity:1" fill="#aa9859" d="M 335.5,440.5 C 338.167,442.5 340.5,444.833 342.5,447.5C 339.167,446.167 336.833,443.833 335.5,440.5 Z"/></g>
<g><path style="opacity:1" fill="#a89454" d="M 184.5,443.5 C 187.833,444.833 190.167,447.167 191.5,450.5C 188.833,448.5 186.5,446.167 184.5,443.5 Z"/></g>
<g><path style="opacity:0.2" fill="#9e97c3" d="M 97.5,446.5 C 99.7488,447.08 101.415,448.413 102.5,450.5C 100.251,449.92 98.5846,448.587 97.5,446.5 Z"/></g>
<g><path style="opacity:1" fill="#9f8d56" d="M 342.5,447.5 C 343.167,447.833 343.833,448.167 344.5,448.5C 345.167,449.5 345.833,450.5 346.5,451.5C 344.938,451.267 343.605,450.6 342.5,449.5C 342.5,448.833 342.5,448.167 342.5,447.5 Z"/></g>
<g><path style="opacity:1" fill="#a38b58" d="M 191.5,450.5 C 193.833,450.833 195.167,452.167 195.5,454.5C 193.833,453.5 192.5,452.167 191.5,450.5 Z"/></g>
<g><path style="opacity:0.525" fill="#645ba0" d="M 419.5,441.5 C 414.771,446.561 409.438,450.894 403.5,454.5C 403.5,453.5 403.5,452.5 403.5,451.5C 404.5,451.5 405.5,451.5 406.5,451.5C 406.5,450.5 406.5,449.5 406.5,448.5C 407.873,448.657 409.207,448.49 410.5,448C 412.723,444.686 415.723,442.52 419.5,441.5 Z"/></g>
<g><path style="opacity:0.055" fill="#9491c3" d="M 102.5,450.5 C 104.749,451.08 106.415,452.413 107.5,454.5C 105.251,453.92 103.585,452.587 102.5,450.5 Z"/></g>
<g><path style="opacity:1" fill="#d5be44" d="M 342.5,449.5 C 343.605,450.6 344.938,451.267 346.5,451.5C 347.833,452.5 349.167,453.5 350.5,454.5C 351.167,455.5 351.833,456.5 352.5,457.5C 349.534,455.89 346.534,454.223 343.5,452.5C 342.873,451.583 342.539,450.583 342.5,449.5 Z"/></g>
<g><path style="opacity:1" fill="#907a4f" d="M 198.5,457.5 C 200.5,457.5 201.5,458.5 201.5,460.5C 200.167,459.833 199.167,458.833 198.5,457.5 Z"/></g>
<g><path style="opacity:0.004" fill="#fefffe" d="M 67.5,458.5 C 68.8333,459.167 68.8333,459.167 67.5,458.5 Z"/></g>
<g><path style="opacity:1" fill="#38298f" d="M 350.5,454.5 C 353.929,455.427 356.262,457.594 357.5,461C 358.793,461.49 360.127,461.657 361.5,461.5C 361.281,462.675 361.614,463.675 362.5,464.5C 364,462.494 365.833,460.828 368,459.5C 368.5,459.833 369,460.167 369.5,460.5C 367.308,461.859 365.641,463.692 364.5,466C 365.448,466.483 366.448,466.649 367.5,466.5C 367.833,468.5 368.167,470.5 368.5,472.5C 367.167,471.5 365.833,470.5 364.5,469.5C 362.833,467.167 360.833,465.167 358.5,463.5C 356.5,461.5 354.5,459.5 352.5,457.5C 351.833,456.5 351.167,455.5 350.5,454.5 Z"/></g>
<g><path style="opacity:0.008" fill="#7971b0" d="M 403.5,454.5 C 400.725,457.605 397.392,459.938 393.5,461.5C 395.744,457.587 399.077,455.253 403.5,454.5 Z"/></g>
<g><path style="opacity:1" fill="#ae9c59" d="M 358.5,463.5 C 360.833,465.167 362.833,467.167 364.5,469.5C 361.5,468.5 359.5,466.5 358.5,463.5 Z"/></g>
<g><path style="opacity:1" fill="#a08957" d="M 201.5,460.5 C 204.5,461.5 206.5,463.5 207.5,466.5C 205.167,464.833 203.167,462.833 201.5,460.5 Z"/></g>
<g><path style="opacity:0.024" fill="#7d78b1" d="M 107.5,454.5 C 120.237,462.277 132.904,469.944 145.5,477.5C 131.271,472.241 118.604,464.574 107.5,454.5 Z"/></g>
<g><path style="opacity:1" fill="#9d8657" d="M 207.5,466.5 C 210.5,467.5 212.5,469.5 213.5,472.5C 211.167,470.833 209.167,468.833 207.5,466.5 Z"/></g>
<g><path style="opacity:0.004" fill="#fefffe" d="M 394.5,467.5 C 395.833,468.167 395.833,468.167 394.5,467.5 Z"/></g>
<g><path style="opacity:0.02" fill="#6b67a7" d="M 393.5,461.5 C 386.121,467.191 378.121,471.858 369.5,475.5C 369.5,474.833 369.5,474.167 369.5,473.5C 377.575,469.694 385.575,465.694 393.5,461.5 Z"/></g>
<g><path style="opacity:1" fill="#a5975f" d="M 364.5,469.5 C 365.833,470.5 367.167,471.5 368.5,472.5C 368.5,473.167 368.833,473.5 369.5,473.5C 369.5,474.167 369.5,474.833 369.5,475.5C 368.833,475.167 368.167,474.833 367.5,474.5C 366.075,473.078 365.075,471.411 364.5,469.5 Z"/></g>
<g><path style="opacity:1" fill="#9a8455" d="M 214.5,473.5 C 217.167,474.167 218.833,475.833 219.5,478.5C 217.5,477.167 215.833,475.5 214.5,473.5 Z"/></g>
<g><path style="opacity:1" fill="#eed951" d="M 367.5,474.5 C 368.167,474.833 368.833,475.167 369.5,475.5C 360.922,480.286 351.922,484.286 342.5,487.5C 342.937,485.926 343.937,484.759 345.5,484C 352.795,480.485 360.128,477.318 367.5,474.5 Z"/></g>
<g><path style="opacity:1" fill="#9d8659" d="M 219.5,478.5 C 222.167,479.167 223.833,480.833 224.5,483.5C 222.5,482.167 220.833,480.5 219.5,478.5 Z"/></g>
<g><path style="opacity:0.004" fill="#fefffe" d="M 5.5,481.5 C 6.83333,482.167 6.83333,482.167 5.5,481.5 Z"/></g>
<g><path style="opacity:0.165" fill="#5f589d" d="M 145.5,477.5 C 160.154,482.825 174.82,488.158 189.5,493.5C 173.989,490.296 159.323,484.963 145.5,477.5 Z"/></g>
<g><path style="opacity:1" fill="#998357" d="M 224.5,483.5 C 227.167,484.167 228.833,485.833 229.5,488.5C 227.5,487.167 225.833,485.5 224.5,483.5 Z"/></g>
<g><path style="opacity:1" fill="#ad9650" d="M 229.5,488.5 C 231.749,489.08 233.415,490.413 234.5,492.5C 233.833,492.5 233.167,492.5 232.5,492.5C 231.5,491.167 230.5,489.833 229.5,488.5 Z"/></g>
<g><path style="opacity:0.788" fill="#eddb4f" d="M 340.5,487.5 C 333.961,490.893 326.961,493.226 319.5,494.5C 323.021,492.602 326.688,490.769 330.5,489C 333.827,488.39 337.161,487.89 340.5,487.5 Z"/></g>
<g><path style="opacity:1" fill="#a79553" d="M 234.5,492.5 C 237.851,494.854 240.518,497.854 242.5,501.5C 242.5,502.167 242.5,502.833 242.5,503.5C 242.167,503.5 241.833,503.5 241.5,503.5C 241.737,502.209 241.404,501.209 240.5,500.5C 238.115,498.116 236.115,495.45 234.5,492.5 Z"/></g>
<g><path style="opacity:0.004" fill="#fefffe" d="M 39.5,495.5 C 40.8333,496.167 40.8333,496.167 39.5,495.5 Z"/></g>
<g><path style="opacity:1" fill="#493d97" d="M 193.5,494.5 C 205.703,494.906 217.703,496.573 229.5,499.5C 230.492,499.328 231.158,499.662 231.5,500.5C 229.585,500.216 227.919,500.549 226.5,501.5C 215.249,499.805 204.249,497.472 193.5,494.5 Z"/></g>
<g><path style="opacity:0.004" fill="#fefffe" d="M -0.5,496.5 C 0.833333,497.167 0.833333,497.167 -0.5,496.5 Z"/></g>
<g><path style="opacity:1" fill="#322890" d="M 232.5,492.5 C 233.167,492.5 233.833,492.5 234.5,492.5C 236.115,495.45 238.115,498.116 240.5,500.5C 237.5,501.833 234.5,501.833 231.5,500.5C 231.158,499.662 230.492,499.328 229.5,499.5C 229.586,498.504 229.252,497.671 228.5,497C 230.407,495.931 231.741,494.431 232.5,492.5 Z"/></g>
<g><path style="opacity:0.676" fill="#edda51" d="M 318.5,494.5 C 293.824,501.724 268.491,504.724 242.5,503.5C 242.5,502.833 242.5,502.167 242.5,501.5C 258.913,501.977 275.247,501.144 291.5,499C 300.19,496.098 309.19,494.598 318.5,494.5 Z"/></g>
<g><path style="opacity:0.004" fill="#fefffe" d="M 116.5,499.5 C 117.833,500.167 117.833,500.167 116.5,499.5 Z"/></g>
<g><path style="opacity:0.039" fill="#9792c1" d="M 226.5,501.5 C 227.919,500.549 229.585,500.216 231.5,500.5C 234.5,501.833 237.5,501.833 240.5,500.5C 241.404,501.209 241.737,502.209 241.5,503.5C 236.5,502.833 231.5,502.167 226.5,501.5 Z"/></g>
<g><path style="opacity:0.004" fill="#fefffe" d="M 400.5,508.5 C 401.833,509.167 401.833,509.167 400.5,508.5 Z"/></g>
</svg>
