<?xml version="1.0" encoding="utf-8"?>
<!-- Generator: Adobe Illustrator 28.3.0, SVG Export Plug-In . SVG Version: 6.00 Build 0)  -->
<svg version="1.1" id="Capa_1" xmlns="http://www.w3.org/2000/svg" xmlns:xlink="http://www.w3.org/1999/xlink" x="0px" y="0px"
	 viewBox="0 0 142.2 142.2" style="enable-background:new 0 0 142.2 142.2;" xml:space="preserve">
<style type="text/css">
	.st0{fill-rule:evenodd;clip-rule:evenodd;fill:#949300;}
	.st1{enable-background:new    ;}
	.st2{fill:#FFFFFF;}
</style>
<rect class="st0" width="142.2" height="142.2"/>
<g class="st1">
	<path class="st2" d="M10.7,46.3h26.6c8.9,0,14.5,6.2,14.5,13.6c0,5.8-2.4,10.2-7.8,12.4v0.1c5.3,1.4,6.9,6.6,7.2,11.6
		c0.2,3.1,0.1,8.9,2.1,11.7H42.4c-1.3-3.1-1.2-7.9-1.7-11.8c-0.8-5.2-2.8-7.5-8.2-7.5H21.6v19.3H10.7V46.3z M21.6,68.6h11.9
		c4.8,0,7.5-2.1,7.5-7.1c0-4.8-2.6-6.9-7.5-6.9H21.6V68.6z"/>
	<path class="st2" d="M60.7,46.3h10.9v40.3h24.1v9.1h-35C60.7,95.7,60.7,46.3,60.7,46.3z"/>
	<path class="st2" d="M112.7,66.8c4.2,0.3,10.3-0.5,10.3-6c0-4.1-3.3-6.4-6.9-6.4c-4.9,0-7.5,3.7-7.5,8.7h-9.3
		c0.3-9.9,6.8-16.8,16.8-16.8c7.8,0,16.3,4.8,16.3,13.4c0,4.6-2.3,8.7-6.8,9.9v0.1c5.3,1.2,8.6,5.6,8.6,11c0,10.2-8.5,15.9-18,15.9
		c-10.9,0-18.2-6.5-18-17.6h9.3c0.2,5.3,2.8,9.6,8.5,9.6c4.4,0,7.9-3,7.9-7.6c0-7.3-6.4-7.2-11.2-7.2
		C112.7,73.8,112.7,66.8,112.7,66.8z"/>
</g>
</svg>
