<?xml version="1.0" encoding="utf-8"?>
<!-- Generator: Adobe Illustrator 16.0.0, SVG Export Plug-In . SVG Version: 6.00 Build 0)  -->
<!DOCTYPE svg PUBLIC "-//W3C//DTD SVG 1.1//EN" "http://www.w3.org/Graphics/SVG/1.1/DTD/svg11.dtd">
<svg version="1.1" id="Layer_1" xmlns="http://www.w3.org/2000/svg" xmlns:xlink="http://www.w3.org/1999/xlink" x="0px" y="0px"
	 width="58px" height="58px" viewBox="0 0 58 58" enable-background="new 0 0 58 58" xml:space="preserve">
<path id="path4000" fill="#37BDB3" d="M57.995,58V0H0.005v58H57.995z"/>
<g>
	<g enable-background="new    ">
		<path fill="#FFFFFF" d="M4.045,16.345h11.898c6.261,0,7.408,4.622,7.408,6.655c0,2.59-1.311,4.819-3.639,5.606
			c1.935,0.853,2.983,1.574,2.983,5.967c0,3.443,0,4.295,1.049,4.689v0.621h-5.441c-0.328-1.115-0.524-2.326-0.524-4.754
			c0-3.213-0.197-4.457-3.835-4.457H8.863v9.211H4.045V16.345z M14.632,26.704c2.558,0,3.803-0.885,3.803-3.212
			c0-1.246-0.558-3.082-3.441-3.082h-6.13v6.294H14.632z"/>
	</g>
	<g enable-background="new    ">
		<path fill="#FFFFFF" d="M35.748,39.809h-4.916V20.435h-7.113v-4.164H42.86v4.164h-7.112V39.809z"/>
	</g>
	<g enable-background="new    ">
		<path fill="#FFFFFF" d="M43.825,20.498h0.655c4.425,0,5.604-2.295,5.703-4.032h3.771v23.277h-4.59V23.71h-5.539V20.498z"/>
	</g>
</g>
</svg>
